<svg width="78" height="51" viewBox="0 0 78 51" fill="none" xmlns="http://www.w3.org/2000/svg">
<path fill-rule="evenodd" clip-rule="evenodd" d="M40.558 0.660871C32.8354 1.96826 20.9598 6.77041 15.9518 10.6106C12.3595 13.3649 10.9391 16.6696 10.9391 22.2722V26.6122L7.08482 28.28C2.20937 30.3885 0.610888 33.4133 2.68939 36.6014C3.86354 38.404 4.43219 38.6176 7.0958 38.2581C9.33979 37.9561 10.1547 38.1288 10.1547 38.907C10.1547 40.5149 8.72644 41.0889 4.33963 41.2435C0.984233 41.3625 0.350488 41.6243 0.350488 42.8915C0.350488 44.1271 1.01325 44.441 4.03531 44.6373C6.32636 44.7855 8.65193 44.3913 10.1845 43.5941C12.4379 42.4231 12.9148 42.4192 15.7321 43.5531C19.635 45.123 24.7811 45.1333 27.7498 43.5767C29.8149 42.4941 30.3577 42.4949 33.0598 43.5822C36.8944 45.1246 41.4561 45.1246 45.2907 43.5822C47.9928 42.4949 48.5355 42.4941 50.6007 43.5767C53.5694 45.1333 58.7155 45.123 62.6183 43.5531C65.4357 42.4192 65.9126 42.4231 68.166 43.5941C69.6986 44.3913 72.0241 44.7855 74.3152 44.6373C77.3976 44.437 78 44.1405 78 42.8213C78 41.6227 77.5294 41.2821 76.0392 41.4012C74.9607 41.4871 73.3026 41.3964 72.3543 41.1993L70.6296 40.8405L72.5504 38.9094C73.6061 37.848 74.4705 36.5201 74.4705 35.9603C74.4705 33.9259 70.2868 22.2635 68.7832 20.1053C67.9346 18.8878 67.3667 17.8051 67.522 17.6987C67.6765 17.5922 68.795 16.881 70.0068 16.1185C71.7865 14.998 72.163 14.2536 71.9677 12.242C71.5998 8.45866 68.6366 7.07479 63.7313 8.39479L59.9602 9.40963L56.4307 5.43622C51.5121 -0.100851 49.1881 -0.800279 40.558 0.660871ZM53.9459 8.29701C60.1147 14.8552 60.8928 16.1997 59.3939 17.7074C58.3429 18.7632 31.7687 28.2997 20.5064 31.662C16.8467 32.7549 16.3314 32.7533 15.2302 31.6462C13.5799 29.9879 14.4192 17.5544 16.333 15.3008C18.7244 12.4841 24.4854 9.36784 31.637 7.02196C40.5227 4.10675 41.0365 3.99242 45.8131 3.88044C49.574 3.79213 49.8493 3.94116 53.9459 8.29701ZM68.5409 12.3863C69.2899 13.6054 64.5047 14.8757 63.5446 13.7126C63.0905 13.1623 62.9509 12.4786 63.2348 12.1931C64.0043 11.4196 68.0365 11.5663 68.5409 12.3863ZM68.2475 27.4449C69.1613 29.8302 70.0947 32.9079 70.3221 34.2847C70.7158 36.6715 70.5747 36.8348 67.3087 37.7889C65.4239 38.3385 63.0458 39.321 62.0246 39.9716C59.4096 41.6354 53.4031 41.4698 50.3364 39.649C47.9881 38.2541 47.6453 38.2352 45.646 39.3904C44.4593 40.0749 42.5055 40.8713 41.3032 41.1599C38.8654 41.7434 32.9005 40.4045 32.9005 39.2729C32.9005 37.7022 29.3569 35.3303 27.0102 35.3303C23.6767 35.3303 17.1902 37.628 16.6694 38.9938C16.3447 39.843 15.9925 39.8903 15.1612 39.1964C13.183 37.546 13.9086 36.1188 16.7259 36.1188C19.3252 36.1188 55.6448 23.9785 60.3249 21.5451C61.634 20.8646 62.707 19.8734 62.7093 19.342C62.7172 17.4708 66.6067 23.1616 68.2475 27.4449ZM56.8229 24.3657C54.6659 25.2268 52.2839 26.6659 51.5286 27.564C48.1559 31.5761 51.3945 37.6958 56.8903 37.6958C59.2496 37.6958 60.3979 37.069 63.2011 34.2515C65.9683 31.4688 66.6271 30.2647 66.6271 27.9874C66.6271 25.9688 66.1322 24.8207 64.8835 23.9415C62.674 22.3849 61.6473 22.4393 56.8229 24.3657ZM63.1031 27.4544C63.729 28.4716 60.5053 32.5546 58.2049 33.6578C55.7028 34.8571 54.0777 33.9558 54.0777 31.3687C54.0777 29.4738 54.56 28.9818 57.4111 27.9669C61.4897 26.516 62.4717 26.4269 63.1031 27.4544ZM10.0496 33.3518C9.46058 33.9133 8.18446 34.6119 7.21345 34.9044C4.34434 35.7695 5.02828 33.0672 7.99779 31.8039C10.7422 30.6361 11.9461 31.5445 10.0496 33.3518ZM28.1945 39.2359C28.1945 39.9747 23.3794 41.6251 21.2006 41.6338C19.5982 41.6401 20.8492 40.604 23.741 39.53C26.88 38.3645 28.1945 38.2778 28.1945 39.2359ZM10.1547 46.4927C9.07625 46.939 6.47539 47.4311 4.37571 47.5872C0.0108689 47.9113 -0.426792 48.1652 0.263426 49.9757C0.690106 51.0914 1.53719 51.205 6.04714 50.7492C8.95311 50.4551 12.5666 50.2753 14.0764 50.3494C15.5863 50.4235 19.2044 50.4732 22.1159 50.4598C25.0273 50.4456 28.822 50.4346 30.5475 50.4346C32.2731 50.4346 36.1555 50.4346 39.1752 50.4346C42.1949 50.4346 46.0774 50.4346 47.803 50.4346C49.5285 50.4346 53.411 50.4346 56.4307 50.4346C59.4504 50.4346 63.245 50.4251 64.8623 50.4133C66.4804 50.4023 70.0978 50.463 72.9018 50.5497C77.5294 50.6924 78 50.5607 78 49.1296C78 47.8616 77.5388 47.5888 75.647 47.7378C74.3528 47.8395 71.4453 47.3877 69.1856 46.7332C65.4765 45.6584 64.7008 45.6663 61.1955 46.8192C57.9358 47.8908 56.7091 47.9436 53.5388 47.1472C48.8305 45.9636 46.7269 45.9486 42.5087 47.0691C40.0435 47.7244 38.307 47.7244 35.8418 47.0691C31.6236 45.9486 29.52 45.9636 24.8117 47.1472C21.6516 47.9412 20.4131 47.8908 17.213 46.8381C12.8458 45.4022 12.7956 45.3998 10.1547 46.4927Z" fill="#04E63D"/>
</svg>
