<svg width="100" height="98" viewBox="0 0 100 98" fill="none" xmlns="http://www.w3.org/2000/svg">
<path fill-rule="evenodd" clip-rule="evenodd" d="M50.001 4C50.001 7.333 50.334 8 52.001 8C53.668 8 54.001 7.333 54.001 4C54.001 0.667 53.668 0 52.001 0C50.334 0 50.001 0.667 50.001 4ZM36.001 7.845C36.001 10.292 39.527 13.396 41.464 12.653C43.531 11.859 43.404 9.675 41.172 7.655C38.724 5.439 36.001 5.539 36.001 7.845ZM62.535 7.963C60.621 10.077 61.074 13 63.315 13C65.151 13 68.001 9.759 68.001 7.671C68.001 5.376 64.717 5.551 62.535 7.963ZM46.456 14.455C44.569 16.341 44.001 17.962 44.001 21.455V26H23.572C6.33398 26 2.89798 26.245 1.57198 27.571C0.221981 28.922 0.000981475 32.918 0.000981475 56C0.000981475 86.977 -0.278019 86 8.57198 86C12.808 86 14.001 86.34 14.001 87.55C14.001 92.757 20.021 98 26.001 98C31.981 98 38.001 92.757 38.001 87.55C38.001 86.224 40.024 86 52.001 86C63.978 86 66.001 86.224 66.001 87.55C66.001 92.757 72.021 98 78.001 98C83.981 98 90.001 92.757 90.001 87.55C90.001 86.451 91 86 93.43 86C99.373 86 100.216 84.17 99.835 72.094L99.501 61.5L89.176 45.5C83.497 36.7 77.934 28.712 76.815 27.75C75.274 26.425 72.986 26 67.39 26H60.001V21.455C60.001 13.035 52.007 8.903 46.456 14.455ZM54.43 17.571C55.294 18.436 56.001 20.686 56.001 22.571C56.001 25.905 55.89 26 52.001 26C48.112 26 48.001 25.905 48.001 22.571C48.001 19.367 50.05 16 52.001 16C52.472 16 53.565 16.707 54.43 17.571ZM29.501 19C28.355 20.854 30.096 22 34.06 22C37.334 22 38.001 21.662 38.001 20C38.001 18.338 37.334 18 34.06 18C31.892 18 29.841 18.45 29.501 19ZM65.501 19C64.355 20.854 66.096 22 70.06 22C73.334 22 74.001 21.662 74.001 20C74.001 18.338 73.334 18 70.06 18C67.892 18 65.841 18.45 65.501 19ZM74.501 32C76.295 33.982 76.248 34 69.156 34H62.001V47V60H77.475H92.95L94.517 63.031C95.639 65.2 96.001 68.256 95.793 73.781L95.501 81.5L92.336 81.807C89.838 82.049 89.03 81.666 88.497 79.988C87.567 77.058 82.214 74.007 78.001 74.007C73.821 74.007 68.437 77.051 67.523 79.931C66.898 81.901 66.153 82 52.001 82C37.849 82 37.104 81.901 36.479 79.931C35.565 77.051 30.181 74.007 26.001 74.007C21.793 74.007 16.435 77.057 15.507 79.98C14.919 81.835 14.191 82.061 9.66798 81.799L4.50098 81.5L4.23298 57.019C4.08498 43.554 4.18398 31.967 4.45098 31.269C4.83098 30.278 12.367 30 38.815 30C71.421 30 72.759 30.075 74.501 32ZM83.735 45.75C86.445 50.013 88.99 54.063 89.39 54.75C89.956 55.721 87.429 56 78.06 56H66.001V47V38H72.405H78.808L83.735 45.75ZM28.001 46V50H24.001C20.668 50 20.001 50.333 20.001 52C20.001 53.667 20.668 54 24.001 54H28.001V58C28.001 61.333 28.334 62 30.001 62C31.668 62 32.001 61.333 32.001 58V54H36.001C39.334 54 40.001 53.667 40.001 52C40.001 50.333 39.334 50 36.001 50H32.001V46C32.001 42.667 31.668 42 30.001 42C28.334 42 28.001 42.667 28.001 46ZM31.078 80.923C32.686 82.531 34.001 84.815 34.001 86C34.001 88.784 28.785 94 26.001 94C23.217 94 18.001 88.784 18.001 86C18.001 83.216 23.217 78 26.001 78C27.186 78 29.47 79.315 31.078 80.923ZM83.078 80.923C84.686 82.531 86.001 84.815 86.001 86C86.001 88.784 80.785 94 78.001 94C75.217 94 70.001 88.784 70.001 86C70.001 84.815 71.316 82.531 72.924 80.923C76.621 77.226 79.381 77.226 83.078 80.923Z" fill="#04E63D"/>
</svg>
