<svg width="91" height="51" viewBox="0 0 91 51" fill="none" xmlns="http://www.w3.org/2000/svg">
<path fill-rule="evenodd" clip-rule="evenodd" d="M10.92 0.313286C10.92 0.486321 8.463 11.2054 5.46 24.1339C2.457 37.0624 0 48.3963 0 49.3206C0 50.9299 1.88734 51 45.5 51C89.1127 51 91 50.9299 91 49.3206C91 48.3963 88.543 37.0624 85.54 24.1339C82.537 11.2054 80.08 0.486321 80.08 0.313286C80.08 0.141161 64.519 0 45.5 0C26.481 0 10.92 0.141161 10.92 0.313286ZM43.68 4.55357C43.68 5.05446 44.499 5.46429 45.5 5.46429C46.501 5.46429 47.32 5.05446 47.32 4.55357C47.32 3.98437 52.76 3.64286 61.819 3.64286C74.8329 3.64286 76.3681 3.80587 76.8086 5.23661C77.3655 7.04073 86.45 46.3608 86.45 46.9655C86.45 47.1805 77.6458 47.3571 66.885 47.3571H47.32V44.625C47.32 42.5003 46.916 41.8929 45.5 41.8929C44.084 41.8929 43.68 42.5003 43.68 44.625V47.3571H24.115C13.3543 47.3571 4.55 47.1805 4.55 46.9655C4.55 46.3608 13.6345 7.04073 14.1915 5.23661C14.6319 3.80587 16.1671 3.64286 29.181 3.64286C38.24 3.64286 43.68 3.98437 43.68 4.55357ZM43.68 12.75C43.68 15.7854 43.983 16.3929 45.5 16.3929C47.017 16.3929 47.32 15.7854 47.32 12.75C47.32 9.71459 47.017 9.10714 45.5 9.10714C43.983 9.10714 43.68 9.71459 43.68 12.75ZM43.68 23.6786C43.68 26.714 43.983 27.3214 45.5 27.3214C47.017 27.3214 47.32 26.714 47.32 23.6786C47.32 20.6432 47.017 20.0357 45.5 20.0357C43.983 20.0357 43.68 20.6432 43.68 23.6786ZM43.68 34.6071C43.68 37.6426 43.983 38.25 45.5 38.25C47.017 38.25 47.32 37.6426 47.32 34.6071C47.32 31.5717 47.017 30.9643 45.5 30.9643C43.983 30.9643 43.68 31.5717 43.68 34.6071Z" fill="#04E63D"/>
</svg>
