<svg width="62" height="62" viewBox="0 0 62 62" fill="none" xmlns="http://www.w3.org/2000/svg">
<path fill-rule="evenodd" clip-rule="evenodd" d="M12.9114 2.51429C8.26343 5.5273 4.12576 9.81937 1.40883 14.4455C-0.156833 17.1109 -0.32762 17.8013 0.45487 18.2963C1.93616 19.2318 2.3206 19.0614 3.39159 16.9955C5.48934 12.9478 10.1911 7.84849 14.2233 5.24826C16.5313 3.76009 18.3888 2.25562 18.3514 1.9053C18.069 -0.737699 17.8989 -0.71869 12.9114 2.51429ZM21.8461 4.02486C13.0461 7.12749 6.77466 13.4909 3.76582 22.3704C2.57848 25.8743 2.34237 27.8587 2.56147 32.5093C3.06634 43.2347 8.84111 51.9418 18.6631 56.7851C23.6091 59.2244 24.05 59.3147 31.0073 59.3147C37.9647 59.3147 38.4056 59.2244 43.3516 56.7851C49.6231 53.6927 54.0663 49.1765 57.0778 42.8328C59.0858 38.6039 59.245 37.7444 59.245 31.1399C59.245 24.5355 59.0858 23.676 57.0778 19.447C54.0765 13.125 49.6197 8.58579 43.4088 5.52254C38.8683 3.28349 37.683 2.99835 32.1198 2.80758C27.1446 2.63649 25.0944 2.87954 21.8461 4.02486ZM35.9071 6.10437C49.5802 8.99925 58.7891 22.2706 56.2083 35.3607C52.8048 52.6234 34.7524 61.6257 19.2537 53.7891C9.59639 48.9063 3.76718 37.2596 5.80642 26.9191C7.87899 16.4075 15.0241 8.81934 25.2237 6.29786C29.6281 5.20889 31.5149 5.17494 35.9071 6.10437ZM29.6465 19.6079C29.6465 25.1234 29.3505 28.9158 28.8585 29.7013C27.8434 31.3239 28.519 33.0354 30.4793 33.8046C31.3312 34.1387 33.5474 35.967 35.4042 37.8679C38.9275 41.4736 40.2945 42.0568 40.9892 40.2502C41.2627 39.538 40.1645 37.8788 37.732 35.3281C35.7138 33.2113 33.6814 30.7964 33.2153 29.9613C32.6608 28.9674 32.3682 25.3902 32.3682 19.6079C32.3682 11.2254 32.2988 10.7726 31.0073 10.7726C29.7159 10.7726 29.6465 11.2254 29.6465 19.6079ZM58.6231 45.2843C56.5192 49.3436 51.9964 54.208 47.7138 57.0173C42.974 60.1267 42.9488 60.1573 43.8796 61.6244C45.3357 63.9184 56.1089 55.2297 60.2132 48.4508C62.1252 45.2932 62.3688 44.4948 61.5741 43.9924C60.0771 43.0473 59.6961 43.2143 58.6231 45.2843Z" fill="#04E63D"/>
</svg>
