<svg width="67" height="84" viewBox="0 0 67 84" fill="none" xmlns="http://www.w3.org/2000/svg">
<path fill-rule="evenodd" clip-rule="evenodd" d="M25.9078 0.603455C19.8788 2.15645 13.6458 5.85845 9.51684 10.3385C-4.03116 25.0355 -3.01516 45.2665 11.9318 58.4235C16.3398 62.3035 16.5248 62.6865 16.5248 67.9545C16.5248 73.6465 19.1128 78.7135 22.0208 78.7135C22.7638 78.7135 24.7088 79.8385 26.3428 81.2135C28.4818 83.0145 30.4918 83.7135 33.5248 83.7135C36.5578 83.7135 38.5678 83.0145 40.7068 81.2135C42.3408 79.8385 44.2858 78.7135 45.0288 78.7135C47.9238 78.7135 50.5248 73.6465 50.5248 68.0045C50.5248 62.7075 50.6638 62.4395 55.8698 57.6815C66.8168 47.6765 69.9718 33.1445 64.0588 19.9685C60.7908 12.6875 53.7688 5.59346 46.7578 2.49246C41.6638 0.238455 31.0528 -0.722545 25.9078 0.603455ZM46.0268 12.1625C61.8908 21.4585 62.0648 43.8455 46.3558 54.3755C43.8338 56.0665 41.8918 58.2045 41.7048 59.4965C41.4058 61.5725 40.8818 61.7135 33.4548 61.7135C26.2548 61.7135 25.5248 61.5335 25.5248 59.7605C25.5248 58.6855 24.3128 56.9985 22.8308 56.0105C21.3488 55.0225 18.2138 52.3085 15.8638 49.9805C3.26784 37.5025 8.61384 16.4015 26.0248 9.87345C31.0548 7.98845 40.8088 9.10345 46.0268 12.1625ZM23.1578 21.4635C18.4548 36.0865 21.2688 46.1135 30.0748 46.1135C33.8278 46.1135 33.9878 46.3655 32.5798 50.0695C31.7378 52.2825 31.9578 52.6685 34.5738 53.5805C37.2638 54.5185 37.5678 54.3895 38.1498 52.0705C39.1748 47.9865 37.8678 39.3065 35.5408 34.7445C34.3548 32.4205 33.6188 30.2865 33.9038 30.0015C34.4858 29.4195 40.1858 38.0685 41.0818 40.8925C41.9508 43.6315 43.1108 43.1065 45.0038 39.1165C47.4828 33.8935 46.3308 29.4675 41.1458 24.2815C37.3498 20.4855 29.7638 16.7135 25.9268 16.7135C25.2438 16.7135 23.9978 18.8505 23.1578 21.4635Z" fill="#04E63D"/>
</svg>
