<svg width="38" height="68" viewBox="0 0 38 68" fill="none" xmlns="http://www.w3.org/2000/svg">
<path fill-rule="evenodd" clip-rule="evenodd" d="M9.51298 5.29287C9.51298 9.24366 9.16813 11.2612 8.15263 13.2509C5.5115 18.4262 6.69909 24.4896 11.1121 28.3602C13.358 30.3302 13.594 30.8663 13.594 34.0003C13.594 38.5104 14.2518 39.6017 18.6716 42.4259C23.46 45.4865 24.8088 48.2189 23.3743 51.9536C22.8839 53.2297 19.6612 55.0414 17.8792 55.0427C17.2058 55.0434 13.3519 53.0279 9.31505 50.5639C5.24011 48.0762 1.53451 46.253 0.982886 46.4643C-0.335976 46.9699 -0.325772 51.9379 1.00261 55.6978C2.57246 60.1433 5.71283 63.5702 10.3265 65.8738C23.626 72.5135 39.0313 62.752 37.9457 48.3738C37.441 41.6797 33.3709 35.8045 27.4152 33.1727C25.7991 32.4585 24.4769 31.5737 24.4769 31.2061C24.4769 30.8385 25.5937 29.5576 26.9588 28.3602C31.3718 24.4896 32.5594 18.4262 29.9183 13.2509C28.9028 11.2612 28.5579 9.24366 28.5579 5.29287C28.5579 0.453247 28.4416 0 27.1976 0C25.9869 0 25.8372 0.453247 25.8372 4.12272C25.8372 8.11021 25.7869 8.22776 24.3068 7.69026C23.4654 7.38515 21.093 7.13508 19.0355 7.13508C16.9779 7.13508 14.6055 7.38515 13.7641 7.69026C12.284 8.22776 12.2337 8.11021 12.2337 4.12272C12.2337 0.453247 12.084 0 10.8733 0C9.62929 0 9.51298 0.453247 9.51298 5.29287ZM24.1891 11.3088C29.0776 14.5087 29.6897 21.2483 25.4747 25.46C21.6609 29.2701 16.41 29.2701 12.5962 25.46C8.76275 21.6302 8.78315 16.4039 12.6459 12.5441C13.8845 11.3074 15.5992 10.1515 16.4562 9.97688C18.7375 9.51072 22.4084 10.1434 24.1891 11.3088ZM15.0727 15.1631C11.695 18.7557 14.1858 24.4631 19.1307 24.4631C22.2704 24.4631 24.4769 22.1799 24.4769 18.9317C24.4769 14.1071 18.3682 11.6587 15.0727 15.1631ZM20.6876 17.3763C21.2753 17.9641 21.7562 18.7068 21.7562 19.0269C21.7562 19.7818 19.7911 21.745 19.0355 21.745C18.2798 21.745 16.3147 19.7818 16.3147 19.0269C16.3147 18.2719 18.2798 16.3088 19.0355 16.3088C19.3558 16.3088 20.0992 16.7892 20.6876 17.3763ZM21.7562 32.5985C21.7562 33.56 22.724 34.3551 25.1829 35.4117C35.0645 39.6581 38.1654 51.2937 31.4922 59.0825C28.0111 63.1461 24.4068 64.8001 19.0355 64.8001C12.4643 64.8001 7.41464 61.7191 4.4892 55.9254C3.47233 53.9106 2.99825 50.9648 3.69067 50.9648C3.85527 50.9648 6.53313 52.4931 9.64221 54.3611C13.7811 56.8482 15.9869 57.7581 17.8792 57.7588C21.2637 57.7608 24.2184 56.1775 25.8644 53.4798C28.5695 49.0486 26.9432 44.0975 21.6732 40.7182C17.5724 38.0898 16.3147 36.3923 16.3147 33.4853C16.3147 31.34 16.4147 31.2584 19.0355 31.2584C21.2902 31.2584 21.7562 31.4881 21.7562 32.5985Z" fill="#04E63D"/>
</svg>
