<svg width="50" height="67" viewBox="0 0 50 67" fill="none" xmlns="http://www.w3.org/2000/svg">
<path fill-rule="evenodd" clip-rule="evenodd" d="M20.5537 0.40085L20.1741 0.780404V5.53996V10.2995L20.5537 10.6791C21.0882 11.2135 21.8571 11.2135 22.3916 10.6791L22.7711 10.2995V5.53996V0.780404L22.3916 0.40085C21.8571 -0.133617 21.0882 -0.133617 20.5537 0.40085ZM10.1656 1.69936C9.48169 2.38328 9.5557 2.6113 11.8085 6.75458C12.9209 8.80038 13.976 10.6058 14.1531 10.7665C14.6378 11.2061 15.4105 11.1674 15.899 10.6791C16.583 9.99514 16.509 9.76712 14.2562 5.62384C13.1437 3.57804 12.0887 1.77272 11.9116 1.61197C11.4269 1.17229 10.6541 1.21099 10.1656 1.69936ZM31.0337 1.61197C30.8566 1.77272 29.8015 3.57804 28.6891 5.62384C26.4363 9.76712 26.3623 9.99514 27.0462 10.6791C27.5347 11.1674 28.3075 11.2061 28.7922 10.7665C28.9693 10.6058 30.0244 8.80038 31.1368 6.75458C33.3896 2.6113 33.4636 2.38328 32.7797 1.69936C32.2912 1.21099 31.5184 1.17229 31.0337 1.61197ZM42.9352 6.3127C42.6342 6.40671 42.1288 6.63564 41.8118 6.82133C41.4719 7.02052 36.3433 12.0872 29.3008 19.1813L17.3658 31.2037L16.7483 30.5778C15.9672 29.7862 14.5943 27.043 13.7391 24.5652C13.0199 22.481 12.4437 21.2918 11.5968 20.1431C9.77905 17.6778 6.72924 15.7673 3.9142 15.3305C1.60519 14.9722 -0.0226161 16.1658 0.000237633 18.2004C0.00906749 18.9856 0.0912631 19.2164 1.18136 21.5138C2.60583 24.5156 3.29819 26.1263 3.9716 28.0042C5.04131 30.9872 5.76068 34.5324 5.76068 36.821C5.76068 37.7138 5.80704 37.9616 6.02597 38.24C6.56576 38.9262 7.78298 38.8006 8.19006 38.0168C8.65207 37.1268 8.31887 33.5697 7.4529 30.1467C6.81585 27.6289 6.08232 25.7076 4.31817 21.936C3.14393 19.4253 2.64426 18.2726 2.64426 18.0745C2.64426 17.6518 4.65111 18.1415 6.1653 18.9336C8.75387 20.2876 10.1038 22.1258 11.5393 26.2512C12.66 29.4719 13.6596 31.2759 15.1312 32.7337C16.0183 33.6126 17.0132 34.1706 17.7 34.1749C18.1404 34.1775 18.7288 33.6075 30.6271 21.6503C37.4833 14.7603 43.2381 9.05229 43.4157 8.96594C43.5934 8.87972 44.0608 8.80701 44.4546 8.80441C46.4287 8.79181 47.6608 10.7631 46.7798 12.5246C46.6002 12.8838 44.0727 15.52 39.408 20.2131C29.3724 30.3101 29.7831 29.871 29.7831 30.5005C29.7831 31.1614 30.1671 31.6678 30.7513 31.7774C31.4191 31.9027 31.7131 31.7487 32.7736 30.718C33.8578 29.6643 34.4155 29.3676 35.3124 29.3676C36.5517 29.3676 37.4536 30.2572 37.5488 31.5735C37.6304 32.7001 37.4075 33.1848 36.2555 34.3879C35.3184 35.3664 35.2368 35.4947 35.2368 35.9905C35.2368 36.7478 35.7765 37.2885 36.5321 37.2885C37.0183 37.2885 37.1585 37.2031 38.0352 36.3733C38.5671 35.8699 39.2507 35.3453 39.5542 35.2075C40.169 34.9285 41.0036 34.8794 41.5586 35.0897C42.7044 35.5238 43.3376 37.075 42.8477 38.2476C42.7484 38.4849 42.1933 39.1822 41.6141 39.7973C40.7077 40.7595 40.5607 40.9793 40.5607 41.3723C40.5607 41.9761 41.1092 42.5955 41.7294 42.6924C42.0849 42.7479 42.2828 42.6907 42.6383 42.4292C44.2691 41.2299 45.555 41.1512 46.5631 42.1888C47.1383 42.7808 47.313 43.2106 47.313 44.0344C47.313 44.4703 47.2045 44.8613 46.9559 45.3221C46.4923 46.1811 31.4699 61.2973 30.2698 62.1122C28.5681 63.2679 26.7081 63.8201 24.5241 63.8182C22.7958 63.8168 21.7294 63.5738 20.1092 62.8124C18.4963 62.0544 17.4857 61.1972 13.8056 57.4658C9.83281 53.4374 8.99955 52.2403 8.34407 49.6197C8.04268 48.4149 7.85544 48.12 7.2215 47.8517C6.86117 47.6992 6.73456 47.7002 6.35514 47.8588C5.36736 48.2714 5.29595 49.0277 6.03545 51.2475C6.94401 53.975 7.82986 55.1894 11.9863 59.4052C15.9088 63.3837 16.8799 64.2007 18.8107 65.1461C21.0235 66.2295 21.9911 66.4421 24.654 66.4298C26.663 66.4204 26.9665 66.3879 28.0301 66.0677C29.5873 65.599 31.3426 64.7185 32.3937 63.8788C32.8655 63.502 36.8113 59.6001 41.1622 55.2079C48.4145 47.8868 49.103 47.1543 49.4349 46.4082C50.1879 44.7149 50.1884 43.1254 49.4364 41.5873C48.8053 40.2964 47.3475 39.1646 45.988 38.9101C45.5271 38.8239 45.5108 38.8028 45.5984 38.4113C45.6487 38.1865 45.6857 37.5547 45.6805 37.0072C45.6727 36.1606 45.6091 35.8855 45.2553 35.167C44.429 33.4883 42.5141 32.2415 40.7411 32.2274C40.3411 32.2243 40.3363 32.2163 40.2648 31.4268C40.1125 29.7478 38.6406 27.703 37.1364 27.0809L36.5453 26.8364L42.6829 20.6681C48.6041 14.7172 48.8362 14.4654 49.2668 13.5258C49.676 12.6333 49.7133 12.4488 49.7129 11.3183C49.7126 10.2433 49.6664 9.98579 49.3533 9.31472C48.6556 7.81936 47.6412 6.88833 46.1701 6.39269C45.2477 6.08196 43.7888 6.04586 42.9352 6.3127ZM6.02077 42.0617C5.13922 42.5033 4.98794 43.4238 5.68277 44.1187C6.31333 44.7492 7.19164 44.6836 7.65832 43.9714C8.39743 42.8435 7.21423 41.4637 6.02077 42.0617Z" fill="#04E63D"/>
</svg>
