<svg width="97" height="109" viewBox="0 0 97 109" fill="none" xmlns="http://www.w3.org/2000/svg">
<circle cx="58" cy="39" r="39" fill="#04E63D" fill-opacity="0.85"/>
<path fill-rule="evenodd" clip-rule="evenodd" d="M19.4383 11.148C11.3013 15.573 3.12427 24.437 4.31527 27.541C5.27927 30.053 6.89527 29.186 12.7823 23C15.9223 19.7 19.0293 17 19.6863 17C20.5373 17 20.9603 20.802 21.1593 30.25L21.4383 43.5H33.9383H46.4383L46.7173 30.25C46.8793 22.567 47.4033 17 47.9643 17C50.1473 17 57.0553 24.539 59.5553 29.65C66.5203 43.886 60.2133 61.282 45.7633 67.689C43.7423 68.585 41.8353 70.26 41.5273 71.409C41.2183 72.559 40.9593 80.138 40.9523 88.25L40.9383 103H33.9383H26.9383L26.9243 88.25C26.9173 80.138 26.6583 72.559 26.3493 71.409C26.0263 70.206 24.0673 68.559 21.7343 67.53C13.2913 63.805 6.92127 54.879 5.49127 44.773C4.72627 39.362 3.44227 38.067 1.13427 40.375C-0.254728 41.765 -0.318726 42.743 0.673274 47.471C2.82227 57.72 8.38027 65.83 16.5223 70.602L20.9383 73.19V88.051V102.912L13.6993 103.206C7.53827 103.456 6.40627 103.78 6.10027 105.38C5.90327 106.414 6.34827 107.645 7.09027 108.115C8.85027 109.23 59.0263 109.23 60.7863 108.115C61.5283 107.645 61.9733 106.414 61.7763 105.38C61.4703 103.78 60.3383 103.456 54.1773 103.206L46.9383 102.912V87.982V73.051L49.9253 71.507C65.4913 63.457 72.1393 43.177 64.4003 27.34C60.1673 18.677 50.0063 10 44.0943 10C41.4363 10 40.9683 12.496 40.9523 26.75L40.9383 39H33.9383H26.9383L26.9243 26.75C26.9173 20.012 26.6393 13.488 26.3083 12.25C25.6453 9.776 22.8003 9.32 19.4383 11.148ZM69.6393 103.632C69.2543 104.018 68.9383 105.19 68.9383 106.236C68.9383 107.638 69.5313 108.055 71.1883 107.82C72.6593 107.611 73.4383 106.812 73.4383 105.514C73.4383 103.53 70.9663 102.306 69.6393 103.632Z" fill="#050A30" fill-opacity="0.84"/>
</svg>
