<svg width="123" height="88" viewBox="0 0 123 88" fill="none" xmlns="http://www.w3.org/2000/svg">
<circle cx="84" cy="39" r="39" fill="#04E63D" fill-opacity="0.85"/>
<path fill-rule="evenodd" clip-rule="evenodd" d="M22.4729 10.8425C20.2189 12.2175 18.2899 15.2905 14.7859 23.0895L10.1079 33.5005L5.48287 33.8075C1.39187 34.0795 0.893875 34.3635 1.16988 36.2705C1.56688 39.0155 3.84287 39.4845 24.3979 41.0635C48.9809 42.9505 94.8779 40.9915 98.6089 37.8955C100.974 35.9325 98.9649 34.0005 94.5569 34.0005H90.3469L85.1719 23.1185C78.1729 8.39948 79.6969 8.99948 49.3309 9.00448C27.9609 9.00748 25.1689 9.19848 22.4729 10.8425ZM72.4819 14.8685C75.0919 15.4185 76.0849 16.7355 80.1199 25.0005L84.7579 34.5005L80.6199 35.3745C75.2369 36.5125 24.7179 36.5125 19.3739 35.3745L15.2649 34.5005L19.8739 25.0005C23.8879 16.7245 24.8689 15.4195 27.4819 14.8685C29.1319 14.5215 39.2569 14.2375 49.9819 14.2375C60.7069 14.2375 70.8319 14.5215 72.4819 14.8685ZM3.99088 47.8375C0.708875 51.1195 -0.488125 56.8245 0.176875 66.0165C0.490875 70.3585 1.20088 72.6045 2.79488 74.3015C4.39688 76.0065 4.98187 77.8735 4.98187 81.2795C4.98187 87.0795 6.42088 88.0005 15.4819 88.0005C24.4679 88.0005 25.9819 87.0585 25.9819 81.4655V77.0005H49.9819H73.9819V81.4655C73.9819 87.0585 75.4959 88.0005 84.4819 88.0005C93.5429 88.0005 94.9819 87.0795 94.9819 81.2795C94.9819 77.8735 95.5669 76.0065 97.1689 74.3015C98.7629 72.6045 99.4729 70.3585 99.7869 66.0165C100.796 52.0755 97.1579 45.0005 88.9819 45.0005C79.8989 45.0005 75.6339 55.2225 81.8259 62.1515C84.2499 64.8655 85.3549 65.3335 89.3259 65.3335C93.7719 65.3335 93.9819 65.4615 93.9819 68.1675V71.0005H49.9819H5.98187V68.1675C5.98187 65.4615 6.19188 65.3335 10.6379 65.3335C14.6089 65.3335 15.7139 64.8655 18.1379 62.1515C24.3299 55.2225 20.0649 45.0005 10.9819 45.0005C7.75288 45.0005 6.19688 45.6325 3.99088 47.8375ZM14.4109 51.5715C16.2759 53.4365 16.4649 57.1175 14.7819 58.8005C13.2349 60.3475 8.72887 60.3475 7.18187 58.8005C4.35387 55.9725 6.93288 50.0005 10.9819 50.0005C12.0029 50.0005 13.5459 50.7075 14.4109 51.5715ZM92.4109 51.5715C94.2759 53.4365 94.4649 57.1175 92.7819 58.8005C91.2349 60.3475 86.7289 60.3475 85.1819 58.8005C82.3539 55.9725 84.9329 50.0005 88.9819 50.0005C90.0029 50.0005 91.5459 50.7075 92.4109 51.5715ZM30.3259 60.5465C29.9909 61.4195 30.1459 62.5645 30.6719 63.0905C31.2319 63.6505 39.4629 63.9335 50.5549 63.7735C68.7239 63.5115 69.4819 63.4205 69.4819 61.5005C69.4819 59.5795 68.7249 59.4895 50.2089 59.2285C33.3589 58.9915 30.8589 59.1565 30.3259 60.5465ZM20.9819 79.5005C20.9819 81.8645 20.6819 82.0005 15.4819 82.0005C10.2819 82.0005 9.98188 81.8645 9.98188 79.5005C9.98188 77.1365 10.2819 77.0005 15.4819 77.0005C20.6819 77.0005 20.9819 77.1365 20.9819 79.5005ZM89.9819 79.5005C89.9819 81.8645 89.6819 82.0005 84.4819 82.0005C79.2819 82.0005 78.9819 81.8645 78.9819 79.5005C78.9819 77.1365 79.2819 77.0005 84.4819 77.0005C89.6819 77.0005 89.9819 77.1365 89.9819 79.5005Z" fill="#050A30" fill-opacity="0.84"/>
</svg>
