<svg width="103" height="109" viewBox="0 0 103 109" fill="none" xmlns="http://www.w3.org/2000/svg">
<circle cx="64" cy="39" r="39" fill="#04E63D" fill-opacity="0.85"/>
<path fill-rule="evenodd" clip-rule="evenodd" d="M24.737 11.1085C5.37997 18.3255 -4.15303 37.0935 1.71997 56.4285C4.42097 65.3195 13.896 79.7075 21.98 87.1915C34.522 98.8035 38.095 98.6495 50.877 85.9535C65.524 71.4035 72.462 57.2395 71.715 43.4095C71.014 30.4335 64.273 19.9285 52.661 13.7155C47.104 10.7425 45.372 10.3275 37.393 10.0535C31.534 9.85253 27.117 10.2205 24.737 11.1085ZM46.25 16.3775C52.696 18.5735 61.03 26.3885 63.98 33.0015C65.76 36.9915 66.338 40.1065 66.362 45.8235C66.39 52.5715 65.993 54.1855 62.632 60.9855C55.508 75.3995 42.248 89.7715 36.074 89.7715C29.869 89.7715 16.128 75.0985 9.19996 61.0755C5.69796 53.9865 5.40097 52.7245 5.48997 45.3205C5.59297 36.8315 6.84496 32.8295 11.244 26.9355C14.373 22.7415 20.562 18.1515 25.555 16.3205C30.779 14.4035 40.538 14.4315 46.25 16.3775ZM19.727 24.2385C16.177 26.6505 11.893 32.3555 11.893 34.6705C11.893 35.3105 12.542 36.0835 13.335 36.3875C14.98 37.0185 26.893 25.4005 26.893 23.1655C26.893 21.0315 23.754 21.5015 19.727 24.2385ZM32.393 31.4745C31.293 31.7665 29.149 32.8875 27.628 33.9675C16.815 41.6395 22.622 59.7715 35.893 59.7715C49.192 59.7715 54.964 41.6545 44.124 33.9365C41.095 31.7795 35.593 30.6245 32.393 31.4745ZM40.98 38.0535C45.361 41.4165 46.032 47.3355 42.499 51.4435C39.087 55.4095 32.699 55.4095 29.287 51.4435C25.754 47.3355 26.425 41.4165 30.806 38.0535C32.852 36.4825 38.934 36.4825 40.98 38.0535ZM9.21197 44.3815C8.87197 45.2675 8.99897 47.6305 9.49397 49.6315C10.605 54.1305 14.206 54.8785 14.691 50.7125C15.346 45.0925 10.908 39.9635 9.21197 44.3815ZM7.55997 103.439C6.32397 104.675 6.88097 107.553 8.47497 108.165C11.26 109.234 57.886 108.846 59.959 107.737C62.298 106.485 62.482 104.212 60.311 103.379C58.149 102.549 8.39297 102.606 7.55997 103.439ZM73.02 104.119C71.207 106.304 74.241 108.775 78.714 108.757C83.284 108.738 85.196 107.592 84.732 105.152C84.447 103.656 83.337 103.211 79.295 102.975C75.797 102.771 73.843 103.127 73.02 104.119Z" fill="#050A30" fill-opacity="0.84"/>
</svg>
