<svg width="57" height="63" viewBox="0 0 57 63" fill="none" xmlns="http://www.w3.org/2000/svg">
<path fill-rule="evenodd" clip-rule="evenodd" d="M12.282 2.69336C16.2276 7.55947 16.9859 8.90573 17.4724 11.9166C18.1992 16.4146 16.4069 19.5689 10.3781 24.3961C0.577943 32.244 -2.42529 41.706 1.98292 50.8447C5.55443 58.2491 14.541 63.47 22.6347 62.8417L25.9411 62.5855L23.4929 58.938C20.5277 54.5179 19.98 49.1055 22.643 50.5363C25.1531 51.8842 30.3014 51.5369 33.0882 49.8308C34.4874 48.9745 36.3112 46.8382 37.1404 45.0841C38.4702 42.2714 38.7246 42.0881 39.288 43.5355C41.2191 48.497 39.4515 55.0725 35.0491 59.3061C31.95 62.2862 31.9789 63 35.1977 63C45.3911 63 54.2554 53.9906 56.5937 41.2542C58.3547 31.6646 54.257 19.8251 46.8993 13.2471C39.9719 7.05296 26.8604 1.93981 14.1264 0.466716L10.0981 0L12.282 2.69336ZM35.4034 12.1802C41.1993 15.1256 46.9835 20.8936 49.1971 25.933C52.6679 33.8373 51.4892 45.2109 46.5375 51.604C45.5521 52.8748 45.4076 52.4098 45.3803 47.8719C45.3448 42.0243 42.9231 36.5937 39.079 33.7412C37.1487 32.3087 29.3011 29.6808 28.6536 30.2495C28.5214 30.3647 29.3581 32.2407 30.512 34.4184C32.9949 39.1063 33.1419 41.4316 31.1141 43.9451C28.7378 46.8896 25.334 46.3955 22.2027 42.6527L19.5703 39.5059L17.6855 43.1708C16.4168 45.637 15.78 48.3627 15.7387 51.5095L15.6767 56.185L13.6118 55.1114C9.34564 52.8947 5.32728 46.5489 5.37023 42.0948C5.40823 38.1613 8.48415 33.3606 13.7324 29.0466C20.8035 23.2347 23.839 17.7609 23.255 11.8751L22.8305 7.58683L27.0999 8.85848C29.449 9.55814 33.1848 11.0528 35.4034 12.1802Z" fill="#04E63D"/>
</svg>
