<svg width="90" height="57" viewBox="0 0 90 57" fill="none" xmlns="http://www.w3.org/2000/svg">
<path fill-rule="evenodd" clip-rule="evenodd" d="M28.6173 1.12392C27.2423 1.85092 24.3173 2.27892 22.1173 2.07292C18.9283 1.77492 17.2053 2.31792 13.6173 4.75392C5.83327 10.0399 -0.983729 16.5749 0.117271 17.6969C0.792271 18.3859 3.06727 17.0799 7.11727 13.6789C15.2193 6.87492 18.6063 4.84492 21.8673 4.84092L24.6173 4.83692V18.3019C24.6173 30.7429 24.4653 31.8479 22.6173 32.8369C20.8643 33.7749 19.7323 36.8369 21.1393 36.8369C21.4263 36.8369 27.4193 34.1369 34.4563 30.8369C48.0903 24.4439 49.6923 24.0179 51.5713 26.2819C54.2503 29.5099 52.2493 32.1989 40.1173 41.6739C33.5173 46.8289 26.9923 51.5309 25.6173 52.1239C24.2423 52.7169 18.2033 53.4569 12.1973 53.7689C4.77327 54.1549 1.14427 54.7369 0.863271 55.5869C0.228271 57.5099 20.5923 57.2919 25.2983 55.3259C28.2803 54.0799 29.5083 54.0299 32.3063 55.0409C34.9963 56.0139 36.1103 56.0099 37.6943 55.0209C39.3273 54.0009 40.0873 54.0529 41.8763 55.3059C44.5203 57.1579 48.7573 57.2969 50.4673 55.5869C51.1543 54.8999 53.6653 54.3249 56.0463 54.3099C61.2803 54.2769 63.2463 52.8059 64.7443 47.8079L65.8803 44.0159L75.6463 43.6769C90.0433 43.1759 89.6173 43.8419 89.6173 21.8369C89.6173 5.12792 89.5003 4.04092 87.5143 2.24192C85.5713 0.481923 83.3413 0.316922 58.2643 0.0689222C37.2503 -0.139078 30.5523 0.0989226 28.6173 1.12392ZM86.4373 6.58692L86.7563 8.83692H57.1873C29.1803 8.83692 27.6173 8.73992 27.6173 7.00392C27.6173 5.99492 27.9243 4.86392 28.2993 4.48892C28.6743 4.11392 41.8363 3.92592 57.5493 4.07192L86.1173 4.33692L86.4373 6.58692ZM86.3983 27.0869L86.1173 39.3369L67.1173 39.5699L48.1173 39.8029L50.9293 37.3139C55.2193 33.5189 56.6333 30.1809 55.4233 26.7099C53.2683 20.5289 49.3073 20.4349 36.9833 26.2739L27.6173 30.7099V22.7739V14.8369H57.1483H86.6793L86.3983 27.0869ZM31.8463 18.0249C32.4643 19.8789 34.6173 20.1859 34.6173 18.4199C34.6173 17.5489 33.9053 16.8369 33.0343 16.8369C32.1633 16.8369 31.6283 17.3709 31.8463 18.0249ZM36.8463 18.0249C37.4643 19.8789 39.6173 20.1859 39.6173 18.4199C39.6173 17.5489 38.9053 16.8369 38.0343 16.8369C37.1633 16.8369 36.6283 17.3709 36.8463 18.0249ZM41.8463 18.0249C42.4643 19.8789 44.6173 20.1859 44.6173 18.4199C44.6173 17.5489 43.9053 16.8369 43.0343 16.8369C42.1633 16.8369 41.6283 17.3709 41.8463 18.0249ZM46.8463 18.0249C47.4643 19.8789 49.6173 20.1859 49.6173 18.4199C49.6173 17.5489 48.9053 16.8369 48.0343 16.8369C47.1633 16.8369 46.6283 17.3709 46.8463 18.0249ZM43.1603 28.7679C42.4203 29.9649 44.3013 31.1499 45.6333 30.3269C46.7523 29.6359 46.0173 27.8369 44.6173 27.8369C44.1323 27.8369 43.4763 28.2559 43.1603 28.7679ZM45.8093 32.9119C46.0063 33.5029 46.5943 33.9869 47.1173 33.9869C47.6403 33.9869 48.2283 33.5029 48.4253 32.9119C48.6223 32.3209 48.0343 31.8369 47.1173 31.8369C46.2003 31.8369 45.6123 32.3209 45.8093 32.9119ZM51.9793 45.3369C51.6143 46.2869 51.9923 46.8369 53.0103 46.8369C53.8943 46.8369 54.6173 46.1619 54.6173 45.3369C54.6173 44.2499 55.7363 43.8369 58.6843 43.8369C62.4353 43.8369 62.6993 44.0119 62.0803 46.0869C61.7103 47.3239 60.5423 49.2369 59.4833 50.3369C57.6393 52.2539 57.4353 52.2659 54.5823 50.6299C51.6673 48.9589 51.5733 48.9739 49.9973 51.3799C47.9253 54.5419 45.5503 54.4959 42.7183 51.2379L40.4573 48.6379L38.0883 50.8639C36.5843 52.2769 35.0903 52.8489 33.9973 52.4289C31.1973 51.3549 38.3383 45.7879 41.5313 46.5559C43.4823 47.0249 43.8243 46.8189 43.3133 45.4869C42.7773 44.0909 43.4403 43.8369 47.6173 43.8369C51.5953 43.8369 52.4423 44.1279 51.9793 45.3369Z" fill="#04E63D"/>
</svg>
