<svg width="76" height="53" viewBox="0 0 76 53" fill="none" xmlns="http://www.w3.org/2000/svg">
<path fill-rule="evenodd" clip-rule="evenodd" d="M18.6368 1.45367C16.7424 2.71999 15.3968 4.83456 13.4792 9.55589L10.8856 15.9447H7.0424C2.528 15.9447 0 17.9111 0 21.4224C0 24.3393 1.3248 25.6113 4.36 25.6105L6.8 25.6089L6.5416 37.7662C6.2224 52.7382 6.3576 53 14.4 53C20.0072 53 22.4 51.7159 22.4 48.7072C22.4 47.5078 23.7392 47.3611 34.688 47.3611C48.6536 47.3611 54.4 47.9436 54.4 49.3597C54.4 51.6966 57.3144 53 62.5392 53C69.552 53 70.4 52.0269 70.4 43.9827C70.4 39.3129 70.0592 37.4682 68.924 35.9908C68.112 34.9339 67.2136 32.8532 66.9272 31.367C66.4744 29.018 66.5896 28.7352 67.8032 29.2081C72.8888 31.1889 76 29.9347 76 25.9037C76 22.7556 74.7112 21.0785 71.2072 19.6663C67.0208 17.9795 65.8752 18.0214 65.3928 19.8766C65.0848 21.0632 65.6752 21.6166 68.1112 22.4262C71.324 23.4935 73.4112 25.2641 72.5176 26.1639C71.5832 27.1048 65.708 24.6044 63.568 22.3553C61.7712 20.4671 61.5936 19.8782 62.376 18.4065C64.0224 15.3099 63.0824 11.7567 60.0816 9.72747C58.5864 8.71651 56.3872 7.88921 55.1944 7.88921C54.0008 7.88921 50.904 6.80574 48.312 5.48142C42.3392 2.43 35.7344 0.739148 27.6 0.180096C21.9736 -0.206568 20.8904 -0.0519028 18.6368 1.45367ZM36.0616 5.08267C42.228 6.38927 48.2448 8.74873 49.144 10.2148C49.4464 10.7078 50.4832 11.1138 51.4472 11.1162C52.4112 11.1187 54.5504 11.4981 56.2 11.9597C58.7304 12.6669 59.2 13.1422 59.2 14.9974C59.2 16.2073 58.612 18.0424 57.8936 19.0751C56.624 20.9004 56.6832 21.035 59.9928 23.906C62.9616 26.4805 63.2408 26.9912 62.1688 27.887C60.5528 29.2371 56.0656 27.4367 53.4472 24.3869C49.3112 19.5697 44.2288 18.6924 30.1392 20.3648C20.3056 21.532 13.6 21.3395 13.6 19.8903C13.6 18.4185 18.604 6.59952 19.7896 5.27117C21.4008 3.46593 28.0656 3.38941 36.0616 5.08267ZM9.6 19.5036C9.6 21.1759 8.2744 22.3891 6.448 22.3891C3.7424 22.3891 2.9424 21.6577 4.1048 20.248C4.896 19.2877 9.6 18.6505 9.6 19.5036ZM47.5616 24.3345C49.052 24.962 50.672 26.2292 51.1624 27.1515C52.3184 29.3265 57.6632 32.0557 60.768 32.0557C62.9152 32.0557 63.2 32.328 63.2 34.3781C63.2 35.9674 63.6712 36.8254 64.6912 37.0936C66.1248 37.4714 67.8728 42.9242 66.8808 43.9239C66.648 44.1575 53.7552 44.0302 38.2288 43.6395L10 42.9306L9.7704 36.4548C9.616 32.096 9.9272 29.0478 10.7224 27.1314L11.904 24.2838L18.552 24.5883C22.208 24.7558 27.36 24.5552 30 24.142C37.3456 22.9925 44.56 23.0722 47.5616 24.3345ZM12.524 28.6958C11.1528 30.2215 10.7872 33.4251 11.812 34.9363C13.3608 37.2201 18.9536 40.1112 21.8224 40.1112C27.9808 40.1112 31.0472 33.4396 26.836 29.2C25.1312 27.4826 24.1464 27.2224 19.36 27.2224C15.036 27.2224 13.5624 27.5398 12.524 28.6958ZM24.3432 31.7101C25.0344 32.4069 25.6 33.2874 25.6 33.6668C25.6 34.6061 23.2696 36.889 22.3112 36.889C21.1408 36.889 15.3792 33.8054 14.8072 32.8725C13.8304 31.2824 15.3424 30.4446 19.1904 30.4446C21.6648 30.4446 23.544 30.9062 24.3432 31.7101ZM50.4 34.4723C48.4328 36.4532 48.3824 37.825 50.2 39.9879C52.0024 42.1323 56 43.1948 56 41.5298C56 40.8853 55.1896 39.9638 54.2 39.4829C52.656 38.7337 52.6112 38.6016 53.8856 38.5549C54.9256 38.5162 55.22 38.1038 54.8672 37.1782C54.448 36.077 54.5656 36.0246 55.5712 36.8648C56.236 37.4207 57.3432 37.6575 58.0312 37.3909C58.7512 37.1129 59.0752 37.2459 58.7944 37.7034C58.5256 38.1416 58.756 38.5001 59.3056 38.5001C59.8712 38.5001 59.6656 38.9713 58.832 39.5852C57.7704 40.3674 57.6248 40.837 58.3136 41.2664C59.5704 42.0477 63.4296 39.4805 62.8504 38.2472C62.6032 37.7219 62.1968 36.7263 61.9472 36.0343C61.528 34.8759 55.9672 32.8613 53.1888 32.8613C52.5352 32.8613 51.28 33.5862 50.4 34.4723ZM18.9456 47.6423C20.152 48.8571 17.6064 49.8616 13.9192 49.6247C10.8448 49.4282 9.9536 49.0528 9.728 47.859C9.4688 46.4863 9.8664 46.3784 13.92 46.7167C16.3832 46.9221 18.6448 47.3386 18.9456 47.6423ZM66.8 48.9722C66.528 49.4153 64.548 49.7778 62.4 49.7778C60.252 49.7778 58.272 49.4153 58 48.9722C57.6912 48.4688 59.3408 48.1667 62.4 48.1667C65.4592 48.1667 67.1088 48.4688 66.8 48.9722Z" fill="#04E63D"/>
</svg>
