<svg width="67" height="62" viewBox="0 0 67 62" fill="none" xmlns="http://www.w3.org/2000/svg">
<path fill-rule="evenodd" clip-rule="evenodd" d="M9.0416 9.06645L0 18.1337L16.5445 40.0665C25.6431 52.1302 33.362 62 33.6974 62C34.0321 62 41.3904 52.5859 50.0487 41.0798C58.7069 29.5736 66.2531 19.7936 66.8183 19.3455C67.6276 18.7035 65.8827 16.5734 58.5578 9.26577L49.2713 0H33.6776H18.084L9.0416 9.06645ZM38.6446 10.384C41.573 14.8252 44.0831 18.756 44.2222 19.1188C44.3622 19.4817 42.2226 19.7791 39.4683 19.7791C35.5244 19.7791 34.4611 20.0218 34.4611 20.9202C34.4611 22.4539 45.046 22.4539 54.9981 20.9202C58.9724 20.3079 62.4637 19.8004 62.7573 19.7928C63.0501 19.7852 57.6048 27.3127 50.6564 36.5214C43.7073 45.7294 37.9143 53.1549 37.7828 53.0233C37.6504 52.8909 38.6309 49.4783 39.9612 45.4395C41.2915 41.4 42.1328 37.8481 41.8308 37.5461C40.8443 36.5602 40.0015 38.2871 37.0449 47.3558C34.0602 56.5098 32.9292 57.8905 30.6579 55.1534C29.8821 54.2184 29.9346 54.0123 30.9455 54.0123C31.6239 54.0123 32.1792 53.6304 32.1792 53.1625C32.1792 52.6954 31.5182 52.4862 30.7104 52.6977C29.5223 53.0081 26.8365 49.8952 16.676 36.4301C9.76496 27.2724 4.3508 19.7852 4.64364 19.7928C5.97322 19.8271 19.4356 21.9997 19.6075 22.2082C19.714 22.3367 20.9812 26.0149 22.4249 30.3823C23.8678 34.7489 25.4545 38.4575 25.9519 38.6233C27.3583 39.0919 27.0564 37.413 24.2169 28.9802L21.5791 21.1454L24.5972 16.7004C26.2569 14.2554 27.6154 11.8941 27.6154 11.4529C27.6154 9.64157 25.5724 10.8451 23.8123 13.6933C21.519 17.4041 20.7698 17.5258 20.7698 14.1854C20.7698 12.7819 20.5499 9.52974 20.2814 6.95845L19.7923 2.28221L26.5566 2.2959L33.3201 2.30883L38.6446 10.384ZM46.9719 9.31902C46.4638 16.0196 46.209 17.3897 45.602 16.6731C45.4545 16.4988 43.2213 13.1889 40.6389 9.31902L35.9428 2.28221H41.7243H47.5059L46.9719 9.31902ZM18.7191 15.271L19.1108 19.5114L12.5245 18.5209C8.90165 17.9754 5.4309 17.522 4.8125 17.5137C4.19335 17.5045 6.76048 14.4068 10.5172 10.6305L17.3469 3.76412L17.8375 7.3974C18.1068 9.39585 18.5038 12.9386 18.7191 15.271ZM30.6579 4.56442C30.6579 4.98282 31.0002 5.32515 31.4186 5.32515C31.8369 5.32515 32.1792 4.98282 32.1792 4.56442C32.1792 4.14601 31.8369 3.80368 31.4186 3.80368C31.0002 3.80368 30.6579 4.14601 30.6579 4.56442ZM62.8067 17.29C62.4865 17.3904 59.0424 17.9382 55.154 18.5072L48.0832 19.5426L48.4529 17.5692C48.656 16.4836 49.0469 12.8968 49.3223 9.59897L49.822 3.60285L56.6053 10.3559C60.3362 14.0698 63.1269 17.1904 62.8067 17.29ZM28.1433 7.33274C27.5356 7.94056 28.2224 9.12883 29.1816 9.12883C29.5756 9.12883 29.8973 8.61534 29.8973 7.98773C29.8973 6.81163 28.9998 6.47615 28.1433 7.33274ZM23.4723 20.4752C23.2273 20.8716 23.3513 21.3957 23.7476 21.6407C24.1439 21.8856 24.668 21.7616 24.9129 21.3653C25.1578 20.9689 25.0338 20.4448 24.6376 20.1998C24.2413 19.9549 23.7172 20.0789 23.4723 20.4752ZM27.2754 20.4752C27.0305 20.8716 27.1545 21.3957 27.5508 21.6407C27.9471 21.8856 28.4711 21.7616 28.7161 21.3653C28.961 20.9689 28.837 20.4448 28.4407 20.1998C28.0444 19.9549 27.5203 20.0789 27.2754 20.4752ZM31.0786 20.4752C30.8336 20.8716 30.9576 21.3957 31.3539 21.6407C31.7502 21.8856 32.2743 21.7616 32.5192 21.3653C32.7641 20.9689 32.6401 20.4448 32.2439 20.1998C31.8476 19.9549 31.3235 20.0789 31.0786 20.4752ZM45.1099 24.3436C45.1099 24.762 45.4522 25.1043 45.8705 25.1043C46.2889 25.1043 46.6312 24.762 46.6312 24.3436C46.6312 23.9252 46.2889 23.5828 45.8705 23.5828C45.4522 23.5828 45.1099 23.9252 45.1099 24.3436ZM44.0093 27.3218C43.7643 27.7182 43.8883 28.2423 44.2846 28.4873C44.6809 28.7322 45.205 28.6082 45.4499 28.2119C45.6948 27.8156 45.5708 27.2914 45.1746 27.0465C44.7783 26.8015 44.2542 26.9255 44.0093 27.3218ZM42.828 31.1902C42.828 31.6086 43.1703 31.9509 43.5886 31.9509C44.007 31.9509 44.3493 31.6086 44.3493 31.1902C44.3493 30.7718 44.007 30.4294 43.5886 30.4294C43.1703 30.4294 42.828 30.7718 42.828 31.1902ZM41.7274 34.1685C41.4825 34.5648 41.6064 35.089 42.0027 35.3339C42.399 35.5789 42.9231 35.4549 43.168 35.0585C43.4129 34.6622 43.289 34.138 42.8927 33.8931C42.4964 33.6481 41.9723 33.7721 41.7274 34.1685ZM26.0942 41.8405C26.0942 42.2589 26.6076 42.6012 27.2351 42.6012C27.8626 42.6012 28.376 42.2589 28.376 41.8405C28.376 41.4221 27.8626 41.0798 27.2351 41.0798C26.6076 41.0798 26.0942 41.4221 26.0942 41.8405ZM27.6154 45.6442C27.6154 46.0626 28.1288 46.4049 28.7564 46.4049C29.3839 46.4049 29.8973 46.0626 29.8973 45.6442C29.8973 45.2258 29.3839 44.8834 28.7564 44.8834C28.1288 44.8834 27.6154 45.2258 27.6154 45.6442ZM29.1367 49.4479C29.1367 49.8663 29.479 50.2086 29.8973 50.2086C30.3157 50.2086 30.6579 49.8663 30.6579 49.4479C30.6579 49.0294 30.3157 48.6871 29.8973 48.6871C29.479 48.6871 29.1367 49.0294 29.1367 49.4479Z" fill="#04E63D"/>
</svg>
