<svg width="85" height="60" viewBox="0 0 85 60" fill="none" xmlns="http://www.w3.org/2000/svg">
<path fill-rule="evenodd" clip-rule="evenodd" d="M29.6615 0.543809C20.8161 2.52571 17.6862 5.15765 14.6014 13.2107L12.2409 19.3728H7.89172C2.79349 19.3728 0 21.4986 0 25.3785C0 28.5766 1.46625 29.9712 4.82552 29.9703L7.52604 29.9685L7.24005 43.2978C6.88677 59.713 7.03641 60 15.9375 60C22.3745 60 24.7917 58.5948 24.7917 54.8518C24.7917 52.9476 24.9165 52.9344 42.5 52.9344H60.2083V55.0055C60.2083 58.5604 62.8053 60 69.2166 60C77.9415 60 78.1123 59.6662 77.7599 43.2978L77.474 29.9685L80.1745 29.9703C83.5338 29.9712 85 28.5766 85 25.3785C85 21.5057 82.2056 19.3728 77.1304 19.3728H72.8034L69.9683 12.3566C66.7923 4.4979 65.4048 3.22962 57.8319 1.26185C53.0435 0.0174213 34.1585 -0.463923 29.6615 0.543809ZM59.1839 5.97726C63.611 7.61648 64.0723 8.25945 67.6742 17.8024C69.0616 21.481 69.5353 23.908 69.0262 24.7311C67.8814 26.5779 17.1443 26.6194 16.0013 24.7744C15.1468 23.3957 15.6728 21.2549 18.739 13.632C21.2022 7.50785 24.2489 5.46236 32.6568 4.28946C39.9314 3.27467 54.3655 4.1932 59.1839 5.97726ZM10.625 23.2747C10.625 25.1083 9.15787 26.4384 7.13646 26.4384C4.14198 26.4384 3.25656 25.6364 4.54307 24.0908C5.41875 23.038 10.625 22.3394 10.625 23.2747ZM80.4569 24.0908C80.9988 24.7426 81.1812 25.5375 80.8607 25.8572C80.2294 26.4869 75.2604 26.6751 75.2604 26.0692C75.2604 25.8661 75.0187 25.0712 74.723 24.3028C74.3068 23.2209 74.7823 22.9056 76.8285 22.9056C78.2815 22.9056 79.9142 23.439 80.4569 24.0908ZM42.5 29.9712C58.387 29.9712 68.9439 29.6241 69.986 29.0677C72.7122 27.6121 74.5016 33.0606 74.1864 41.8599L73.9323 48.96H42.5H11.0677L10.8136 41.8599C10.4984 33.0606 12.2878 27.6121 15.014 29.0677C16.0561 29.6241 26.613 29.9712 42.5 29.9712ZM13.8612 33.353C12.3436 35.0257 11.939 38.5382 13.0732 40.1951C14.7873 42.699 20.9773 45.8688 24.1524 45.8688C30.9683 45.8688 34.3621 38.5541 29.7013 33.9058C27.8145 32.0229 26.7245 31.7376 21.4271 31.7376C16.6414 31.7376 15.0105 32.0856 13.8612 33.353ZM55.2987 33.9058C50.6379 38.5541 54.0317 45.8688 60.8476 45.8688C63.039 45.8688 65.4624 45.0395 67.7503 43.5071C72.0216 40.6455 72.5732 39.8992 72.5909 36.9529C72.613 33.1489 70.1303 31.7376 63.4189 31.7376C58.2852 31.7376 57.174 32.0343 55.2987 33.9058ZM26.9423 36.6579C27.7073 37.4219 28.3333 38.3872 28.3333 38.8032C28.3333 39.833 25.7541 42.336 24.6934 42.336C23.398 42.336 17.0213 38.9551 16.3882 37.9323C15.3071 36.1889 16.9805 35.2704 21.2394 35.2704C23.978 35.2704 26.0578 35.7765 26.9423 36.6579ZM68.6198 37.0085C68.6198 38.2936 62.5007 42.2936 60.4926 42.3219C59.291 42.3378 56.6667 39.9248 56.6667 38.8032C56.6667 38.3872 57.3121 37.4024 58.101 36.6155C60.0003 34.721 68.6198 35.0434 68.6198 37.0085ZM21.0818 54.48C20.8409 55.7271 19.8484 56.0256 15.9375 56.0256C12.0266 56.0256 11.0341 55.7271 10.7932 54.48C10.5356 53.1437 11.2306 52.9344 15.9375 52.9344C20.6444 52.9344 21.3394 53.1437 21.0818 54.48ZM74.2068 54.48C73.9659 55.7271 72.9734 56.0256 69.0625 56.0256C65.1516 56.0256 64.1591 55.7271 63.9182 54.48C63.6606 53.1437 64.3556 52.9344 69.0625 52.9344C73.7694 52.9344 74.4644 53.1437 74.2068 54.48Z" fill="#04E63D"/>
</svg>
