<svg width="69" height="59" viewBox="0 0 69 59" fill="none" xmlns="http://www.w3.org/2000/svg">
<path fill-rule="evenodd" clip-rule="evenodd" d="M36.5772 0.58868C34.2162 1.53641 32.5974 4.27095 32.5974 7.31153C32.5974 13.4592 40.0406 16.2189 44.5412 11.7404C50.0142 6.2943 43.8532 -2.33362 36.5772 0.58868ZM42.4751 5.1004C43.5241 6.76817 42.5242 10.0202 40.7954 10.5665C39.0488 11.118 36.6686 9.97731 36.0111 8.27331C35.7496 7.59467 36.0653 6.23443 36.7131 5.25121C38.0571 3.20936 41.2345 3.12657 42.4751 5.1004ZM0.729547 4.92445C0.159735 5.30739 -0.10177 6.15311 0.149334 6.80366C0.502216 7.71886 1.68641 7.98722 5.36679 7.98722C8.50856 7.98722 10.4178 8.33393 10.9787 9.0074C11.6132 9.7681 16.2534 22.2557 16.2534 23.202C16.2534 23.2862 14.9786 23.0696 13.4199 22.7207C11.8613 22.3725 8.26711 21.9918 5.43365 21.8757C0.73549 21.682 0.280829 21.7915 0.280829 23.1155C0.280829 24.3877 1.1062 24.6716 6.96702 25.4138C15.0826 26.4422 19.9055 27.6989 21.6395 29.2395C22.7019 30.1836 22.9396 31.6562 22.9396 37.3027V44.2111L12.3531 44.2221C1.47989 44.234 -0.643351 44.6694 0.149334 46.7238C0.539361 47.7366 2.21908 47.9074 11.7729 47.9074H22.9396V51.6037C22.9396 55.0634 22.8192 55.3 21.0637 55.3C19.5675 55.3 19.0965 54.8446 18.7355 53.0475C18.1218 49.9965 15.9659 50.3824 15.6524 53.5989C15.1725 58.5173 21.1455 60.8481 24.8303 57.1814C26.62 55.4013 26.6541 55.1388 26.6541 43.0992C26.6541 29.6217 26.1081 27.3729 22.3698 25.4486C20.6715 24.574 19.881 23.0164 17.5364 15.9247C15.9659 11.1742 14.0633 6.84284 13.2097 6.07401C11.4988 4.53338 2.54299 3.70837 0.729547 4.92445ZM48.2201 12.2395C46.5478 13.077 44.7648 15.0102 43.149 17.7359C40.684 21.8964 40.6142 21.946 36.442 22.4634C29.5998 23.3106 26.7968 26.1672 29.2097 29.8317C30.3159 31.5113 30.8233 31.637 36.1433 31.5564C44.9357 31.4218 45.7729 31.084 50.2341 25.8567C52.4301 23.2833 54.0965 20.7883 53.9368 20.3122C53.2548 18.2733 51.1813 19.221 48.2253 22.921C46.5039 25.0753 44.6979 27.0631 44.2113 27.3381C43.7255 27.6124 40.8482 27.9177 37.8178 28.0153C31.3367 28.2245 29.8657 26.9175 35.7258 26.1568C42.3912 25.2919 42.8644 25.0331 45.1935 20.9827C50.2452 12.1966 52.2021 12.5263 59.886 23.4578C66.5506 32.9395 66.6762 34.0432 61.5709 38.297C59.5279 39.9987 57.8564 41.8646 57.8564 42.4427C57.8564 43.0216 59.5717 45.8411 61.6682 48.7095C64.5908 52.7081 65.2758 54.1268 64.6049 54.7943C63.9348 55.4611 62.267 54.1807 57.4507 49.3009C53.9962 45.8012 51.1702 42.3733 51.1702 41.682C51.1702 40.9916 52.8417 38.6673 54.8847 36.5183C59.2441 31.9312 59.782 29.7452 56.3854 30.4209C54.6611 30.7639 53.9977 30.5391 53.3877 29.4044C52.4606 27.6819 49.6843 27.4402 49.6843 29.0821C49.6843 29.7067 50.2326 31.0492 50.902 32.0665C52.0535 33.8148 52.0342 34.0078 50.5513 35.5787C48.4103 37.846 42.8206 53.0009 43.3495 55.1056C43.5776 56.0156 44.5969 57.3027 45.6147 57.9658C47.1533 58.9689 47.8278 59.0222 49.6249 58.2814C52.2882 57.1836 54.202 53.3069 52.5891 52.2779C51.8432 51.8025 51.0662 52.1907 49.8916 53.6248C48.6532 55.1374 48.0306 55.4286 47.3917 54.7929C46.7536 54.1578 46.8732 53.0563 47.8731 50.3728C48.6056 48.4071 49.327 46.6462 49.4756 46.4599C49.6242 46.2736 52.4896 49.02 55.8438 52.5625C60.0777 57.0336 62.4639 59.0022 63.6473 59C65.5581 58.9956 69 55.955 69 54.2717C69 53.6684 67.4956 50.9894 65.6569 48.3162C63.8182 45.6437 62.3138 43.145 62.3138 42.7628C62.3138 42.3814 63.449 41.2074 64.836 40.1547C67.8886 37.8371 69.3417 34.6384 68.7281 31.5845C67.983 27.8756 57.5733 13.5472 54.6061 12.1463C51.451 10.6567 51.3745 10.6582 48.2201 12.2395ZM13.3159 34.9296C11.2023 37.4631 14.1168 41.7464 16.8106 40.066C19.4613 38.4123 18.5081 33.8614 15.5105 33.8614C14.7936 33.8614 13.8055 34.3419 13.3159 34.9296Z" fill="#04E63D"/>
</svg>
