<svg width="85" height="72" viewBox="0 0 85 72" fill="none" xmlns="http://www.w3.org/2000/svg">
<path fill-rule="evenodd" clip-rule="evenodd" d="M29.0125 2C29.0125 3.874 28.3455 4 18.4625 4C7.2985 4 3.0415 5.208 1.0425 8.945C-0.3475 11.541 -0.3475 64.459 1.0425 67.055C3.5465 71.735 5.7395 72 42.0125 72C78.2855 72 80.4785 71.735 82.9825 67.055C84.3725 64.459 84.3725 11.541 82.9825 8.945C80.9835 5.208 76.7265 4 65.5625 4C55.6795 4 55.0125 3.874 55.0125 2C55.0125 0.103 54.3455 0 42.0125 0C29.6795 0 29.0125 0.103 29.0125 2ZM75.0125 38V63H42.0125H9.0125V38V13H42.0125H75.0125V38ZM38.0125 26.952V32.905L31.7625 33.202L25.5125 33.5V38V42.5L31.7625 42.798L38.0125 43.095V49.048V55H42.0125H46.0125V49.048V43.095L52.2625 42.798L58.5125 42.5V38V33.5L52.2625 33.202L46.0125 32.905V26.952V21H42.0125H38.0125V26.952Z" fill="#04E63D"/>
</svg>
