<svg width="62" height="59" viewBox="0 0 62 59" fill="none" xmlns="http://www.w3.org/2000/svg">
<path fill-rule="evenodd" clip-rule="evenodd" d="M13.4783 1.01582C13.4783 1.61186 14.8766 4.33367 16.585 7.0642L19.6924 12.0292L17.9328 14.3261C15.1988 17.897 15.5404 18.7267 19.747 18.7267H23.3208L24.5325 22.0828C26.1182 26.4759 27.6877 26.5699 29.2984 22.3681L30.4764 19.2972L35.4552 19.7624C40.0008 20.1866 40.4348 20.1201 40.4348 18.9985C40.4348 18.3233 39.1604 16.4774 37.603 14.8967L34.7712 12.0225L36.9291 9.80547C38.1158 8.58519 39.087 7.04406 39.087 6.37888C39.087 5.30291 38.661 5.21968 35.2052 5.61906C31.618 6.03387 31.2008 5.93721 29.6967 4.34239C28.183 2.73817 25.6222 1.97432 25.5986 3.12077C25.5925 3.39731 25.329 4.03162 25.0123 4.52899C24.5614 5.2378 23.4919 4.8391 20.0637 2.68313C15.4036 -0.248096 13.4783 -0.736074 13.4783 1.01582ZM25.7846 9.32957C26.35 9.32957 27.003 8.83555 27.2355 8.23145C27.6271 7.21455 27.749 7.21455 28.8772 8.23145C29.547 8.83555 30.663 9.32957 31.3565 9.32957C32.337 9.32957 32.4375 9.50879 31.8087 10.135C30.5727 11.3661 30.8349 12.7763 32.6518 14.6651L34.3028 16.3821L31.3329 16.1465C28.6117 15.931 28.3259 16.0572 27.9236 17.6547C27.3683 19.8597 26.5522 19.8872 26.0056 17.7198C25.6559 16.3318 25.1774 16.0418 23.2372 16.0418C20.7228 16.0418 20.278 15.3706 21.9022 14.0281C23.2898 12.881 23.1718 11.5829 21.421 8.76239L19.9296 6.35807L22.3436 7.84349C23.6705 8.66103 25.2192 9.32957 25.7846 9.32957ZM52.3752 12.7474C45.8429 14.2792 44.2592 16.0894 40.4173 26.4142C37.8038 33.4392 37.4406 34.0527 36.2633 33.4251C35.5536 33.0472 34.4579 32.8398 33.8291 32.9653C33.1006 33.1103 32.3937 32.5243 31.8848 31.353C30.783 28.8185 28.2477 28.2996 25.3331 30.0126L23.0202 31.3718L21.3563 28.8675C20.4411 27.4895 18.6371 25.2489 17.3479 23.887L15.004 21.4116H7.502C0.4495 21.4116 0 21.4921 0 22.754C0 23.9964 0.4495 24.0965 6.03354 24.0965C9.35189 24.0965 12.7639 24.4186 13.6151 24.8126C14.4662 25.206 16.6793 27.6137 18.5326 30.1623C20.3859 32.7109 22.3092 34.8051 22.8066 34.8159C23.3046 34.8273 24.4826 34.2319 25.4247 33.4936C27.9809 31.4906 28.9068 31.8041 29.3934 34.836C29.8469 37.6619 30.7237 38.1237 32.9759 36.7221C33.9834 36.0959 34.4902 36.1133 35.3258 36.8047C36.1507 37.4867 36.3913 39.0305 36.3913 43.6438C36.3913 48.9525 36.2579 49.6029 35.1682 49.6029C34.437 49.6029 33.4989 48.6706 32.8351 47.2838C29.9372 41.2314 19.4815 41.7248 17.9032 47.9886C17.4995 49.5901 17.4254 49.6029 8.74807 49.6029C0.449501 49.6029 0 49.672 0 50.9453C0 52.2186 0.449501 52.2878 8.74807 52.2878C17.4254 52.2878 17.4995 52.3005 17.9032 53.9021C18.5522 56.4789 21.175 58.4496 24.4442 58.8168C28.2605 59.245 31.3585 57.6904 32.8351 54.6069C34.3359 51.4722 36.3913 51.4293 36.3913 54.533C36.3913 57.9254 38.041 59 43.2477 59C48.3034 59 49.8696 57.916 49.8696 54.4162V52.2878H55.9348C61.5262 52.2878 62 52.1844 62 50.9614C62 49.7009 61.442 49.6264 50.712 49.4512L39.4239 49.2673L39.2305 43.8713C38.9906 37.1839 40.3526 33.0432 42.4275 34.1493C43.1358 34.5272 47.8296 34.836 52.8577 34.836C61.4278 34.836 62 34.7555 62 33.5452C62 32.3471 61.3517 32.2397 52.8766 32.035C45.8598 31.8665 43.615 31.5933 43.1567 30.853C42.5495 29.873 45.6933 20.1678 47.2063 18.3521C48.2131 17.1439 53.3968 15.5713 58.125 15.039C61.351 14.6759 62 14.3859 62 13.3086C62 12.1863 61.5303 12.0232 58.462 12.0816C56.5157 12.1192 53.7769 12.4185 52.3752 12.7474ZM41.5501 37.4061C40.395 38.6774 40.087 41.3469 40.9503 42.6061C42.255 44.509 46.9663 46.918 49.383 46.918C54.5708 46.918 57.1539 41.3589 53.6064 37.8263C52.1703 36.3953 51.3407 36.1785 47.3087 36.1785C43.6662 36.1785 42.4248 36.4429 41.5501 37.4061ZM51.5065 39.9178C52.0888 40.4984 52.5652 41.2321 52.5652 41.5482C52.5652 42.3309 50.6021 44.2331 49.7948 44.2331C48.8088 44.2331 43.9553 41.6637 43.4735 40.8864C42.6506 39.5614 43.9243 38.8633 47.1658 38.8633C49.2502 38.8633 50.8333 39.2479 51.5065 39.9178ZM29.0302 47.5375C30.1138 48.6169 31 50.1499 31 50.9453C31 52.6046 27.5651 56.3151 26.0292 56.3151C22.2054 56.3151 19.4431 52.4146 20.8576 49.0129C22.3948 45.3158 26.1236 44.6426 29.0302 47.5375ZM47.0499 54.1336C46.8464 55.8976 46.6732 55.9795 43.1304 55.9795C39.5877 55.9795 39.4145 55.8976 39.211 54.1336C38.9987 52.2978 39.0196 52.2878 43.1304 52.2878C47.2413 52.2878 47.2622 52.2978 47.0499 54.1336Z" fill="#04E63D"/>
</svg>
