<svg width="92" height="48" viewBox="0 0 92 48" fill="none" xmlns="http://www.w3.org/2000/svg">
<path fill-rule="evenodd" clip-rule="evenodd" d="M10.6324 12.9461C2.38924 30.1145 0 35.5763 0 37.2518C0 38.7639 7.8476 42.788 12.5414 43.6831C14.4863 44.054 17.6152 43.4435 22.1702 41.8038C27.9137 39.7362 29.7776 39.4663 34.6987 39.9923C40.1681 40.5772 40.48 40.5056 40.48 38.6666C40.48 37.5979 40.377 36.7212 40.25 36.7175C40.123 36.7147 35.259 35.8912 29.44 34.8877C16.1129 32.5897 14.72 32.5778 14.72 34.7546C14.72 35.8774 15.7394 36.7689 17.71 37.3703L20.7 38.2828L17.3043 38.9723C14.1505 39.6132 4.6 37.4501 4.6 36.095C4.6 35.2485 18.4405 6.01905 19.1995 5.26162C19.6015 4.86041 23.8289 5.16338 28.5945 5.93459C39.629 7.72029 52.371 7.72029 63.4055 5.93459C68.1711 5.16338 72.3985 4.86041 72.8005 5.26162C73.5844 6.04384 87.4 35.2632 87.4 36.1391C87.4 36.6055 79.1246 39.2413 68.54 42.1462C66.516 42.7017 63.825 43.9714 62.56 44.9694L60.26 46.7826H63.02C71.7646 46.7844 92 40.0529 92 37.1417C92 35.5754 89.4875 29.8566 81.3676 12.9461C77.2202 4.30955 74.6635 0 73.6856 0C72.8796 0 68.908 0.666539 64.86 1.47997C55.1945 3.42267 36.8055 3.42267 27.14 1.47997C23.092 0.666539 19.1204 0 18.3144 0C17.3365 0 14.7798 4.30955 10.6324 12.9461ZM64.4 34.4874C60.605 35.1677 56.155 35.9674 54.51 36.2658C50.3286 37.0232 50.2927 40.1604 54.4612 40.568L57.4016 40.8554L54.0923 42.6218C51.0609 44.2395 49.8318 44.3166 39.4772 43.5399C29.9083 42.8219 27.669 42.9128 24.9016 44.133C21.666 45.5588 21.655 45.5808 23.9255 46.2483C25.1878 46.6192 32.499 47.1645 40.1736 47.4611L54.1273 48L60.6685 43.2516C65.2915 39.896 68.5888 38.2425 71.9109 37.6136C74.4961 37.1242 76.762 36.7239 76.9451 36.7239C77.1291 36.7239 77.28 35.8976 77.28 34.8877C77.28 32.6852 74.8724 32.6099 64.4 34.4874Z" fill="#04E63D"/>
</svg>
