<svg width="444" height="521" viewBox="0 0 444 521" fill="none" xmlns="http://www.w3.org/2000/svg">
<path d="M277.5 83.7C282.3 90.7 289.1 95.9 294.7 102.2C297.5 105.3 300.4 108.2 303.4 111.1C305.2 112.8 305.5 113.8 303.5 115.8C286.8 132.2 270.1 148.8 253.6 165.4C251.5 167.5 250.3 167.1 248.4 165.2C239.5 156.5 230.5 147.8 221.6 139.2C214.2 131.9 207 124.4 199.4 117.3C196.5 114.5 196.9 113.1 199.5 110.4C206.5 103.2 214.1 96.5 220.2 88.5C223.2 86.7 225.4 84.2 227.4 81.4C234.7 75.1 240.9 67.8 247.6 60.9C249.9 58.5 251.4 57.8 253.7 60.7C256 63.5 258.6 66.1 261.3 68.6C266.9 73.5 271.3 79.5 277.5 83.7Z" fill="#FCCB01"/>
<path d="M223.199 259.2C220.899 261.6 218.599 263.9 216.199 266.3C209.399 273.3 202.399 280.2 195.699 287.4C193.499 289.8 192.099 289.8 189.799 287.4C182.199 279.5 174.299 271.9 166.599 264.2C157.899 255.3 149.299 246.3 140.399 237.5C138.099 235.3 137.999 234.1 140.399 231.8C156.899 215.6 173.399 199.3 189.699 183C191.899 180.8 193.099 181 195.199 183.1C204.099 191.9 213.099 200.5 222.099 209.1C229.599 216.6 237.099 224.2 244.799 231.5C247.099 233.7 246.899 234.9 244.799 237.1C237.499 244.3 230.399 251.8 223.199 259.2Z" fill="#028134"/>
<path d="M131.8 229.2C130.8 228.3 130.1 227.7 129.4 227C112.8 210.4 96.2003 193.8 79.5003 177.3C77.7003 175.5 77.5003 174.5 79.4003 172.6C95.7003 156.2 112 139.7 128.2 123.2C130.2 121.1 131.3 121.3 133.3 123.3C149.7 139.9 166.2 156.3 182.8 172.7C184.8 174.7 184.9 175.7 182.8 177.8C166.6 194.1 150.5 210.5 134.4 226.9C133.6 227.6 132.7 228.3 131.8 229.2Z" fill="#028134"/>
<path d="M311.7 118.8C312.6 119.6 313.4 120.2 314.1 120.9C330.7 137.5 347.2 154.1 363.8 170.6C365.8 172.6 365.7 173.7 363.7 175.7C347.5 192 331.4 208.4 315.4 224.8C313.5 226.8 312.4 227 310.3 224.9C293.9 208.3 277.5 191.8 260.9 175.4C258.6 173.1 258.9 172 261 169.9C277.1 153.7 293 137.5 309 121.2C309.9 120.5 310.8 119.8 311.7 118.8Z" fill="#FCCB01"/>
<path d="M277.5 83.6999C271.3 79.4999 266.8 73.4999 261.4 68.4999C258.7 65.9999 256.1 63.4999 253.8 60.5999C251.4 57.6999 249.9 58.3999 247.7 60.7999C241.1 67.6999 234.8 74.9999 227.5 81.2999C218.9 72.6999 210.3 64.1999 201.6 55.6999C199.8 53.9999 199.4 52.9999 201.4 50.9999C217.7 34.5999 234 18.0999 250.2 1.59991C252.2 -0.500089 253.3 -0.300098 255.3 1.6999C271.7 18.1999 288.2 34.6999 304.8 51.0999C306.8 53.0999 306.9 54.1999 304.9 56.1999C295.7 65.0999 286.7 74.4999 277.5 83.6999Z" fill="#028134"/>
<path d="M220.301 88.2998C214.201 96.3998 206.601 103 199.601 110.2C197.001 112.9 196.601 114.4 199.501 117.1C207.101 124.2 214.301 131.7 221.701 139C212.901 147.9 204.101 156.7 195.501 165.7C193.401 167.9 192.301 168.1 190.101 165.8C173.801 149.4 157.401 133.1 141.001 116.8C139.001 114.9 138.201 113.7 140.701 111.3C157.001 95.0998 173.101 78.6998 189.101 62.2998C191.401 59.8998 192.501 60.4998 194.501 62.4998C203.001 71.2998 211.701 79.7998 220.301 88.2998Z" fill="#028134"/>
<path d="M166.701 264.1C174.501 271.8 182.301 279.4 189.901 287.3C192.201 289.7 193.601 289.6 195.801 287.3C202.501 280.2 209.401 273.2 216.301 266.2C224.701 274.7 233.001 283.4 241.501 291.8C244.001 294.2 244.001 295.6 241.501 298.1C225.601 314 209.901 330 194.301 346.2C192.001 348.6 190.801 349 188.201 346.4C172.101 330 155.801 313.8 139.501 297.7C137.301 295.5 137.001 294.3 139.401 292C148.601 282.7 157.601 273.4 166.701 264.1Z" fill="#FCCB01"/>
<path d="M223.2 259.2C230.4 251.8 237.5 244.4 244.8 237.1C246.9 235 247.1 233.7 244.8 231.5C237.1 224.1 229.7 216.6 222.1 209.1C230.9 200 239.8 191 248.5 181.8C250.5 179.7 251.6 180.3 253.3 182C269.7 198.5 286.2 215.1 302.8 231.4C305.2 233.8 304.6 234.9 302.6 236.9C286.6 253 270.8 269.1 255 285.4C252.8 287.7 251.5 287.9 249.2 285.5C240.7 276.6 231.9 267.9 223.2 259.2Z" fill="#FCCB01"/>
<path d="M180.9 434.1C180.9 451.1 181.4 468.1 180.8 485C180.1 505.2 168.6 517.2 148 519.7C137 521 126.1 520 115.8 515.1C103.9 509.4 97.2 499.9 97 486.8C96.6 450.5 96.7 414.2 96.5 377.9C96.5 374.7 98 374.5 100.5 374.5C110.2 374.6 119.8 374.7 129.5 374.4C133.1 374.3 133.9 375.4 133.9 378.9C133.8 413.5 133.8 448.2 133.8 482.8C133.8 486 133.8 489.1 134.6 492.2C135.2 494.5 136.6 495.7 138.8 495.7C141 495.7 142.5 494.6 143.2 492.4C144.1 489.6 143.9 486.8 143.9 484C143.9 449.2 144 414.4 143.8 379.6C143.8 375.4 145 374.3 149.1 374.5C158.3 374.8 167.4 374.8 176.6 374.5C180.3 374.4 181.4 375.4 181.4 379.2C181.2 397.5 181.3 415.8 181.3 434.2C181.1 434.1 181 434.1 180.9 434.1Z" fill="#028134"/>
<path d="M19.6001 466C23.8001 466 28.0001 466.3 32.1001 465.9C36.3001 465.5 37.0001 467.2 36.8001 470.9C36.5001 476.5 36.6001 482.2 36.8001 487.9C36.9001 491.7 37.7001 495.4 42.6001 495.8C46.6001 496.1 49.3001 493.3 49.9001 488C51.2001 476.9 49.4001 467.3 38.5001 461.1C31.4001 457.1 25.1001 451.8 18.2001 447.4C7.20008 440.4 1.90009 430.2 1.00009 417.5C0.500088 410.3 0.800087 403.2 2.10009 396.1C4.50009 383.2 13.3001 376.6 25.2001 373.4C36.0001 370.6 47.0001 370.7 57.8001 373.4C75.3001 377.7 81.7001 385.9 82.5001 404.6C83.1001 417.9 83.1001 417.9 69.9001 417.9C63.6001 417.9 57.2001 417.8 50.9001 417.9C48.5001 418 47.7001 417.2 47.8001 414.8C47.9001 410.5 47.8001 406.1 47.7001 401.8C47.6001 398.7 46.6001 396.2 43.0001 395.9C39.7001 395.6 37.8001 397.5 36.7001 400.4C33.7001 408.8 36.6001 418.2 44.1001 423.2C52.1001 428.5 60.4001 433.4 68.3001 439.1C78.4001 446.4 84.1001 455.7 85.2001 468.3C85.9001 477.1 86.1001 485.9 84.8001 494.7C83.6001 502.6 79.8001 508.9 72.8001 512.7C55.1001 522.4 36.9001 522.7 18.8001 514.1C8.50009 509.2 3.90009 500.3 2.90009 489.3C2.40009 483 2.50009 476.7 1.90009 470.4C1.50009 466.4 3.10009 465.6 6.70009 465.9C10.9001 466.2 15.3001 466 19.6001 466Z" fill="#028134"/>
<path d="M256.299 418C253.999 418 251.599 418 249.299 418C238.899 418 238.899 418 238.899 407.8C238.899 405.8 238.899 403.8 238.699 401.8C238.499 398.9 237.599 396.5 234.299 396.1C230.799 395.7 228.699 397.5 227.599 400.7C224.699 409.3 227.599 418.4 235.099 423.4C242.799 428.6 250.899 433.3 258.499 438.7C268.899 446.1 275.099 455.6 276.099 468.5C276.799 477.3 276.999 486.1 275.699 494.9C274.499 502.8 270.699 509 263.599 512.8C245.899 522.5 227.699 522.7 209.599 514.1C199.699 509.4 195.099 500.8 193.899 490.2C193.199 483.3 192.799 476.3 192.799 469.3C192.799 466.7 193.599 465.9 196.199 465.9C205.699 466 215.199 466 224.699 465.9C227.099 465.9 227.799 466.6 227.799 469C227.699 475.2 227.599 481.3 227.799 487.5C227.899 491.4 228.499 495.4 233.699 495.8C237.699 496.1 240.299 493.2 240.899 487.9C242.099 477 240.499 467.5 229.799 461.3C222.699 457.3 216.399 452 209.499 447.7C198.499 440.7 192.999 430.7 191.999 418C191.399 410.7 191.799 403.4 193.099 396.1C195.299 384.1 203.299 377.4 214.399 374.1C225.799 370.7 237.399 370.8 248.899 373.6C266.299 377.9 272.399 385.9 273.499 404.4C274.199 418 274.199 418 260.799 418C259.299 418 257.799 418 256.299 418Z" fill="#028134"/>
<path d="M362.901 445.5C362.901 423.5 363.001 401.5 362.801 379.6C362.801 375.3 364.101 374.3 368.101 374.5C385.001 375.1 402.101 373.4 418.901 376.1C433.601 378.4 440.601 385.1 442.101 399.7C443.501 413.1 443.501 426.6 441.901 440C440.801 449.9 434.801 455.4 425.701 458C418.701 460 411.601 460.2 404.401 459.8C400.801 459.6 400.001 460.9 400.101 464.3C400.301 480.4 400.101 496.6 400.301 512.7C400.301 516.2 399.301 517.2 395.901 517.1C386.201 516.9 376.601 516.9 366.901 517.1C363.601 517.2 362.801 516.1 362.801 512.9C362.901 490.4 362.901 467.9 362.901 445.5ZM400.201 417.3C400.201 422.1 400.201 426.9 400.201 431.7C400.201 432.9 399.601 434.8 401.401 435C404.801 435.4 409.001 435.5 410.101 431.8C412.901 422.3 412.401 412.5 410.501 402.9C410.501 402.7 410.301 402.6 410.201 402.5C408.101 399.5 404.801 399 401.801 399.4C398.701 399.8 400.401 403 400.301 404.8C400.001 409 400.201 413.1 400.201 417.3Z" fill="#028134"/>
<path d="M287.901 445.7C287.901 423.6 288.001 401.4 287.801 379.3C287.801 375.7 288.501 374.4 292.401 374.5C310.001 374.7 327.701 374.7 345.401 374.5C349.301 374.5 350.201 375.6 350.001 379.3C349.701 386.1 349.801 393 350.001 399.8C350.101 402.7 349.101 403.5 346.301 403.4C340.801 403.2 335.301 403.5 329.801 403.3C326.501 403.2 325.001 403.9 325.201 407.6C325.501 413.9 325.401 420.3 325.201 426.6C325.101 429.4 325.901 430.4 328.801 430.3C334.001 430.1 339.101 430.4 344.301 430.2C347.201 430.1 348.501 430.6 348.401 433.9C348.101 440.5 348.201 447.2 348.401 453.9C348.501 456.9 347.401 457.6 344.601 457.5C339.401 457.3 334.301 457.6 329.101 457.4C326.401 457.3 325.201 457.9 325.201 460.9C325.401 469.1 325.301 477.2 325.201 485.4C325.201 488.1 326.201 488.8 328.701 488.8C335.401 488.7 342.001 488.9 348.701 488.7C351.801 488.6 352.701 489.6 352.601 492.6C352.401 499.6 352.301 506.6 352.601 513.6C352.701 516.9 351.401 517.3 348.501 517.3C329.701 517.2 310.901 517.1 292.101 517.3C288.501 517.3 287.801 516.2 287.801 512.8C287.901 490.3 287.901 468 287.901 445.7Z" fill="#028134"/>
</svg>
