<svg width="146" height="128" viewBox="0 0 146 128" fill="none" xmlns="http://www.w3.org/2000/svg">
<path d="M105.18 105.71C108.66 109.35 111.92 112.77 115.23 116.23C108.71 125.25 94.0003 129.63 82.2003 125.83C68.8903 121.55 59.7803 109.02 59.8703 95.1001C59.9503 81.4901 69.1103 68.7401 81.6503 64.7701C94.3403 60.7501 108.88 65.0801 116.08 75.1801C112.46 77.9801 108.85 80.8201 105.16 83.5401C104.82 83.7901 103.76 83.4401 103.28 83.0501C100.69 80.9701 98.0303 79.1201 94.6403 78.5801C88.5803 77.6301 83.7403 79.6201 80.2803 84.6501C76.7103 89.8401 75.7603 95.5601 77.5803 101.62C80.9603 112.86 94.4103 116.05 103.26 107.73C103.87 107.17 104.41 106.53 105.18 105.71Z" fill="#050A30"/>
<path d="M102.03 0.380037C125.88 1.66004 144.96 21.4 145.46 45.36C145.49 47 145.22 48.49 143.3 48.52C141.38 48.54 141.08 46.99 141.01 45.4C140.35 30.41 133.65 18.87 121 10.85C115.17 7.15003 108.72 5.23004 101.81 4.91004C100.97 4.87004 100.14 4.80004 99.3099 4.71004C97.9599 4.57004 97.1299 3.68004 97.4299 2.47004C97.6299 1.67004 98.5499 0.830036 99.3599 0.460036C100.1 0.110036 101.13 0.380037 102.03 0.380037Z" fill="#050A30"/>
<path d="M132.56 44.9701C132.56 44.8401 132.55 45.0501 132.56 45.2601C132.67 46.8501 132.42 48.4301 130.52 48.5301C128.62 48.6301 128.27 47.1601 128.19 45.5201C127.39 29.1401 114.4 17.8601 99.9899 17.6801C98.4599 17.6601 97.3299 17.0801 97.3499 15.4101C97.3699 13.5601 98.7099 13.1301 100.25 13.2101C112.51 13.8601 121.93 19.3501 128.23 29.9401C130.92 34.4401 132.35 39.3701 132.56 44.9701Z" fill="#050A30"/>
<path d="M119.72 45.54C119.89 47 119.38 48.36 117.69 48.5C115.99 48.64 115.4 47.43 115.27 45.79C114.58 37.1 108.71 31.25 100.09 30.61C98.5001 30.49 97.2601 30.01 97.3701 28.2C97.4901 26.34 98.9101 26.14 100.42 26.18C110.51 26.4 119.34 35.2 119.72 45.54Z" fill="#050A30"/>
<path d="M107.2 55.91C105.65 55.4 104.11 54.84 102.53 54.4C97.2501 52.92 91.8701 52.5 86.4201 53.1C80.7501 53.72 75.4201 55.4 70.4101 58.13C64.7501 61.22 60.0901 65.44 56.3501 70.68C55.7601 71.51 53.2701 74.99 50.6001 81.49C49.9001 83.72 49.1401 85.95 48.8201 88.28C48.6801 89.3 48.0901 89.47 47.2001 89.47C39.1401 89.45 31.0801 89.46 23.0201 89.46C21.1001 89.46 21.1001 89.46 21.1001 91.43C21.1001 94.16 21.0101 96.9 21.1301 99.63C21.2301 101.86 19.6101 103.91 17.0001 103.98C14.4101 104.04 11.8101 104.06 9.22007 103.98C6.64007 103.9 5.10007 102.23 5.09007 99.66C5.08007 96.61 5.07007 93.56 5.10007 90.51C5.11007 89.71 4.85007 89.33 4.06007 89.11C1.61007 88.45 0.250074 86.66 0.240074 84.1C0.220074 76.88 0.180072 69.66 0.250072 62.44C0.300072 58.17 2.32007 54.9 5.80007 52.5C6.05007 52.33 6.38007 52.24 6.55007 51.79C4.58007 51.36 3.23007 50.12 2.25007 48.42C0.170072 44.83 2.26007 40 6.28007 38.93C8.33007 38.39 10.3901 38.63 12.4501 38.63C13.6301 38.63 14.1001 38.19 14.4101 37.1C15.3501 33.77 16.3001 30.43 17.4201 27.16C19.1701 22.06 22.8201 18.96 27.9601 17.52C29.2001 17.17 30.4401 17.13 31.7001 17.14C47.2901 17.15 62.8901 17.21 78.4801 17.11C84.5101 17.07 91.2201 21.12 92.9601 27.9C93.8001 31.18 94.9301 34.39 95.8601 37.65C96.0701 38.38 96.4401 38.59 97.1301 38.58C98.7101 38.56 100.29 38.64 101.86 38.56C105.17 38.4 108.07 41.21 108.5 44.03C109.05 47.57 107.1 50.65 103.72 51.65C103.59 51.69 103.47 51.75 103.14 51.88C104.85 52.97 106.19 54.23 107.34 55.68C107.28 55.79 107.28 55.79 107.2 55.91ZM54.8501 45.74C67.2201 45.74 79.5801 45.74 91.9501 45.74C93.3501 45.74 93.3501 45.73 92.9801 44.42C91.5801 39.51 90.0701 34.63 88.8001 29.69C87.4401 24.41 82.7001 21.5 77.9601 21.54C62.7601 21.66 47.5501 21.58 32.3501 21.6C31.1001 21.6 29.7801 21.57 28.6001 21.91C24.7101 23.03 22.2001 25.59 21.1201 29.55C19.8401 34.27 18.5101 38.98 17.1901 43.69C16.6101 45.75 16.5901 45.74 18.7101 45.74C30.7401 45.73 42.8001 45.73 54.8501 45.74ZM23.6201 66.61C24.0201 63.41 20.8001 60.25 17.4601 60.28C13.8301 60.32 11.0101 63.09 11.0101 66.63C11.0001 70.13 13.8401 73.03 17.3001 73.03C20.8001 73.04 23.8601 70.03 23.6201 66.61Z" fill="#04E63D"/>
</svg>
