<svg width="146" height="128" viewBox="0 0 146 128" fill="none" xmlns="http://www.w3.org/2000/svg">
<path d="M105.18 105.82C108.66 109.46 111.92 112.88 115.23 116.34C108.71 125.36 93.9998 129.74 82.1998 125.94C68.8898 121.66 59.7798 109.13 59.8698 95.2101C59.9498 81.6001 69.1098 68.8501 81.6498 64.8801C94.3398 60.8601 108.88 65.1901 116.08 75.2901C112.46 78.0901 108.85 80.9301 105.16 83.6501C104.82 83.9001 103.76 83.5501 103.28 83.1601C100.69 81.0801 98.0298 79.2301 94.6398 78.6901C88.5798 77.7401 83.7398 79.7301 80.2798 84.7601C76.7098 89.9501 75.7598 95.6701 77.5798 101.73C80.9598 112.97 94.4098 116.16 103.26 107.84C103.87 107.29 104.41 106.64 105.18 105.82Z" fill="white"/>
<path d="M102.03 0.490065C125.88 1.77007 144.96 21.5101 145.46 45.4701C145.49 47.1101 145.22 48.6001 143.3 48.6301C141.38 48.6501 141.08 47.1001 141.01 45.5101C140.35 30.5201 133.65 18.9801 121 10.9601C115.17 7.26007 108.72 5.34006 101.81 5.02006C100.97 4.98006 100.14 4.91008 99.3099 4.82008C97.9599 4.68008 97.1299 3.79006 97.4299 2.58006C97.6299 1.78006 98.5499 0.940082 99.3599 0.570082C100.1 0.230082 101.13 0.490065 102.03 0.490065Z" fill="white"/>
<path d="M132.56 45.08C132.56 44.95 132.55 45.16 132.56 45.37C132.67 46.96 132.42 48.5401 130.52 48.6401C128.62 48.7401 128.27 47.27 128.19 45.63C127.39 29.25 114.4 17.9701 99.9899 17.7901C98.4599 17.7701 97.3299 17.19 97.3499 15.52C97.3699 13.67 98.7099 13.24 100.25 13.32C112.51 13.97 121.93 19.46 128.23 30.05C130.92 34.55 132.35 39.48 132.56 45.08Z" fill="white"/>
<path d="M119.72 45.6601C119.89 47.1201 119.38 48.48 117.69 48.62C115.99 48.76 115.4 47.5501 115.27 45.9101C114.58 37.2201 108.71 31.3701 100.09 30.7301C98.5001 30.6101 97.2601 30.1301 97.3701 28.3201C97.4901 26.4601 98.9101 26.26 100.42 26.3C110.51 26.52 119.34 35.3101 119.72 45.6601Z" fill="white"/>
<path d="M107.2 56.02C105.65 55.51 104.11 54.95 102.53 54.51C97.2501 53.03 91.8701 52.61 86.4201 53.21C80.7501 53.83 75.4201 55.51 70.4101 58.24C64.7501 61.33 60.0901 65.55 56.3501 70.79C55.7601 71.62 53.2701 75.1 50.6001 81.6C49.9001 83.83 49.1401 86.06 48.8201 88.39C48.6801 89.41 48.0901 89.58 47.2001 89.58C39.1401 89.56 31.0801 89.57 23.0201 89.57C21.1001 89.57 21.1001 89.57 21.1001 91.54C21.1001 94.27 21.0101 97.01 21.1301 99.74C21.2301 101.97 19.6101 104.02 17.0001 104.09C14.4101 104.15 11.8101 104.17 9.22007 104.09C6.64007 104.01 5.10007 102.34 5.09007 99.77C5.08007 96.72 5.07007 93.67 5.10007 90.62C5.11007 89.82 4.85007 89.44 4.06007 89.22C1.61007 88.56 0.250074 86.77 0.240074 84.21C0.220074 76.99 0.180072 69.77 0.250072 62.55C0.300072 58.28 2.32007 55.01 5.80007 52.61C6.05007 52.44 6.38007 52.35 6.55007 51.9C4.58007 51.47 3.23007 50.23 2.25007 48.53C0.170072 44.94 2.26007 40.11 6.28007 39.04C8.33007 38.5 10.3901 38.74 12.4501 38.74C13.6301 38.74 14.1001 38.3 14.4101 37.21C15.3501 33.88 16.3001 30.54 17.4201 27.27C19.1701 22.17 22.8201 19.07 27.9601 17.63C29.2001 17.28 30.4401 17.24 31.7001 17.25C47.2901 17.26 62.8901 17.32 78.4801 17.22C84.5101 17.18 91.2201 21.23 92.9601 28.01C93.8001 31.29 94.9301 34.5 95.8601 37.76C96.0701 38.49 96.4401 38.7 97.1301 38.69C98.7101 38.67 100.29 38.75 101.86 38.67C105.17 38.51 108.07 41.32 108.5 44.14C109.05 47.68 107.1 50.76 103.72 51.76C103.59 51.8 103.47 51.86 103.14 51.99C104.85 53.08 106.19 54.34 107.34 55.79C107.28 55.91 107.28 55.9 107.2 56.02ZM54.8501 45.85C67.2201 45.85 79.5801 45.85 91.9501 45.85C93.3501 45.85 93.3501 45.84 92.9801 44.53C91.5801 39.62 90.0701 34.74 88.8001 29.8C87.4401 24.52 82.7001 21.61 77.9601 21.65C62.7601 21.77 47.5501 21.69 32.3501 21.71C31.1001 21.71 29.7801 21.68 28.6001 22.02C24.7101 23.14 22.2001 25.7 21.1201 29.66C19.8401 34.38 18.5101 39.09 17.1901 43.8C16.6101 45.86 16.5901 45.85 18.7101 45.85C30.7401 45.85 42.8001 45.85 54.8501 45.85ZM23.6201 66.73C24.0201 63.53 20.8001 60.37 17.4601 60.4C13.8301 60.44 11.0101 63.21 11.0101 66.75C11.0001 70.25 13.8401 73.15 17.3001 73.15C20.8001 73.16 23.8601 70.15 23.6201 66.73Z" fill="#04E63D"/>
</svg>
