<svg width="146" height="128" viewBox="0 0 146 128" fill="none" xmlns="http://www.w3.org/2000/svg">
<path d="M105.18 105.9C108.66 109.54 111.92 112.96 115.23 116.42C108.71 125.44 93.9998 129.82 82.1998 126.02C68.8898 121.74 59.7798 109.21 59.8698 95.29C59.9498 81.68 69.1098 68.93 81.6498 64.96C94.3398 60.94 108.88 65.27 116.08 75.37C112.46 78.17 108.85 81.01 105.16 83.73C104.82 83.98 103.76 83.63 103.28 83.24C100.69 81.16 98.0298 79.31 94.6398 78.77C88.5798 77.82 83.7398 79.81 80.2798 84.84C76.7098 90.03 75.7598 95.75 77.5798 101.81C80.9598 113.05 94.4098 116.24 103.26 107.92C103.87 107.37 104.41 106.72 105.18 105.9Z" fill="white"/>
<path d="M102.03 0.570041C125.88 1.85004 144.96 21.59 145.46 45.55C145.49 47.19 145.22 48.68 143.3 48.71C141.38 48.73 141.08 47.18 141.01 45.59C140.35 30.6 133.65 19.06 121 11.04C115.17 7.34004 108.72 5.42004 101.81 5.10004C100.97 5.06004 100.14 4.99003 99.3099 4.90003C97.9599 4.76003 97.1299 3.87004 97.4299 2.66004C97.6299 1.86004 98.5499 1.02003 99.3599 0.650028C100.1 0.310028 101.13 0.570041 102.03 0.570041Z" fill="white"/>
<path d="M132.56 45.16C132.56 45.03 132.55 45.24 132.56 45.45C132.67 47.04 132.42 48.62 130.52 48.72C128.62 48.82 128.27 47.35 128.19 45.71C127.39 29.33 114.4 18.05 99.9899 17.87C98.4599 17.85 97.3299 17.27 97.3499 15.6C97.3699 13.75 98.7099 13.32 100.25 13.4C112.51 14.05 121.93 19.54 128.23 30.13C130.92 34.63 132.35 39.56 132.56 45.16Z" fill="white"/>
<path d="M119.72 45.74C119.89 47.2 119.38 48.56 117.69 48.7C115.99 48.84 115.4 47.63 115.27 45.99C114.58 37.3 108.71 31.45 100.09 30.81C98.5001 30.69 97.2601 30.21 97.3701 28.4C97.4901 26.54 98.9101 26.34 100.42 26.38C110.51 26.6 119.34 35.39 119.72 45.74Z" fill="white"/>
<path d="M107.2 56.1C105.65 55.59 104.11 55.03 102.53 54.59C97.2501 53.11 91.8701 52.69 86.4201 53.29C80.7501 53.91 75.4201 55.59 70.4101 58.32C64.7501 61.41 60.0901 65.63 56.3501 70.87C55.7601 71.7 53.2701 75.18 50.6001 81.68C49.9001 83.91 49.1401 86.14 48.8201 88.47C48.6801 89.49 48.0901 89.66 47.2001 89.66C39.1401 89.64 31.0801 89.65 23.0201 89.65C21.1001 89.65 21.1001 89.65 21.1001 91.62C21.1001 94.35 21.0101 97.09 21.1301 99.82C21.2301 102.05 19.6101 104.1 17.0001 104.17C14.4101 104.23 11.8101 104.25 9.22007 104.17C6.64007 104.09 5.10007 102.42 5.09007 99.85C5.08007 96.8 5.07007 93.75 5.10007 90.7C5.11007 89.9 4.85007 89.52 4.06007 89.3C1.61007 88.64 0.250074 86.85 0.240074 84.29C0.220074 77.07 0.180072 69.85 0.250072 62.63C0.300072 58.36 2.32007 55.09 5.80007 52.69C6.05007 52.52 6.38007 52.43 6.55007 51.98C4.58007 51.55 3.23007 50.31 2.25007 48.61C0.170072 45.02 2.26007 40.19 6.28007 39.12C8.33007 38.58 10.3901 38.82 12.4501 38.82C13.6301 38.82 14.1001 38.38 14.4101 37.29C15.3501 33.96 16.3001 30.62 17.4201 27.35C19.1701 22.25 22.8201 19.15 27.9601 17.71C29.2001 17.36 30.4401 17.32 31.7001 17.33C47.2901 17.34 62.8901 17.4 78.4801 17.3C84.5101 17.26 91.2201 21.31 92.9601 28.09C93.8001 31.37 94.9301 34.58 95.8601 37.84C96.0701 38.57 96.4401 38.78 97.1301 38.77C98.7101 38.75 100.29 38.83 101.86 38.75C105.17 38.59 108.07 41.4 108.5 44.22C109.05 47.76 107.1 50.84 103.72 51.84C103.59 51.88 103.47 51.94 103.14 52.07C104.85 53.16 106.19 54.42 107.34 55.87C107.28 55.99 107.28 55.98 107.2 56.1ZM54.8501 45.93C67.2201 45.93 79.5801 45.93 91.9501 45.93C93.3501 45.93 93.3501 45.92 92.9801 44.61C91.5801 39.7 90.0701 34.82 88.8001 29.88C87.4401 24.6 82.7001 21.69 77.9601 21.73C62.7601 21.85 47.5501 21.77 32.3501 21.79C31.1001 21.79 29.7801 21.76 28.6001 22.1C24.7101 23.22 22.2001 25.78 21.1201 29.74C19.8401 34.46 18.5101 39.17 17.1901 43.88C16.6101 45.94 16.5901 45.93 18.7101 45.93C30.7401 45.93 42.8001 45.93 54.8501 45.93ZM23.6201 66.81C24.0201 63.61 20.8001 60.45 17.4601 60.48C13.8301 60.52 11.0101 63.29 11.0101 66.83C11.0001 70.33 13.8401 73.23 17.3001 73.23C20.8001 73.23 23.8601 70.23 23.6201 66.81Z" fill="#04E63D"/>
</svg>
