<svg width="455" height="156" viewBox="0 0 455 156" fill="none" xmlns="http://www.w3.org/2000/svg">
<path d="M412.359 71.6594C411.309 68.1494 413.809 67.3694 415.969 66.8494C420.329 65.7994 421.879 63.3294 421.199 58.9294C420.819 56.4794 421.129 53.9194 421.129 51.2394C426.719 51.2394 432.189 51.2394 437.879 51.2394C437.879 55.5794 437.879 59.8794 437.879 64.4694C443.419 64.4694 448.749 64.4694 454.259 64.4694C454.259 69.5994 454.259 74.4394 454.259 79.5794C448.929 79.5794 443.599 79.5794 438.469 79.5794C438.199 79.9994 438.049 80.1094 438.049 80.2294C438.039 88.2594 437.859 96.2994 438.099 104.319C438.249 109.289 441.419 112.259 446.419 112.489C448.959 112.609 451.519 112.149 454.299 111.929C454.329 112.209 454.429 112.799 454.429 113.379C454.449 116.519 454.279 119.679 454.499 122.809C454.649 125.009 453.839 125.939 451.789 126.339C446.359 127.399 440.949 128.309 435.389 127.189C427.669 125.639 422.519 120.269 421.549 112.419C421.259 110.069 421.169 107.689 421.149 105.319C421.089 97.0094 421.109 88.6994 421.099 80.3794C421.099 80.2494 421.019 80.1194 420.879 79.7094C418.159 79.7094 415.349 79.7094 412.489 79.7094C412.389 78.7094 412.309 77.9794 412.209 76.9794C409.139 79.3194 406.269 81.5094 403.389 83.7094C401.659 82.4794 400.089 81.1994 398.369 80.1594C390.679 75.5494 381.129 78.7294 377.499 86.9394C374.719 93.2394 374.499 99.4694 378.269 105.349C383.089 112.869 392.539 114.319 400.129 108.939C401.479 107.979 402.679 106.789 403.969 105.679C407.229 109.109 410.529 112.569 413.869 116.089C405.109 127.289 385.579 131.729 370.689 120.069C356.859 109.239 354.589 88.6594 365.809 74.7294C376.889 61.0094 397.649 58.4594 412.359 71.6594Z" fill="#050A30"/>
<path d="M355.14 102.919C340.82 102.919 326.59 102.919 312.33 102.919C313.24 107.219 320.82 112.359 327 112.869C333.3 113.389 339.37 112.259 345.41 109.919C347.3 113.429 349.14 116.839 351.03 120.349C346.07 123.839 340.69 125.689 334.98 126.479C324.39 127.959 314.53 126.119 305.93 119.369C288.95 106.059 290.05 80.2095 308.07 68.3195C326.18 56.3695 349.45 65.3095 354.99 86.3195C356.45 91.8295 356.7 97.2995 355.14 102.919ZM339.18 89.8395C338.2 83.1895 331.67 77.8595 324.91 78.1195C318.62 78.3595 311.98 84.1795 311.57 89.8395C320.77 89.8395 329.97 89.8395 339.18 89.8395Z" fill="#050A30"/>
<path d="M178.18 94.9494C178.3 112.219 163.99 126.799 146.83 126.889C129.15 126.989 114.86 112.819 114.74 95.0694C114.62 77.5594 128.88 63.1094 146.39 62.9894C163.71 62.8794 178.06 77.2994 178.18 94.9494ZM131.66 95.9094C131.66 95.9294 131.66 95.9494 131.66 95.9694C131.66 96.4494 132.68 102.179 134.05 104.729C139.04 113.969 151.6 114.699 157.82 106.289C162.7 99.6994 162.32 89.6194 156.95 83.3094C152.21 77.7394 145.14 76.3994 139.52 80.1494C133.92 83.8794 131.79 89.4194 131.66 95.9094Z" fill="#050A30"/>
<path d="M195.94 125.419C190.14 125.419 184.71 125.419 179.14 125.419C179.14 105.169 179.14 85.0094 179.14 64.6094C183.78 64.6094 188.3 64.5794 192.82 64.6594C193.26 64.6694 193.8 65.3395 194.11 65.8195C194.77 66.8595 195.31 67.9794 195.91 69.0894C198.19 68.0094 200.27 66.8894 202.46 66.0294C211.17 62.6094 226.3 64.9894 232.04 76.4994C234.03 80.4794 234.71 84.7094 234.72 89.0794C234.76 100.679 234.74 112.279 234.74 123.869C234.74 124.339 234.62 124.809 234.54 125.379C228.97 125.379 223.49 125.379 217.77 125.379C217.77 124.529 217.77 123.779 217.77 123.039C217.77 112.139 217.78 101.239 217.76 90.3394C217.75 84.7494 215.41 81.4394 210.61 80.1094C205.25 78.6194 199.68 80.4795 197.28 84.8995C196.43 86.4695 196.01 88.4694 195.99 90.2794C195.87 101.179 195.93 112.079 195.93 122.979C195.94 123.749 195.94 124.499 195.94 125.419Z" fill="#050A30"/>
<path d="M254.209 69.0894C256.509 68.0094 258.589 66.8894 260.769 66.0294C269.009 62.7594 282.779 65.0494 288.829 73.9994C291.989 78.6694 292.989 83.8494 293.009 89.2994C293.059 100.889 293.029 112.489 293.029 124.079C293.029 124.479 292.919 124.879 292.839 125.389C287.279 125.389 281.799 125.389 276.049 125.389C276.049 124.579 276.049 123.839 276.049 123.099C276.049 112.199 276.059 101.309 276.039 90.4094C276.029 84.6794 273.669 81.3394 268.769 80.0694C263.279 78.6394 257.819 80.6094 255.389 85.1994C254.619 86.6594 254.299 88.5294 254.279 90.2094C254.179 101.029 254.229 111.859 254.229 122.689C254.229 123.519 254.229 124.349 254.229 125.349C248.599 125.349 243.129 125.349 237.449 125.349C237.409 124.589 237.339 123.849 237.339 123.099C237.329 104.449 237.379 85.7994 237.279 67.1594C237.269 64.9394 237.969 64.4494 239.999 64.5394C243.139 64.6894 246.289 64.6694 249.429 64.5394C251.099 64.4694 252.229 64.8494 252.819 66.5294C253.149 67.4294 253.729 68.2294 254.209 69.0894Z" fill="#050A30"/>
<path d="M97.5894 142.099C97.5894 145.039 95.4094 146.849 91.8994 146.849H88.8794V150.709H86.3994V137.349H91.8994C95.4194 137.349 97.5894 139.149 97.5894 142.099ZM95.0894 142.099C95.0894 140.419 93.9594 139.449 91.7894 139.449H88.8894V144.759H91.7894C93.9594 144.759 95.0894 143.779 95.0894 142.099Z" fill="#050A30"/>
<path d="M113.679 150.709L110.949 146.799C110.779 146.819 110.609 146.819 110.429 146.819H107.409V150.709H104.929V137.349H110.429C113.939 137.349 116.119 139.139 116.119 142.099C116.119 144.119 115.089 145.609 113.279 146.319L116.349 150.709H113.679ZM110.319 139.449H107.419V144.779H110.319C112.499 144.779 113.619 143.789 113.619 142.109C113.619 140.429 112.499 139.449 110.319 139.449Z" fill="#050A30"/>
<path d="M122.799 144.029C122.799 140.079 125.849 137.159 129.999 137.159C134.139 137.159 137.199 140.059 137.199 144.029C137.199 147.999 134.149 150.899 129.999 150.899C125.849 150.899 122.799 147.979 122.799 144.029ZM134.689 144.029C134.689 141.299 132.689 139.329 129.989 139.329C127.299 139.329 125.289 141.299 125.289 144.029C125.289 146.759 127.289 148.729 129.989 148.729C132.689 148.729 134.689 146.759 134.689 144.029Z" fill="#050A30"/>
<path d="M147.209 139.449H142.779V137.349H154.119V139.449H149.689V150.709H147.209V139.449Z" fill="#050A30"/>
<path d="M170.879 148.629V150.709H160.859V137.349H170.609V139.429H163.339V142.899H169.789V144.939H163.339V148.619H170.879V148.629Z" fill="#050A30"/>
<path d="M188.339 147.139L189.939 148.669C188.739 150.059 186.959 150.849 184.859 150.899L184.669 151.649C185.799 151.779 186.329 152.429 186.329 153.249C186.329 154.359 185.299 155.059 183.729 155.059C183.039 155.059 182.449 154.929 181.969 154.659L182.409 153.529C182.809 153.739 183.229 153.839 183.709 153.839C184.419 153.839 184.719 153.569 184.719 153.149C184.719 152.789 184.429 152.519 183.709 152.519H183.119L183.559 150.839C180.029 150.379 177.489 147.649 177.489 144.029C177.489 140.039 180.539 137.159 184.649 137.159C186.829 137.159 188.699 137.939 189.939 139.389L188.339 140.899C187.369 139.849 186.159 139.329 184.769 139.329C181.999 139.329 179.999 141.279 179.999 144.029C179.999 146.779 181.999 148.729 184.769 148.729C186.159 148.729 187.359 148.209 188.339 147.139Z" fill="#050A30"/>
<path d="M205.569 147.619H198.889L197.569 150.709H195.009L201.019 137.349H203.459L209.489 150.709H206.889L205.569 147.619ZM200.089 136.149H198.809C198.849 134.579 199.649 133.589 200.869 133.589C202.129 133.589 202.779 134.849 203.469 134.849C203.999 134.849 204.369 134.449 204.409 133.759H205.689C205.649 135.249 204.849 136.259 203.629 136.259C202.369 136.259 201.719 134.999 201.029 134.999C200.489 134.999 200.129 135.419 200.089 136.149ZM204.749 145.669L202.229 139.829L199.729 145.669H204.749Z" fill="#050A30"/>
<path d="M214.919 144.029C214.919 140.079 217.969 137.159 222.119 137.159C226.259 137.159 229.319 140.059 229.319 144.029C229.319 147.999 226.269 150.899 222.119 150.899C217.969 150.899 214.919 147.979 214.919 144.029ZM226.809 144.029C226.809 141.299 224.809 139.329 222.109 139.329C219.419 139.329 217.409 141.299 217.409 144.029C217.409 146.759 219.409 148.729 222.109 148.729C224.809 148.729 226.809 146.759 226.809 144.029Z" fill="#050A30"/>
<path d="M246.939 137.349H249.419V150.709H246.939V137.349Z" fill="#050A30"/>
<path d="M269.769 137.349V150.709H267.729L260.359 141.659V150.709H257.899V137.349H259.939L267.309 146.399V137.349H269.769Z" fill="#050A30"/>
<path d="M280.93 139.449H276.5V137.349H287.84V139.449H283.41V150.709H280.93V139.449Z" fill="#050A30"/>
<path d="M304.6 148.629V150.709H294.58V137.349H304.33V139.429H297.06V142.899H303.51V144.939H297.06V148.619H304.6V148.629Z" fill="#050A30"/>
<path d="M312.229 137.349H314.71V148.609H321.699V150.709H312.229V137.349Z" fill="#050A30"/>
<path d="M328.529 137.349H331.009V150.709H328.529V137.349Z" fill="#050A30"/>
<path d="M348.609 143.879H350.959V149.209C349.569 150.339 347.619 150.909 345.729 150.909C341.589 150.909 338.529 148.029 338.529 144.039C338.529 140.049 341.579 137.169 345.759 137.169C347.989 137.169 349.859 137.909 351.119 139.349L349.549 140.879C348.499 139.829 347.299 139.349 345.869 139.349C343.029 139.349 341.019 141.279 341.019 144.049C341.019 146.759 343.019 148.749 345.849 148.749C346.799 148.749 347.739 148.559 348.599 148.059V143.879H348.609Z" fill="#050A30"/>
<path d="M369.109 148.629V150.709H359.089V137.349H368.839V139.429H361.569V142.899H368.019V144.939H361.569V148.619H369.109V148.629Z" fill="#050A30"/>
<path d="M388.609 137.349V150.709H386.569L379.199 141.659V150.709H376.739V137.349H378.779L386.149 146.399V137.349H388.609Z" fill="#050A30"/>
<path d="M399.769 139.449H395.339V137.349H406.679V139.449H402.249V150.709H399.769V139.449Z" fill="#050A30"/>
<path d="M423.439 148.629V150.709H413.419V137.349H423.169V139.429H415.899V142.899H422.349V144.939H415.899V148.619H423.439V148.629Z" fill="#050A30"/>
<path d="M104.969 105.429C108.449 109.069 111.709 112.489 115.019 115.949C108.499 124.969 93.7893 129.349 81.9893 125.549C68.6793 121.269 59.5694 108.739 59.6594 94.8194C59.7394 81.2094 68.8993 68.4594 81.4393 64.4894C94.1293 60.4694 108.669 64.7994 115.869 74.8995C112.249 77.6995 108.639 80.5395 104.949 83.2595C104.609 83.5095 103.549 83.1594 103.069 82.7694C100.479 80.6894 97.8193 78.8394 94.4293 78.2994C88.3693 77.3494 83.5293 79.3395 80.0693 84.3695C76.4993 89.5595 75.5494 95.2794 77.3694 101.339C80.7494 112.579 94.1993 115.769 103.049 107.449C103.659 106.889 104.199 106.249 104.969 105.429Z" fill="#050A30"/>
<path d="M101.819 0.0994003C125.669 1.3794 144.749 21.1194 145.249 45.0794C145.279 46.7194 145.009 48.2094 143.089 48.2394C141.169 48.2594 140.869 46.7094 140.799 45.1194C140.139 30.1294 133.439 18.5894 120.789 10.5694C114.959 6.86939 108.509 4.9494 101.599 4.6294C100.759 4.5894 99.9295 4.51939 99.0995 4.42939C97.7495 4.28939 96.9194 3.3994 97.2194 2.1894C97.4194 1.3894 98.3395 0.549395 99.1495 0.179395C99.8895 -0.170605 100.919 0.0994003 101.819 0.0994003Z" fill="#050A30"/>
<path d="M132.349 44.6794C132.349 44.5494 132.339 44.7594 132.349 44.9694C132.459 46.5594 132.209 48.1394 130.309 48.2394C128.409 48.3394 128.059 46.8694 127.979 45.2294C127.179 28.8494 114.189 17.5694 99.7794 17.3894C98.2494 17.3694 97.1194 16.7894 97.1394 15.1194C97.1594 13.2694 98.4994 12.8394 100.039 12.9194C112.299 13.5694 121.719 19.0594 128.019 29.6494C130.709 34.1494 132.139 39.0794 132.349 44.6794Z" fill="#050A30"/>
<path d="M119.51 45.2594C119.68 46.7194 119.17 48.0794 117.48 48.2194C115.78 48.3594 115.19 47.1494 115.06 45.5094C114.37 36.8194 108.5 30.9694 99.8796 30.3294C98.2896 30.2094 97.0496 29.7294 97.1596 27.9194C97.2796 26.0594 98.6996 25.8594 100.21 25.8994C110.3 26.1194 119.13 34.9094 119.51 45.2594Z" fill="#050A30"/>
<path d="M106.99 55.6294C105.44 55.1194 103.9 54.5594 102.32 54.1194C97.0396 52.6394 91.6596 52.2194 86.2096 52.8194C80.5396 53.4394 75.2096 55.1194 70.1996 57.8494C64.5396 60.9394 59.8796 65.1594 56.1396 70.3994C55.5496 71.2294 53.0596 74.7094 50.3896 81.2094C49.6896 83.4394 48.9296 85.6694 48.6096 87.9994C48.4696 89.0194 47.8796 89.1894 46.9896 89.1894C38.9296 89.1694 30.8696 89.1794 22.8096 89.1794C20.8896 89.1794 20.8896 89.1794 20.8896 91.1494C20.8896 93.8794 20.7996 96.6194 20.9196 99.3494C21.0196 101.579 19.3996 103.629 16.7896 103.699C14.1996 103.759 11.5996 103.779 9.00962 103.699C6.42962 103.619 4.88962 101.949 4.87962 99.3794C4.86962 96.3294 4.85962 93.2794 4.88962 90.2294C4.89962 89.4294 4.63962 89.0494 3.84962 88.8294C1.39962 88.1694 0.0396243 86.3794 0.0296243 83.8194C0.00962431 76.5994 -0.0303774 69.3794 0.0396226 62.1594C0.0896226 57.8894 2.10962 54.6194 5.58962 52.2194C5.83962 52.0494 6.16962 51.9594 6.33962 51.5094C4.36962 51.0794 3.01962 49.8394 2.03962 48.1394C-0.0403774 44.5494 2.04962 39.7194 6.06962 38.6494C8.11962 38.1094 10.1796 38.3494 12.2396 38.3494C13.4196 38.3494 13.8896 37.9094 14.1996 36.8194C15.1396 33.4894 16.0896 30.1494 17.2096 26.8794C18.9596 21.7794 22.6096 18.6794 27.7496 17.2394C28.9896 16.8894 30.2296 16.8494 31.4896 16.8594C47.0796 16.8694 62.6796 16.9294 78.2696 16.8294C84.2996 16.7894 91.0096 20.8394 92.7496 27.6194C93.5896 30.8994 94.7196 34.1094 95.6496 37.3694C95.8596 38.0994 96.2296 38.3094 96.9196 38.2994C98.4996 38.2794 100.08 38.3594 101.65 38.2794C104.96 38.1194 107.86 40.9294 108.29 43.7494C108.84 47.2894 106.89 50.3694 103.51 51.3694C103.38 51.4094 103.26 51.4694 102.93 51.5994C104.64 52.6894 105.98 53.9494 107.13 55.3994C107.07 55.5094 107.07 55.4994 106.99 55.6294ZM54.6396 45.4494C67.0096 45.4494 79.3696 45.4494 91.7396 45.4494C93.1396 45.4494 93.1396 45.4394 92.7696 44.1294C91.3696 39.2194 89.8596 34.3394 88.5896 29.3994C87.2296 24.1194 82.4896 21.2094 77.7496 21.2494C62.5496 21.3694 47.3396 21.2894 32.1396 21.3094C30.8896 21.3094 29.5696 21.2794 28.3896 21.6194C24.4996 22.7394 21.9896 25.2994 20.9096 29.2594C19.6296 33.9794 18.2996 38.6894 16.9796 43.3994C16.3996 45.4594 16.3796 45.4494 18.4996 45.4494C30.5296 45.4494 42.5896 45.4494 54.6396 45.4494ZM23.4096 66.3294C23.8096 63.1294 20.5896 59.9694 17.2496 59.9994C13.6196 60.0394 10.7996 62.8094 10.7996 66.3494C10.7896 69.8494 13.6296 72.7494 17.0896 72.7494C20.5896 72.7594 23.6496 69.7494 23.4096 66.3294Z" fill="white"/>
</svg>
