<svg width="455" height="156" viewBox="0 0 455 156" fill="none" xmlns="http://www.w3.org/2000/svg">
<path d="M412.57 71.8599C411.52 68.3499 414.02 67.5699 416.18 67.0499C420.54 65.9999 422.09 63.5299 421.41 59.1299C421.03 56.6799 421.34 54.1199 421.34 51.4399C426.93 51.4399 432.4 51.4399 438.09 51.4399C438.09 55.7799 438.09 60.0799 438.09 64.6699C443.63 64.6699 448.96 64.6699 454.47 64.6699C454.47 69.7999 454.47 74.6399 454.47 79.7799C449.14 79.7799 443.81 79.7799 438.68 79.7799C438.41 80.1999 438.26 80.3099 438.26 80.4299C438.25 88.4599 438.07 96.4999 438.31 104.52C438.46 109.49 441.63 112.46 446.63 112.69C449.17 112.81 451.73 112.35 454.51 112.13C454.54 112.41 454.64 113 454.64 113.58C454.66 116.72 454.49 119.88 454.71 123.01C454.86 125.21 454.05 126.14 452 126.54C446.57 127.6 441.16 128.51 435.6 127.39C427.88 125.84 422.73 120.47 421.76 112.62C421.47 110.27 421.38 107.89 421.36 105.52C421.3 97.2099 421.32 88.8999 421.31 80.5799C421.31 80.4499 421.23 80.3199 421.09 79.9099C418.37 79.9099 415.56 79.9099 412.7 79.9099C412.6 78.9099 412.52 78.1799 412.42 77.1799C409.35 79.5199 406.48 81.7099 403.6 83.9099C401.87 82.6799 400.3 81.3999 398.58 80.3599C390.89 75.7499 381.34 78.9299 377.71 87.1399C374.93 93.4399 374.71 99.6699 378.48 105.55C383.3 113.07 392.75 114.52 400.34 109.14C401.69 108.18 402.89 106.99 404.18 105.88C407.44 109.31 410.74 112.77 414.08 116.29C405.32 127.49 385.79 131.93 370.9 120.27C357.07 109.44 354.8 88.8599 366.02 74.9299C377.1 61.2099 397.86 58.6599 412.57 71.8599Z" fill="#050A30"/>
<path d="M355.35 103.12C341.03 103.12 326.8 103.12 312.54 103.12C313.45 107.42 321.03 112.56 327.21 113.07C333.51 113.59 339.58 112.46 345.62 110.12C347.51 113.63 349.35 117.04 351.24 120.55C346.28 124.04 340.9 125.89 335.19 126.68C324.6 128.16 314.74 126.32 306.14 119.57C289.16 106.26 290.26 80.4101 308.28 68.5201C326.39 56.5701 349.66 65.5101 355.2 86.5201C356.66 92.0301 356.91 97.5 355.35 103.12ZM339.39 90.04C338.41 83.39 331.88 78.0601 325.12 78.3201C318.83 78.5601 312.19 84.38 311.78 90.04C320.98 90.04 330.18 90.04 339.39 90.04Z" fill="#050A30"/>
<path d="M178.39 95.1499C178.51 112.42 164.2 127 147.04 127.09C129.36 127.19 115.07 113.02 114.95 95.27C114.83 77.76 129.09 63.31 146.6 63.19C163.92 63.08 178.27 77.4999 178.39 95.1499ZM131.87 96.11C131.87 96.13 131.87 96.15 131.87 96.17C131.87 96.65 132.89 102.38 134.26 104.93C139.25 114.17 151.81 114.9 158.03 106.49C162.91 99.9 162.53 89.8199 157.16 83.5099C152.42 77.9399 145.35 76.6 139.73 80.35C134.13 84.08 132 89.62 131.87 96.11Z" fill="#050A30"/>
<path d="M196.15 125.62C190.35 125.62 184.92 125.62 179.35 125.62C179.35 105.37 179.35 85.21 179.35 64.81C183.99 64.81 188.51 64.78 193.03 64.86C193.47 64.87 194.01 65.54 194.32 66.02C194.98 67.06 195.52 68.18 196.12 69.29C198.4 68.21 200.48 67.09 202.67 66.23C211.38 62.81 226.51 65.19 232.25 76.7C234.24 80.68 234.92 84.91 234.93 89.28C234.97 100.88 234.95 112.48 234.95 124.07C234.95 124.54 234.83 125.01 234.75 125.58C229.18 125.58 223.7 125.58 217.98 125.58C217.98 124.73 217.98 123.98 217.98 123.24C217.98 112.34 217.99 101.44 217.97 90.54C217.96 84.95 215.62 81.64 210.82 80.31C205.46 78.82 199.89 80.68 197.49 85.1C196.64 86.67 196.22 88.67 196.2 90.48C196.08 101.38 196.14 112.28 196.14 123.18C196.15 123.95 196.15 124.7 196.15 125.62Z" fill="#050A30"/>
<path d="M254.42 69.29C256.72 68.21 258.8 67.09 260.98 66.23C269.22 62.96 282.99 65.25 289.04 74.2C292.2 78.87 293.2 84.05 293.22 89.5C293.27 101.09 293.24 112.69 293.24 124.28C293.24 124.68 293.13 125.08 293.05 125.59C287.49 125.59 282.01 125.59 276.26 125.59C276.26 124.78 276.26 124.04 276.26 123.3C276.26 112.4 276.27 101.51 276.25 90.61C276.24 84.88 273.88 81.54 268.98 80.27C263.49 78.84 258.03 80.81 255.6 85.4C254.83 86.86 254.51 88.73 254.49 90.41C254.39 101.23 254.44 112.06 254.44 122.89C254.44 123.72 254.44 124.55 254.44 125.55C248.81 125.55 243.34 125.55 237.66 125.55C237.62 124.79 237.55 124.05 237.55 123.3C237.54 104.65 237.59 86 237.49 67.36C237.48 65.14 238.18 64.65 240.21 64.74C243.35 64.89 246.5 64.87 249.64 64.74C251.31 64.67 252.44 65.05 253.03 66.73C253.36 67.63 253.94 68.43 254.42 69.29Z" fill="#050A30"/>
<path d="M105.18 105.63C108.66 109.27 111.92 112.69 115.23 116.15C108.71 125.17 93.9998 129.55 82.1998 125.75C68.8898 121.47 59.7798 108.94 59.8698 95.02C59.9498 81.41 69.1098 68.66 81.6498 64.69C94.3398 60.67 108.88 65 116.08 75.1C112.46 77.9 108.85 80.74 105.16 83.46C104.82 83.71 103.76 83.36 103.28 82.97C100.69 80.89 98.0298 79.04 94.6398 78.5C88.5798 77.55 83.7398 79.54 80.2798 84.57C76.7098 89.76 75.7598 95.48 77.5798 101.54C80.9598 112.78 94.4098 115.97 103.26 107.65C103.87 107.09 104.41 106.45 105.18 105.63Z" fill="#050A30"/>
<path d="M102.03 0.299962C125.88 1.57996 144.96 21.32 145.46 45.28C145.49 46.92 145.22 48.41 143.3 48.44C141.38 48.46 141.08 46.91 141.01 45.32C140.35 30.33 133.65 18.79 121 10.77C115.17 7.06996 108.72 5.14996 101.81 4.82996C100.97 4.78996 100.14 4.71996 99.3099 4.62996C97.9599 4.48996 97.1299 3.59996 97.4299 2.38996C97.6299 1.58996 98.5499 0.749956 99.3599 0.379956C100.1 0.0299561 101.13 0.299962 102.03 0.299962Z" fill="#050A30"/>
<path d="M132.56 44.88C132.56 44.75 132.55 44.96 132.56 45.17C132.67 46.76 132.42 48.34 130.52 48.44C128.62 48.54 128.27 47.07 128.19 45.43C127.39 29.05 114.4 17.77 99.9899 17.59C98.4599 17.57 97.3299 16.99 97.3499 15.32C97.3699 13.47 98.7099 13.04 100.25 13.12C112.51 13.77 121.93 19.26 128.23 29.85C130.92 34.35 132.35 39.28 132.56 44.88Z" fill="#050A30"/>
<path d="M119.72 45.46C119.89 46.92 119.38 48.28 117.69 48.42C115.99 48.56 115.4 47.35 115.27 45.71C114.58 37.02 108.71 31.17 100.09 30.53C98.5001 30.41 97.2601 29.93 97.3701 28.12C97.4901 26.26 98.9101 26.06 100.42 26.1C110.51 26.32 119.34 35.11 119.72 45.46Z" fill="#050A30"/>
<path d="M97.7999 142.3C97.7999 145.24 95.6199 147.05 92.1099 147.05H89.0899V150.91H86.6099V137.55H92.1099C95.6299 137.55 97.7999 139.35 97.7999 142.3ZM95.2999 142.3C95.2999 140.62 94.1699 139.65 91.9999 139.65H89.0999V144.96H91.9999C94.1699 144.96 95.2999 143.98 95.2999 142.3Z" fill="#050A30"/>
<path d="M113.89 150.91L111.16 147C110.99 147.02 110.82 147.02 110.64 147.02H107.62V150.91H105.14V137.55H110.64C114.15 137.55 116.33 139.34 116.33 142.3C116.33 144.32 115.3 145.81 113.49 146.52L116.56 150.91H113.89ZM110.53 139.65H107.63V144.98H110.53C112.71 144.98 113.83 143.99 113.83 142.31C113.83 140.63 112.71 139.65 110.53 139.65Z" fill="#050A30"/>
<path d="M123.01 144.23C123.01 140.28 126.06 137.36 130.21 137.36C134.35 137.36 137.41 140.26 137.41 144.23C137.41 148.2 134.36 151.1 130.21 151.1C126.06 151.1 123.01 148.18 123.01 144.23ZM134.9 144.23C134.9 141.5 132.9 139.53 130.2 139.53C127.51 139.53 125.5 141.5 125.5 144.23C125.5 146.96 127.5 148.93 130.2 148.93C132.9 148.93 134.9 146.96 134.9 144.23Z" fill="#050A30"/>
<path d="M147.42 139.65H142.99V137.55H154.33V139.65H149.9V150.91H147.42V139.65Z" fill="#050A30"/>
<path d="M171.09 148.83V150.91H161.07V137.55H170.82V139.63H163.55V143.1H170V145.14H163.55V148.82H171.09V148.83Z" fill="#050A30"/>
<path d="M188.55 147.34L190.15 148.87C188.95 150.26 187.17 151.05 185.07 151.1L184.88 151.85C186.01 151.98 186.54 152.63 186.54 153.45C186.54 154.56 185.51 155.26 183.94 155.26C183.25 155.26 182.66 155.13 182.18 154.86L182.62 153.73C183.02 153.94 183.44 154.04 183.92 154.04C184.63 154.04 184.93 153.77 184.93 153.35C184.93 152.99 184.64 152.72 183.92 152.72H183.33L183.77 151.04C180.24 150.58 177.7 147.85 177.7 144.23C177.7 140.24 180.75 137.36 184.86 137.36C187.04 137.36 188.91 138.14 190.15 139.59L188.55 141.1C187.58 140.05 186.37 139.53 184.98 139.53C182.21 139.53 180.21 141.48 180.21 144.23C180.21 146.98 182.21 148.93 184.98 148.93C186.37 148.93 187.57 148.41 188.55 147.34Z" fill="#050A30"/>
<path d="M205.78 147.82H199.1L197.78 150.91H195.22L201.23 137.55H203.67L209.7 150.91H207.1L205.78 147.82ZM200.3 136.35H199.02C199.06 134.78 199.86 133.79 201.08 133.79C202.34 133.79 202.99 135.05 203.68 135.05C204.21 135.05 204.58 134.65 204.62 133.96H205.9C205.86 135.45 205.06 136.46 203.84 136.46C202.58 136.46 201.93 135.2 201.24 135.2C200.7 135.2 200.34 135.62 200.3 136.35ZM204.96 145.87L202.44 140.03L199.94 145.87H204.96Z" fill="#050A30"/>
<path d="M215.13 144.23C215.13 140.28 218.18 137.36 222.33 137.36C226.47 137.36 229.53 140.26 229.53 144.23C229.53 148.2 226.48 151.1 222.33 151.1C218.18 151.1 215.13 148.18 215.13 144.23ZM227.02 144.23C227.02 141.5 225.02 139.53 222.32 139.53C219.63 139.53 217.62 141.5 217.62 144.23C217.62 146.96 219.62 148.93 222.32 148.93C225.02 148.93 227.02 146.96 227.02 144.23Z" fill="#050A30"/>
<path d="M247.15 137.55H249.63V150.91H247.15V137.55Z" fill="#050A30"/>
<path d="M269.98 137.55V150.91H267.94L260.57 141.86V150.91H258.11V137.55H260.15L267.52 146.6V137.55H269.98Z" fill="#050A30"/>
<path d="M281.14 139.65H276.71V137.55H288.05V139.65H283.62V150.91H281.14V139.65Z" fill="#050A30"/>
<path d="M304.81 148.83V150.91H294.79V137.55H304.54V139.63H297.27V143.1H303.72V145.14H297.27V148.82H304.81V148.83Z" fill="#050A30"/>
<path d="M312.44 137.55H314.92V148.81H321.91V150.91H312.44V137.55Z" fill="#050A30"/>
<path d="M328.74 137.55H331.22V150.91H328.74V137.55Z" fill="#050A30"/>
<path d="M348.82 144.08H351.17V149.41C349.78 150.54 347.83 151.11 345.94 151.11C341.8 151.11 338.74 148.23 338.74 144.24C338.74 140.25 341.79 137.37 345.97 137.37C348.2 137.37 350.07 138.11 351.33 139.55L349.76 141.08C348.71 140.03 347.51 139.55 346.08 139.55C343.24 139.55 341.23 141.48 341.23 144.25C341.23 146.96 343.23 148.95 346.06 148.95C347.01 148.95 347.95 148.76 348.81 148.26V144.08H348.82Z" fill="#050A30"/>
<path d="M369.32 148.83V150.91H359.3V137.55H369.05V139.63H361.78V143.1H368.23V145.14H361.78V148.82H369.32V148.83Z" fill="#050A30"/>
<path d="M388.82 137.55V150.91H386.78L379.41 141.86V150.91H376.95V137.55H378.99L386.36 146.6V137.55H388.82Z" fill="#050A30"/>
<path d="M399.98 139.65H395.55V137.55H406.89V139.65H402.46V150.91H399.98V139.65Z" fill="#050A30"/>
<path d="M423.65 148.83V150.91H413.63V137.55H423.38V139.63H416.11V143.1H422.56V145.14H416.11V148.82H423.65V148.83Z" fill="#050A30"/>
<path d="M107.2 55.83C105.65 55.32 104.11 54.76 102.53 54.32C97.2501 52.84 91.8701 52.42 86.4201 53.02C80.7501 53.64 75.4201 55.32 70.4101 58.05C64.7501 61.14 60.0901 65.36 56.3501 70.6C55.7601 71.43 53.2701 74.91 50.6001 81.41C49.9001 83.64 49.1401 85.87 48.8201 88.2C48.6801 89.22 48.0901 89.39 47.2001 89.39C39.1401 89.37 31.0801 89.38 23.0201 89.38C21.1001 89.38 21.1001 89.38 21.1001 91.35C21.1001 94.08 21.0101 96.82 21.1301 99.55C21.2301 101.78 19.6101 103.83 17.0001 103.9C14.4101 103.96 11.8101 103.98 9.22007 103.9C6.64007 103.82 5.10007 102.15 5.09007 99.58C5.08007 96.53 5.07007 93.4799 5.10007 90.4299C5.11007 89.6299 4.85007 89.25 4.06007 89.03C1.61007 88.37 0.250074 86.58 0.240074 84.02C0.220074 76.8 0.180072 69.58 0.250072 62.36C0.300072 58.09 2.32007 54.82 5.80007 52.42C6.05007 52.25 6.38007 52.16 6.55007 51.71C4.58007 51.28 3.23007 50.04 2.25007 48.34C0.170072 44.75 2.26007 39.92 6.28007 38.85C8.33007 38.31 10.3901 38.55 12.4501 38.55C13.6301 38.55 14.1001 38.11 14.4101 37.02C15.3501 33.69 16.3001 30.35 17.4201 27.08C19.1701 21.98 22.8201 18.88 27.9601 17.44C29.2001 17.09 30.4401 17.05 31.7001 17.06C47.2901 17.07 62.8901 17.13 78.4801 17.03C84.5101 16.99 91.2201 21.04 92.9601 27.82C93.8001 31.1 94.9301 34.31 95.8601 37.57C96.0701 38.3 96.4401 38.51 97.1301 38.5C98.7101 38.48 100.29 38.56 101.86 38.48C105.17 38.32 108.07 41.13 108.5 43.95C109.05 47.49 107.1 50.57 103.72 51.57C103.59 51.61 103.47 51.67 103.14 51.8C104.85 52.89 106.19 54.15 107.34 55.6C107.28 55.71 107.28 55.7 107.2 55.83ZM54.8501 45.65C67.2201 45.65 79.5801 45.65 91.9501 45.65C93.3501 45.65 93.3501 45.64 92.9801 44.33C91.5801 39.42 90.0701 34.54 88.8001 29.6C87.4401 24.32 82.7001 21.41 77.9601 21.45C62.7601 21.57 47.5501 21.49 32.3501 21.51C31.1001 21.51 29.7801 21.48 28.6001 21.82C24.7101 22.94 22.2001 25.5 21.1201 29.46C19.8401 34.18 18.5101 38.89 17.1901 43.6C16.6101 45.66 16.5901 45.65 18.7101 45.65C30.7401 45.65 42.8001 45.65 54.8501 45.65ZM23.6201 66.53C24.0201 63.33 20.8001 60.17 17.4601 60.2C13.8301 60.24 11.0101 63.01 11.0101 66.55C11.0001 70.05 13.8401 72.95 17.3001 72.95C20.8001 72.96 23.8601 69.95 23.6201 66.53Z" fill="#04E63D"/>
</svg>
