<svg width="455" height="155" viewBox="0 0 455 155" fill="none" xmlns="http://www.w3.org/2000/svg">
<path d="M412.57 71.95C411.52 68.44 414.02 67.66 416.18 67.14C420.54 66.09 422.09 63.62 421.41 59.22C421.03 56.77 421.34 54.21 421.34 51.53C426.93 51.53 432.4 51.53 438.09 51.53C438.09 55.87 438.09 60.17 438.09 64.76C443.63 64.76 448.96 64.76 454.47 64.76C454.47 69.89 454.47 74.73 454.47 79.87C449.14 79.87 443.81 79.87 438.68 79.87C438.41 80.29 438.26 80.4 438.26 80.52C438.25 88.55 438.07 96.59 438.31 104.61C438.46 109.58 441.63 112.55 446.63 112.78C449.17 112.9 451.73 112.44 454.51 112.22C454.54 112.5 454.64 113.09 454.64 113.67C454.66 116.81 454.49 119.97 454.71 123.1C454.86 125.3 454.05 126.23 452 126.63C446.57 127.69 441.16 128.6 435.6 127.48C427.88 125.93 422.73 120.56 421.76 112.71C421.47 110.36 421.38 107.98 421.36 105.61C421.3 97.3 421.32 88.99 421.31 80.67C421.31 80.54 421.23 80.41 421.09 80C418.37 80 415.56 80 412.7 80C412.6 79 412.52 78.27 412.42 77.27C409.35 79.61 406.48 81.8 403.6 84C401.87 82.77 400.3 81.49 398.58 80.45C390.89 75.84 381.34 79.02 377.71 87.23C374.93 93.53 374.71 99.76 378.48 105.64C383.3 113.16 392.75 114.61 400.34 109.23C401.69 108.27 402.89 107.08 404.18 105.97C407.44 109.4 410.74 112.86 414.08 116.38C405.32 127.58 385.79 132.02 370.9 120.36C357.07 109.53 354.8 88.95 366.02 75.02C377.1 61.29 397.86 58.74 412.57 71.95Z" fill="#050A30"/>
<path d="M355.35 103.21C341.03 103.21 326.8 103.21 312.54 103.21C313.45 107.51 321.03 112.65 327.21 113.16C333.51 113.68 339.58 112.55 345.62 110.21C347.51 113.72 349.35 117.13 351.24 120.64C346.28 124.13 340.9 125.98 335.19 126.77C324.6 128.25 314.74 126.41 306.14 119.66C289.16 106.35 290.26 80.5 308.28 68.61C326.39 56.66 349.66 65.6 355.2 86.61C356.66 92.11 356.91 97.58 355.35 103.21ZM339.39 90.13C338.41 83.48 331.88 78.15 325.12 78.41C318.83 78.65 312.19 84.47 311.78 90.13C320.98 90.13 330.18 90.13 339.39 90.13Z" fill="#050A30"/>
<path d="M178.39 95.24C178.51 112.51 164.2 127.09 147.04 127.18C129.36 127.28 115.07 113.11 114.95 95.36C114.83 77.85 129.09 63.4 146.6 63.28C163.92 63.16 178.27 77.58 178.39 95.24ZM131.87 96.2C131.87 96.22 131.87 96.24 131.87 96.26C131.87 96.74 132.89 102.47 134.26 105.02C139.25 114.26 151.81 114.99 158.03 106.58C162.91 99.99 162.53 89.91 157.16 83.6C152.42 78.03 145.35 76.69 139.73 80.44C134.13 84.17 132 89.7 131.87 96.2Z" fill="#050A30"/>
<path d="M196.15 125.7C190.35 125.7 184.92 125.7 179.35 125.7C179.35 105.45 179.35 85.2901 179.35 64.8901C183.99 64.8901 188.51 64.8601 193.03 64.9401C193.47 64.9501 194.01 65.6201 194.32 66.1001C194.98 67.1401 195.52 68.2601 196.12 69.3701C198.4 68.2901 200.48 67.1701 202.67 66.3101C211.38 62.8901 226.51 65.2701 232.25 76.7801C234.24 80.7601 234.92 84.9901 234.93 89.3601C234.97 100.96 234.95 112.56 234.95 124.15C234.95 124.62 234.83 125.09 234.75 125.66C229.18 125.66 223.7 125.66 217.98 125.66C217.98 124.81 217.98 124.06 217.98 123.32C217.98 112.42 217.99 101.52 217.97 90.6201C217.96 85.0301 215.62 81.7201 210.82 80.3901C205.46 78.9001 199.89 80.7601 197.49 85.1801C196.64 86.7501 196.22 88.7501 196.2 90.5601C196.08 101.46 196.14 112.36 196.14 123.26C196.15 124.03 196.15 124.78 196.15 125.7Z" fill="#050A30"/>
<path d="M254.42 69.3801C256.72 68.3001 258.8 67.1801 260.98 66.3201C269.22 63.0501 282.99 65.3401 289.04 74.2901C292.2 78.9601 293.2 84.1401 293.22 89.5901C293.27 101.18 293.24 112.78 293.24 124.37C293.24 124.77 293.13 125.17 293.05 125.68C287.49 125.68 282.01 125.68 276.26 125.68C276.26 124.87 276.26 124.13 276.26 123.39C276.26 112.49 276.27 101.6 276.25 90.7001C276.24 84.9701 273.88 81.6301 268.98 80.3601C263.49 78.9301 258.03 80.9001 255.6 85.4901C254.83 86.9501 254.51 88.8201 254.49 90.5001C254.39 101.32 254.44 112.15 254.44 122.98C254.44 123.81 254.44 124.64 254.44 125.64C248.81 125.64 243.34 125.64 237.66 125.64C237.62 124.88 237.55 124.14 237.55 123.39C237.54 104.74 237.59 86.0901 237.49 67.4501C237.48 65.2301 238.18 64.7401 240.21 64.8301C243.35 64.9801 246.5 64.9601 249.64 64.8301C251.31 64.7601 252.44 65.1401 253.03 66.8201C253.36 67.7201 253.94 68.5101 254.42 69.3801Z" fill="#050A30"/>
<path d="M105.18 105.71C108.66 109.35 111.92 112.77 115.23 116.23C108.71 125.25 94.0003 129.63 82.2003 125.83C68.8903 121.55 59.7803 109.02 59.8703 95.1001C59.9503 81.4901 69.1103 68.7401 81.6503 64.7701C94.3403 60.7501 108.88 65.0801 116.08 75.1801C112.46 77.9801 108.85 80.8201 105.16 83.5401C104.82 83.7901 103.76 83.4401 103.28 83.0501C100.69 80.9701 98.0303 79.1201 94.6403 78.5801C88.5803 77.6301 83.7403 79.6201 80.2803 84.6501C76.7103 89.8401 75.7603 95.5601 77.5803 101.62C80.9603 112.86 94.4103 116.05 103.26 107.73C103.87 107.17 104.41 106.53 105.18 105.71Z" fill="#050A30"/>
<path d="M102.03 0.380037C125.88 1.66004 144.96 21.4 145.46 45.36C145.49 47 145.22 48.49 143.3 48.52C141.38 48.54 141.08 46.99 141.01 45.4C140.35 30.41 133.65 18.87 121 10.85C115.17 7.15003 108.72 5.23004 101.81 4.91004C100.97 4.87004 100.14 4.80004 99.3099 4.71004C97.9599 4.57004 97.1299 3.68004 97.4299 2.47004C97.6299 1.67004 98.5499 0.830036 99.3599 0.460036C100.1 0.110036 101.13 0.380037 102.03 0.380037Z" fill="#050A30"/>
<path d="M132.56 44.9701C132.56 44.8401 132.55 45.0501 132.56 45.2601C132.67 46.8501 132.42 48.4301 130.52 48.5301C128.62 48.6301 128.27 47.1601 128.19 45.5201C127.39 29.1401 114.4 17.8601 99.9899 17.6801C98.4599 17.6601 97.3299 17.0801 97.3499 15.4101C97.3699 13.5601 98.7099 13.1301 100.25 13.2101C112.51 13.8601 121.93 19.3501 128.23 29.9401C130.92 34.4401 132.35 39.3701 132.56 44.9701Z" fill="#050A30"/>
<path d="M119.72 45.54C119.89 47 119.38 48.36 117.69 48.5C115.99 48.64 115.4 47.43 115.27 45.79C114.58 37.1 108.71 31.25 100.09 30.61C98.5001 30.49 97.2601 30.01 97.3701 28.2C97.4901 26.34 98.9101 26.14 100.42 26.18C110.51 26.4 119.34 35.2 119.72 45.54Z" fill="#050A30"/>
<path d="M86.502 149.911V136.031H91.1919C92.2807 136.031 93.1708 136.228 93.8621 136.621C94.5579 137.009 95.0729 137.536 95.4073 138.2C95.7416 138.864 95.9088 139.605 95.9088 140.423C95.9088 141.241 95.7416 141.984 95.4073 142.653C95.0775 143.321 94.5669 143.854 93.8756 144.252C93.1844 144.645 92.2988 144.842 91.219 144.842H87.8575V143.351H91.1648C91.9102 143.351 92.5089 143.222 92.9607 142.964C93.4125 142.707 93.7401 142.359 93.9434 141.921C94.1512 141.478 94.2552 140.979 94.2552 140.423C94.2552 139.867 94.1512 139.37 93.9434 138.932C93.7401 138.494 93.4103 138.15 92.9539 137.902C92.4976 137.649 91.8922 137.522 91.1376 137.522H88.1828V149.911H86.502ZM98.6163 149.911V136.031H103.306C104.39 136.031 105.281 136.216 105.976 136.587C106.672 136.953 107.187 137.457 107.522 138.098C107.856 138.74 108.023 139.469 108.023 140.287C108.023 141.105 107.856 141.83 107.522 142.463C107.187 143.095 106.674 143.592 105.983 143.954C105.292 144.311 104.409 144.489 103.333 144.489H99.538V142.971H103.279C104.02 142.971 104.616 142.863 105.068 142.646C105.525 142.429 105.854 142.122 106.058 141.724C106.265 141.322 106.369 140.843 106.369 140.287C106.369 139.732 106.265 139.246 106.058 138.83C105.85 138.414 105.518 138.094 105.061 137.868C104.605 137.637 104.002 137.522 103.252 137.522H100.297V149.911H98.6163ZM105.15 143.676L108.565 149.911H106.613L103.252 143.676H105.15ZM122.535 142.971C122.535 144.435 122.27 145.7 121.742 146.766C121.213 147.833 120.488 148.655 119.566 149.233C118.645 149.811 117.592 150.101 116.408 150.101C115.224 150.101 114.172 149.811 113.25 149.233C112.328 148.655 111.603 147.833 111.074 146.766C110.546 145.7 110.282 144.435 110.282 142.971C110.282 141.507 110.546 140.242 111.074 139.176C111.603 138.11 112.328 137.287 113.25 136.709C114.172 136.131 115.224 135.841 116.408 135.841C117.592 135.841 118.645 136.131 119.566 136.709C120.488 137.287 121.213 138.11 121.742 139.176C122.27 140.242 122.535 141.507 122.535 142.971ZM120.908 142.971C120.908 141.769 120.707 140.755 120.305 139.928C119.907 139.101 119.368 138.475 118.685 138.051C118.008 137.626 117.249 137.414 116.408 137.414C115.568 137.414 114.806 137.626 114.124 138.051C113.446 138.475 112.907 139.101 112.504 139.928C112.107 140.755 111.908 141.769 111.908 142.971C111.908 144.173 112.107 145.187 112.504 146.014C112.907 146.841 113.446 147.467 114.124 147.891C114.806 148.316 115.568 148.528 116.408 148.528C117.249 148.528 118.008 148.316 118.685 147.891C119.368 147.467 119.907 146.841 120.305 146.014C120.707 145.187 120.908 144.173 120.908 142.971ZM124.024 137.522V136.031H134.434V137.522H130.069V149.911H128.389V137.522H124.024ZM137.028 149.911V136.031H145.404V137.522H138.709V142.212H144.971V143.703H138.709V148.42H145.513V149.911H137.028ZM159.603 140.369H157.922C157.822 139.885 157.649 139.46 157.4 139.094C157.156 138.729 156.858 138.421 156.505 138.173C156.158 137.92 155.771 137.73 155.347 137.603C154.922 137.477 154.479 137.414 154.018 137.414C153.178 137.414 152.417 137.626 151.734 138.051C151.057 138.475 150.517 139.101 150.115 139.928C149.717 140.755 149.518 141.769 149.518 142.971C149.518 144.173 149.717 145.187 150.115 146.014C150.517 146.841 151.057 147.467 151.734 147.891C152.417 148.316 153.178 148.528 154.018 148.528C154.479 148.528 154.922 148.465 155.347 148.339C155.771 148.212 156.158 148.025 156.505 147.776C156.858 147.523 157.156 147.214 157.4 146.848C157.649 146.477 157.822 146.052 157.922 145.573H159.603C159.476 146.283 159.246 146.918 158.911 147.478C158.577 148.038 158.161 148.515 157.664 148.908C157.167 149.296 156.609 149.592 155.99 149.796C155.376 149.999 154.719 150.101 154.018 150.101C152.834 150.101 151.782 149.811 150.86 149.233C149.938 148.655 149.213 147.833 148.685 146.766C148.156 145.7 147.892 144.435 147.892 142.971C147.892 141.507 148.156 140.242 148.685 139.176C149.213 138.11 149.938 137.287 150.86 136.709C151.782 136.131 152.834 135.841 154.018 135.841C154.719 135.841 155.376 135.943 155.99 136.146C156.609 136.35 157.167 136.648 157.664 137.041C158.161 137.43 158.577 137.904 158.911 138.464C159.246 139.02 159.476 139.655 159.603 140.369ZM153.313 149.965H154.642L154.533 150.507C154.886 150.562 155.209 150.708 155.502 150.948C155.796 151.192 155.943 151.578 155.943 152.107C155.943 152.69 155.701 153.164 155.218 153.53C154.739 153.9 154.032 154.086 153.097 154.086L153.042 153.028C153.462 153.028 153.81 152.961 154.086 152.825C154.366 152.694 154.506 152.473 154.506 152.161C154.506 151.849 154.391 151.637 154.161 151.524C153.93 151.411 153.557 151.334 153.042 151.293L153.313 149.965ZM162.888 149.911H161.126L166.222 136.031H167.957L173.054 149.911H171.292L167.144 138.227H167.036L162.888 149.911ZM163.538 144.489H170.641V145.98H163.538V144.489ZM165.002 134.649L163.755 134.594C163.755 133.903 163.952 133.338 164.345 132.9C164.743 132.457 165.233 132.236 165.816 132.236C166.073 132.236 166.301 132.281 166.5 132.371C166.699 132.457 166.889 132.557 167.069 132.67C167.25 132.783 167.435 132.884 167.625 132.975C167.819 133.061 168.039 133.103 168.283 133.103C168.54 133.103 168.757 133.004 168.933 132.805C169.114 132.602 169.204 132.358 169.204 132.073L170.424 132.182C170.424 132.887 170.225 133.447 169.828 133.862C169.435 134.278 168.947 134.486 168.364 134.486C168.052 134.486 167.795 134.443 167.591 134.357C167.388 134.267 167.207 134.165 167.049 134.052C166.891 133.939 166.724 133.84 166.548 133.754C166.371 133.664 166.154 133.618 165.897 133.618C165.639 133.618 165.425 133.72 165.253 133.923C165.086 134.122 165.002 134.364 165.002 134.649ZM186.274 142.971C186.274 144.435 186.01 145.7 185.481 146.766C184.953 147.833 184.228 148.655 183.306 149.233C182.384 149.811 181.331 150.101 180.148 150.101C178.964 150.101 177.911 149.811 176.99 149.233C176.068 148.655 175.343 147.833 174.814 146.766C174.285 145.7 174.021 144.435 174.021 142.971C174.021 141.507 174.285 140.242 174.814 139.176C175.343 138.11 176.068 137.287 176.99 136.709C177.911 136.131 178.964 135.841 180.148 135.841C181.331 135.841 182.384 136.131 183.306 136.709C184.228 137.287 184.953 138.11 185.481 139.176C186.01 140.242 186.274 141.507 186.274 142.971ZM184.648 142.971C184.648 141.769 184.447 140.755 184.045 139.928C183.647 139.101 183.107 138.475 182.425 138.051C181.747 137.626 180.988 137.414 180.148 137.414C179.307 137.414 178.546 137.626 177.864 138.051C177.186 138.475 176.646 139.101 176.244 139.928C175.846 140.755 175.648 141.769 175.648 142.971C175.648 144.173 175.846 145.187 176.244 146.014C176.646 146.841 177.186 147.467 177.864 147.891C178.546 148.316 179.307 148.528 180.148 148.528C180.988 148.528 181.747 148.316 182.425 147.891C183.107 147.467 183.647 146.841 184.045 146.014C184.447 145.187 184.648 144.173 184.648 142.971ZM196.149 136.031V149.911H194.468V136.031H196.149ZM210.525 136.031V149.911H208.898L201.335 139.013H201.199V149.911H199.519V136.031H201.145L208.736 146.956H208.871V136.031H210.525ZM213.129 137.522V136.031H223.539V137.522H219.174V149.911H217.493V137.522H213.129ZM226.133 149.911V136.031H234.509V137.522H227.813V142.212H234.076V143.703H227.813V148.42H234.618V149.911H226.133ZM237.539 149.911V136.031H239.219V148.42H245.671V149.911H237.539ZM249.955 136.031V149.911H248.274V136.031H249.955ZM262.813 140.369C262.664 139.912 262.467 139.503 262.223 139.142C261.984 138.776 261.697 138.464 261.362 138.207C261.032 137.949 260.657 137.753 260.237 137.617C259.817 137.481 259.356 137.414 258.855 137.414C258.032 137.414 257.285 137.626 256.611 138.051C255.938 138.475 255.403 139.101 255.005 139.928C254.608 140.755 254.409 141.769 254.409 142.971C254.409 144.173 254.61 145.187 255.012 146.014C255.414 146.841 255.959 147.467 256.645 147.891C257.332 148.316 258.105 148.528 258.963 148.528C259.758 148.528 260.459 148.359 261.064 148.02C261.674 147.677 262.148 147.193 262.487 146.57C262.831 145.942 263.002 145.203 263.002 144.354L263.517 144.462H259.343V142.971H264.629V144.462C264.629 145.605 264.385 146.599 263.897 147.444C263.414 148.289 262.745 148.944 261.891 149.409C261.042 149.87 260.066 150.101 258.963 150.101C257.734 150.101 256.654 149.811 255.724 149.233C254.797 148.655 254.075 147.833 253.555 146.766C253.04 145.7 252.782 144.435 252.782 142.971C252.782 141.873 252.929 140.886 253.223 140.009C253.521 139.128 253.941 138.378 254.483 137.759C255.026 137.14 255.667 136.666 256.408 136.336C257.149 136.006 257.965 135.841 258.855 135.841C259.587 135.841 260.269 135.952 260.901 136.173C261.539 136.39 262.106 136.7 262.603 137.102C263.104 137.5 263.522 137.976 263.856 138.532C264.191 139.083 264.421 139.695 264.548 140.369H262.813ZM267.508 149.911V136.031H275.884V137.522H269.188V142.212H275.45V143.703H269.188V148.42H275.993V149.911H267.508ZM289.92 136.031V149.911H288.293L280.73 139.013H280.594V149.911H278.914V136.031H280.54L288.131 146.956H288.266V136.031H289.92ZM292.524 137.522V136.031H302.934V137.522H298.569V149.911H296.888V137.522H292.524ZM305.528 149.911V136.031H313.904V137.522H307.208V142.212H313.471V143.703H307.208V148.42H314.013V149.911H305.528Z" fill="#050A30"/>
<path d="M107.2 55.91C105.65 55.4 104.11 54.84 102.53 54.4C97.2501 52.92 91.8701 52.5 86.4201 53.1C80.7501 53.72 75.4201 55.4 70.4101 58.13C64.7501 61.22 60.0901 65.44 56.3501 70.68C55.7601 71.51 53.2701 74.99 50.6001 81.49C49.9001 83.72 49.1401 85.95 48.8201 88.28C48.6801 89.3 48.0901 89.47 47.2001 89.47C39.1401 89.45 31.0801 89.46 23.0201 89.46C21.1001 89.46 21.1001 89.46 21.1001 91.43C21.1001 94.16 21.0101 96.9 21.1301 99.63C21.2301 101.86 19.6101 103.91 17.0001 103.98C14.4101 104.04 11.8101 104.06 9.22007 103.98C6.64007 103.9 5.10007 102.23 5.09007 99.66C5.08007 96.61 5.07007 93.56 5.10007 90.51C5.11007 89.71 4.85007 89.33 4.06007 89.11C1.61007 88.45 0.250074 86.66 0.240074 84.1C0.220074 76.88 0.180072 69.66 0.250072 62.44C0.300072 58.17 2.32007 54.9 5.80007 52.5C6.05007 52.33 6.38007 52.24 6.55007 51.79C4.58007 51.36 3.23007 50.12 2.25007 48.42C0.170072 44.83 2.26007 40 6.28007 38.93C8.33007 38.39 10.3901 38.63 12.4501 38.63C13.6301 38.63 14.1001 38.19 14.4101 37.1C15.3501 33.77 16.3001 30.43 17.4201 27.16C19.1701 22.06 22.8201 18.96 27.9601 17.52C29.2001 17.17 30.4401 17.13 31.7001 17.14C47.2901 17.15 62.8901 17.21 78.4801 17.11C84.5101 17.07 91.2201 21.12 92.9601 27.9C93.8001 31.18 94.9301 34.39 95.8601 37.65C96.0701 38.38 96.4401 38.59 97.1301 38.58C98.7101 38.56 100.29 38.64 101.86 38.56C105.17 38.4 108.07 41.21 108.5 44.03C109.05 47.57 107.1 50.65 103.72 51.65C103.59 51.69 103.47 51.75 103.14 51.88C104.85 52.97 106.19 54.23 107.34 55.68C107.28 55.79 107.28 55.79 107.2 55.91ZM54.8501 45.74C67.2201 45.74 79.5801 45.74 91.9501 45.74C93.3501 45.74 93.3501 45.73 92.9801 44.42C91.5801 39.51 90.0701 34.63 88.8001 29.69C87.4401 24.41 82.7001 21.5 77.9601 21.54C62.7601 21.66 47.5501 21.58 32.3501 21.6C31.1001 21.6 29.7801 21.57 28.6001 21.91C24.7101 23.03 22.2001 25.59 21.1201 29.55C19.8401 34.27 18.5101 38.98 17.1901 43.69C16.6101 45.75 16.5901 45.74 18.7101 45.74C30.7401 45.73 42.8001 45.73 54.8501 45.74ZM23.6201 66.61C24.0201 63.41 20.8001 60.25 17.4601 60.28C13.8301 60.32 11.0101 63.09 11.0101 66.63C11.0001 70.13 13.8401 73.03 17.3001 73.03C20.8001 73.04 23.8601 70.03 23.6201 66.61Z" fill="#04E63D"/>
</svg>
