<svg width="455" height="156" viewBox="0 0 455 156" fill="none" xmlns="http://www.w3.org/2000/svg">
<path d="M412.57 72.14C411.52 68.63 414.02 67.85 416.18 67.33C420.54 66.28 422.09 63.81 421.41 59.41C421.03 56.96 421.34 54.4 421.34 51.72C426.93 51.72 432.4 51.72 438.09 51.72C438.09 56.06 438.09 60.36 438.09 64.95C443.63 64.95 448.96 64.95 454.47 64.95C454.47 70.08 454.47 74.92 454.47 80.06C449.14 80.06 443.81 80.06 438.68 80.06C438.41 80.48 438.26 80.59 438.26 80.71C438.25 88.74 438.07 96.78 438.31 104.8C438.46 109.77 441.63 112.74 446.63 112.97C449.17 113.09 451.73 112.63 454.51 112.41C454.54 112.69 454.64 113.28 454.64 113.86C454.66 117 454.49 120.16 454.71 123.29C454.86 125.49 454.05 126.42 452 126.82C446.57 127.88 441.16 128.79 435.6 127.67C427.88 126.12 422.73 120.75 421.76 112.9C421.47 110.55 421.38 108.17 421.36 105.8C421.3 97.49 421.32 89.18 421.31 80.86C421.31 80.73 421.23 80.6 421.09 80.19C418.37 80.19 415.56 80.19 412.7 80.19C412.6 79.19 412.52 78.46 412.42 77.46C409.35 79.8 406.48 81.99 403.6 84.19C401.87 82.96 400.3 81.68 398.58 80.64C390.89 76.03 381.34 79.21 377.71 87.42C374.93 93.72 374.71 99.95 378.48 105.83C383.3 113.35 392.75 114.8 400.34 109.42C401.69 108.46 402.89 107.27 404.18 106.16C407.44 109.59 410.74 113.05 414.08 116.57C405.32 127.77 385.79 132.21 370.9 120.55C357.07 109.72 354.8 89.14 366.02 75.21C377.1 61.49 397.86 58.93 412.57 72.14Z" fill="white"/>
<path d="M355.35 103.4C341.03 103.4 326.8 103.4 312.54 103.4C313.45 107.7 321.03 112.84 327.21 113.35C333.51 113.87 339.58 112.74 345.62 110.4C347.51 113.91 349.35 117.32 351.24 120.83C346.28 124.32 340.9 126.17 335.19 126.96C324.6 128.44 314.74 126.6 306.14 119.85C289.16 106.54 290.26 80.69 308.28 68.8C326.39 56.85 349.66 65.79 355.2 86.8C356.66 92.31 356.91 97.78 355.35 103.4ZM339.39 90.32C338.41 83.67 331.88 78.34 325.12 78.6C318.83 78.84 312.19 84.66 311.78 90.32C320.98 90.32 330.18 90.32 339.39 90.32Z" fill="white"/>
<path d="M178.39 95.43C178.51 112.7 164.2 127.28 147.04 127.37C129.36 127.47 115.07 113.3 114.95 95.55C114.83 78.04 129.09 63.59 146.6 63.47C163.92 63.36 178.27 77.78 178.39 95.43ZM131.87 96.39C131.87 96.41 131.87 96.43 131.87 96.45C131.87 96.93 132.89 102.66 134.26 105.21C139.25 114.45 151.81 115.18 158.03 106.77C162.91 100.18 162.53 90.1 157.16 83.79C152.42 78.22 145.35 76.88 139.73 80.63C134.13 84.36 132 89.9 131.87 96.39Z" fill="white"/>
<path d="M196.15 125.9C190.35 125.9 184.92 125.9 179.35 125.9C179.35 105.65 179.35 85.49 179.35 65.09C183.99 65.09 188.51 65.06 193.03 65.14C193.47 65.15 194.01 65.82 194.32 66.3C194.98 67.34 195.52 68.46 196.12 69.57C198.4 68.49 200.48 67.37 202.67 66.51C211.38 63.09 226.51 65.47 232.25 76.98C234.24 80.96 234.92 85.19 234.93 89.56C234.97 101.16 234.95 112.76 234.95 124.35C234.95 124.82 234.83 125.29 234.75 125.86C229.18 125.86 223.7 125.86 217.98 125.86C217.98 125.01 217.98 124.26 217.98 123.52C217.98 112.62 217.99 101.72 217.97 90.82C217.96 85.23 215.62 81.92 210.82 80.59C205.46 79.1 199.89 80.96 197.49 85.38C196.64 86.95 196.22 88.95 196.2 90.76C196.08 101.66 196.14 112.56 196.14 123.46C196.15 124.22 196.15 124.98 196.15 125.9Z" fill="white"/>
<path d="M254.42 69.57C256.72 68.49 258.8 67.37 260.98 66.51C269.22 63.24 282.99 65.53 289.04 74.48C292.2 79.15 293.2 84.33 293.22 89.78C293.27 101.37 293.24 112.97 293.24 124.56C293.24 124.96 293.13 125.36 293.05 125.87C287.49 125.87 282.01 125.87 276.26 125.87C276.26 125.06 276.26 124.32 276.26 123.58C276.26 112.68 276.27 101.79 276.25 90.89C276.24 85.16 273.88 81.82 268.98 80.55C263.49 79.12 258.03 81.09 255.6 85.68C254.83 87.14 254.51 89.01 254.49 90.69C254.39 101.51 254.44 112.34 254.44 123.17C254.44 124 254.44 124.83 254.44 125.83C248.81 125.83 243.34 125.83 237.66 125.83C237.62 125.07 237.55 124.33 237.55 123.58C237.54 104.93 237.59 86.28 237.49 67.64C237.48 65.42 238.18 64.93 240.21 65.02C243.35 65.17 246.5 65.15 249.64 65.02C251.31 64.95 252.44 65.33 253.03 67.01C253.36 67.91 253.94 68.71 254.42 69.57Z" fill="white"/>
<path d="M105.18 105.9C108.66 109.54 111.92 112.96 115.23 116.42C108.71 125.44 93.9998 129.82 82.1998 126.02C68.8898 121.74 59.7798 109.21 59.8698 95.29C59.9498 81.68 69.1098 68.93 81.6498 64.96C94.3398 60.94 108.88 65.27 116.08 75.37C112.46 78.17 108.85 81.01 105.16 83.73C104.82 83.98 103.76 83.63 103.28 83.24C100.69 81.16 98.0298 79.31 94.6398 78.77C88.5798 77.82 83.7398 79.81 80.2798 84.84C76.7098 90.03 75.7598 95.75 77.5798 101.81C80.9598 113.05 94.4098 116.24 103.26 107.92C103.87 107.37 104.41 106.72 105.18 105.9Z" fill="white"/>
<path d="M102.03 0.570041C125.88 1.85004 144.96 21.59 145.46 45.55C145.49 47.19 145.22 48.68 143.3 48.71C141.38 48.73 141.08 47.18 141.01 45.59C140.35 30.6 133.65 19.06 121 11.04C115.17 7.34004 108.72 5.42004 101.81 5.10004C100.97 5.06004 100.14 4.99003 99.3099 4.90003C97.9599 4.76003 97.1299 3.87004 97.4299 2.66004C97.6299 1.86004 98.5499 1.02003 99.3599 0.650028C100.1 0.310028 101.13 0.570041 102.03 0.570041Z" fill="white"/>
<path d="M132.56 45.16C132.56 45.03 132.55 45.24 132.56 45.45C132.67 47.04 132.42 48.62 130.52 48.72C128.62 48.82 128.27 47.35 128.19 45.71C127.39 29.33 114.4 18.05 99.9899 17.87C98.4599 17.85 97.3299 17.27 97.3499 15.6C97.3699 13.75 98.7099 13.32 100.25 13.4C112.51 14.05 121.93 19.54 128.23 30.13C130.92 34.63 132.35 39.56 132.56 45.16Z" fill="white"/>
<path d="M119.72 45.74C119.89 47.2 119.38 48.56 117.69 48.7C115.99 48.84 115.4 47.63 115.27 45.99C114.58 37.3 108.71 31.45 100.09 30.81C98.5001 30.69 97.2601 30.21 97.3701 28.4C97.4901 26.54 98.9101 26.34 100.42 26.38C110.51 26.6 119.34 35.39 119.72 45.74Z" fill="white"/>
<path d="M86.5015 150.105V136.226H91.1914C92.2802 136.226 93.1703 136.422 93.8616 136.815C94.5574 137.204 95.0724 137.73 95.4068 138.394C95.7411 139.058 95.9083 139.799 95.9083 140.617C95.9083 141.435 95.7411 142.178 95.4068 142.847C95.077 143.516 94.5664 144.049 93.8751 144.446C93.1839 144.839 92.2983 145.036 91.2185 145.036H87.857V143.545H91.1643C91.9098 143.545 92.5084 143.416 92.9602 143.159C93.412 142.901 93.7396 142.553 93.9429 142.115C94.1507 141.672 94.2547 141.173 94.2547 140.617C94.2547 140.061 94.1507 139.564 93.9429 139.126C93.7396 138.688 93.4098 138.345 92.9534 138.096C92.4971 137.843 91.8917 137.716 91.1372 137.716H88.1823V150.105H86.5015ZM98.6158 150.105V136.226H103.306C104.39 136.226 105.28 136.411 105.976 136.781C106.672 137.147 107.187 137.651 107.521 138.293C107.855 138.934 108.023 139.664 108.023 140.482C108.023 141.299 107.855 142.025 107.521 142.657C107.187 143.29 106.674 143.787 105.983 144.148C105.291 144.505 104.408 144.683 103.333 144.683H99.5375V143.165H103.279C104.019 143.165 104.616 143.057 105.068 142.84C105.524 142.623 105.854 142.316 106.057 141.918C106.265 141.516 106.369 141.037 106.369 140.482C106.369 139.926 106.265 139.44 106.057 139.024C105.849 138.609 105.517 138.288 105.061 138.062C104.605 137.832 104.001 137.716 103.251 137.716H100.297V150.105H98.6158ZM105.149 143.87L108.565 150.105H106.613L103.251 143.87H105.149ZM122.534 143.165C122.534 144.629 122.27 145.894 121.741 146.961C121.213 148.027 120.488 148.849 119.566 149.428C118.644 150.006 117.591 150.295 116.408 150.295C115.224 150.295 114.171 150.006 113.249 149.428C112.328 148.849 111.603 148.027 111.074 146.961C110.545 145.894 110.281 144.629 110.281 143.165C110.281 141.701 110.545 140.436 111.074 139.37C111.603 138.304 112.328 137.482 113.249 136.903C114.171 136.325 115.224 136.036 116.408 136.036C117.591 136.036 118.644 136.325 119.566 136.903C120.488 137.482 121.213 138.304 121.741 139.37C122.27 140.436 122.534 141.701 122.534 143.165ZM120.908 143.165C120.908 141.964 120.707 140.949 120.305 140.122C119.907 139.296 119.367 138.67 118.685 138.245C118.007 137.82 117.248 137.608 116.408 137.608C115.567 137.608 114.806 137.82 114.124 138.245C113.446 138.67 112.906 139.296 112.504 140.122C112.106 140.949 111.908 141.964 111.908 143.165C111.908 144.367 112.106 145.382 112.504 146.208C112.906 147.035 113.446 147.661 114.124 148.086C114.806 148.51 115.567 148.723 116.408 148.723C117.248 148.723 118.007 148.51 118.685 148.086C119.367 147.661 119.907 147.035 120.305 146.208C120.707 145.382 120.908 144.367 120.908 143.165ZM124.024 137.716V136.226H134.433V137.716H130.069V150.105H128.388V137.716H124.024ZM137.027 150.105V136.226H145.404V137.716H138.708V142.406H144.97V143.897H138.708V148.614H145.512V150.105H137.027ZM159.602 140.563H157.921C157.822 140.079 157.648 139.655 157.4 139.289C157.156 138.923 156.857 138.616 156.505 138.367C156.157 138.114 155.771 137.924 155.346 137.798C154.921 137.671 154.479 137.608 154.018 137.608C153.177 137.608 152.416 137.82 151.734 138.245C151.056 138.67 150.516 139.296 150.114 140.122C149.716 140.949 149.518 141.964 149.518 143.165C149.518 144.367 149.716 145.382 150.114 146.208C150.516 147.035 151.056 147.661 151.734 148.086C152.416 148.51 153.177 148.723 154.018 148.723C154.479 148.723 154.921 148.659 155.346 148.533C155.771 148.406 156.157 148.219 156.505 147.97C156.857 147.717 157.156 147.408 157.4 147.042C157.648 146.671 157.822 146.247 157.921 145.768H159.602C159.476 146.477 159.245 147.112 158.911 147.672C158.577 148.232 158.161 148.709 157.664 149.102C157.167 149.491 156.609 149.787 155.99 149.99C155.375 150.193 154.718 150.295 154.018 150.295C152.834 150.295 151.781 150.006 150.86 149.428C149.938 148.849 149.213 148.027 148.684 146.961C148.155 145.894 147.891 144.629 147.891 143.165C147.891 141.701 148.155 140.436 148.684 139.37C149.213 138.304 149.938 137.482 150.86 136.903C151.781 136.325 152.834 136.036 154.018 136.036C154.718 136.036 155.375 136.137 155.99 136.341C156.609 136.544 157.167 136.842 157.664 137.235C158.161 137.624 158.577 138.098 158.911 138.659C159.245 139.214 159.476 139.849 159.602 140.563ZM153.313 150.159H154.641L154.533 150.702C154.885 150.756 155.208 150.903 155.502 151.142C155.796 151.386 155.942 151.772 155.942 152.301C155.942 152.884 155.701 153.358 155.217 153.724C154.738 154.095 154.031 154.28 153.096 154.28L153.042 153.223C153.462 153.223 153.81 153.155 154.085 153.019C154.366 152.888 154.506 152.667 154.506 152.355C154.506 152.044 154.39 151.831 154.16 151.718C153.93 151.605 153.557 151.528 153.042 151.488L153.313 150.159ZM162.887 150.105H161.125L166.222 136.226H167.957L173.053 150.105H171.291L167.143 138.421H167.035L162.887 150.105ZM163.538 144.683H170.641V146.174H163.538V144.683ZM165.002 134.843L163.755 134.789C163.755 134.097 163.951 133.533 164.344 133.094C164.742 132.652 165.232 132.43 165.815 132.43C166.073 132.43 166.301 132.475 166.5 132.566C166.698 132.652 166.888 132.751 167.069 132.864C167.25 132.977 167.435 133.079 167.625 133.169C167.819 133.255 168.038 133.298 168.282 133.298C168.54 133.298 168.756 133.198 168.933 133C169.113 132.796 169.204 132.552 169.204 132.268L170.424 132.376C170.424 133.081 170.225 133.641 169.827 134.057C169.434 134.472 168.946 134.68 168.363 134.68C168.052 134.68 167.794 134.637 167.591 134.552C167.387 134.461 167.207 134.36 167.049 134.247C166.89 134.134 166.723 134.034 166.547 133.948C166.371 133.858 166.154 133.813 165.896 133.813C165.639 133.813 165.424 133.914 165.253 134.118C165.085 134.317 165.002 134.558 165.002 134.843ZM186.274 143.165C186.274 144.629 186.01 145.894 185.481 146.961C184.952 148.027 184.227 148.849 183.305 149.428C182.384 150.006 181.331 150.295 180.147 150.295C178.963 150.295 177.911 150.006 176.989 149.428C176.067 148.849 175.342 148.027 174.814 146.961C174.285 145.894 174.021 144.629 174.021 143.165C174.021 141.701 174.285 140.436 174.814 139.37C175.342 138.304 176.067 137.482 176.989 136.903C177.911 136.325 178.963 136.036 180.147 136.036C181.331 136.036 182.384 136.325 183.305 136.903C184.227 137.482 184.952 138.304 185.481 139.37C186.01 140.436 186.274 141.701 186.274 143.165ZM184.647 143.165C184.647 141.964 184.446 140.949 184.044 140.122C183.647 139.296 183.107 138.67 182.424 138.245C181.747 137.82 180.988 137.608 180.147 137.608C179.307 137.608 178.546 137.82 177.863 138.245C177.186 138.67 176.646 139.296 176.244 140.122C175.846 140.949 175.647 141.964 175.647 143.165C175.647 144.367 175.846 145.382 176.244 146.208C176.646 147.035 177.186 147.661 177.863 148.086C178.546 148.51 179.307 148.723 180.147 148.723C180.988 148.723 181.747 148.51 182.424 148.086C183.107 147.661 183.647 147.035 184.044 146.208C184.446 145.382 184.647 144.367 184.647 143.165ZM196.148 136.226V150.105H194.467V136.226H196.148ZM210.524 136.226V150.105H208.898L201.334 139.207H201.199V150.105H199.518V136.226H201.145L208.735 147.15H208.871V136.226H210.524ZM213.128 137.716V136.226H223.538V137.716H219.174V150.105H217.493V137.716H213.128ZM226.132 150.105V136.226H234.509V137.716H227.813V142.406H234.075V143.897H227.813V148.614H234.617V150.105H226.132ZM237.538 150.105V136.226H239.219V148.614H245.671V150.105H237.538ZM249.954 136.226V150.105H248.273V136.226H249.954ZM262.812 140.563C262.663 140.107 262.467 139.698 262.223 139.336C261.983 138.97 261.696 138.659 261.362 138.401C261.032 138.143 260.657 137.947 260.237 137.811C259.817 137.676 259.356 137.608 258.854 137.608C258.032 137.608 257.284 137.82 256.611 138.245C255.938 138.67 255.402 139.296 255.005 140.122C254.607 140.949 254.408 141.964 254.408 143.165C254.408 144.367 254.609 145.382 255.012 146.208C255.414 147.035 255.958 147.661 256.645 148.086C257.332 148.51 258.104 148.723 258.963 148.723C259.758 148.723 260.458 148.553 261.064 148.214C261.674 147.871 262.148 147.388 262.487 146.764C262.83 146.136 263.002 145.397 263.002 144.548L263.517 144.656H259.342V143.165H264.628V144.656C264.628 145.799 264.384 146.793 263.896 147.638C263.413 148.483 262.744 149.138 261.89 149.604C261.041 150.065 260.065 150.295 258.963 150.295C257.734 150.295 256.654 150.006 255.723 149.428C254.797 148.849 254.074 148.027 253.554 146.961C253.039 145.894 252.782 144.629 252.782 143.165C252.782 142.067 252.929 141.08 253.222 140.204C253.521 139.323 253.941 138.573 254.483 137.954C255.025 137.335 255.667 136.86 256.408 136.53C257.149 136.201 257.964 136.036 258.854 136.036C259.586 136.036 260.268 136.146 260.901 136.368C261.538 136.585 262.105 136.894 262.602 137.296C263.104 137.694 263.521 138.171 263.856 138.726C264.19 139.278 264.421 139.89 264.547 140.563H262.812ZM267.507 150.105V136.226H275.884V137.716H269.188V142.406H275.45V143.897H269.188V148.614H275.992V150.105H267.507ZM289.919 136.226V150.105H288.293L280.729 139.207H280.594V150.105H278.913V136.226H280.54L288.13 147.15H288.266V136.226H289.919ZM292.523 137.716V136.226H302.933V137.716H298.569V150.105H296.888V137.716H292.523ZM305.527 150.105V136.226H313.904V137.716H307.208V142.406H313.47V143.897H307.208V148.614H314.012V150.105H305.527Z" fill="white"/>
<path d="M107.2 56.1C105.65 55.59 104.11 55.03 102.53 54.59C97.2501 53.11 91.8701 52.69 86.4201 53.29C80.7501 53.91 75.4201 55.59 70.4101 58.32C64.7501 61.41 60.0901 65.63 56.3501 70.87C55.7601 71.7 53.2701 75.18 50.6001 81.68C49.9001 83.91 49.1401 86.14 48.8201 88.47C48.6801 89.49 48.0901 89.66 47.2001 89.66C39.1401 89.64 31.0801 89.65 23.0201 89.65C21.1001 89.65 21.1001 89.65 21.1001 91.62C21.1001 94.35 21.0101 97.09 21.1301 99.82C21.2301 102.05 19.6101 104.1 17.0001 104.17C14.4101 104.23 11.8101 104.25 9.22007 104.17C6.64007 104.09 5.10007 102.42 5.09007 99.85C5.08007 96.8 5.07007 93.75 5.10007 90.7C5.11007 89.9 4.85007 89.52 4.06007 89.3C1.61007 88.64 0.250074 86.85 0.240074 84.29C0.220074 77.07 0.180072 69.85 0.250072 62.63C0.300072 58.36 2.32007 55.09 5.80007 52.69C6.05007 52.52 6.38007 52.43 6.55007 51.98C4.58007 51.55 3.23007 50.31 2.25007 48.61C0.170072 45.02 2.26007 40.19 6.28007 39.12C8.33007 38.58 10.3901 38.82 12.4501 38.82C13.6301 38.82 14.1001 38.38 14.4101 37.29C15.3501 33.96 16.3001 30.62 17.4201 27.35C19.1701 22.25 22.8201 19.15 27.9601 17.71C29.2001 17.36 30.4401 17.32 31.7001 17.33C47.2901 17.34 62.8901 17.4 78.4801 17.3C84.5101 17.26 91.2201 21.31 92.9601 28.09C93.8001 31.37 94.9301 34.58 95.8601 37.84C96.0701 38.57 96.4401 38.78 97.1301 38.77C98.7101 38.75 100.29 38.83 101.86 38.75C105.17 38.59 108.07 41.4 108.5 44.22C109.05 47.76 107.1 50.84 103.72 51.84C103.59 51.88 103.47 51.94 103.14 52.07C104.85 53.16 106.19 54.42 107.34 55.87C107.28 55.99 107.28 55.98 107.2 56.1ZM54.8501 45.93C67.2201 45.93 79.5801 45.93 91.9501 45.93C93.3501 45.93 93.3501 45.92 92.9801 44.61C91.5801 39.7 90.0701 34.82 88.8001 29.88C87.4401 24.6 82.7001 21.69 77.9601 21.73C62.7601 21.85 47.5501 21.77 32.3501 21.79C31.1001 21.79 29.7801 21.76 28.6001 22.1C24.7101 23.22 22.2001 25.78 21.1201 29.74C19.8401 34.46 18.5101 39.17 17.1901 43.88C16.6101 45.94 16.5901 45.93 18.7101 45.93C30.7401 45.93 42.8001 45.93 54.8501 45.93ZM23.6201 66.81C24.0201 63.61 20.8001 60.45 17.4601 60.48C13.8301 60.52 11.0101 63.29 11.0101 66.83C11.0001 70.33 13.8401 73.23 17.3001 73.23C20.8001 73.23 23.8601 70.23 23.6201 66.81Z" fill="#04E63D"/>
</svg>
