<svg width="455" height="156" viewBox="0 0 455 156" fill="none" xmlns="http://www.w3.org/2000/svg">
<path d="M412.57 72.0601C411.52 68.5501 414.02 67.7701 416.18 67.2501C420.54 66.2001 422.09 63.7301 421.41 59.3301C421.03 56.8801 421.34 54.3201 421.34 51.6401C426.93 51.6401 432.4 51.6401 438.09 51.6401C438.09 55.9801 438.09 60.2801 438.09 64.8701C443.63 64.8701 448.96 64.8701 454.47 64.8701C454.47 70.0001 454.47 74.8401 454.47 79.9801C449.14 79.9801 443.81 79.9801 438.68 79.9801C438.41 80.4001 438.26 80.5101 438.26 80.6301C438.25 88.6601 438.07 96.7001 438.31 104.72C438.46 109.69 441.63 112.66 446.63 112.89C449.17 113.01 451.73 112.55 454.51 112.33C454.54 112.61 454.64 113.2 454.64 113.78C454.66 116.92 454.49 120.08 454.71 123.21C454.86 125.41 454.05 126.34 452 126.74C446.57 127.8 441.16 128.71 435.6 127.59C427.88 126.04 422.73 120.67 421.76 112.82C421.47 110.47 421.38 108.09 421.36 105.72C421.3 97.4101 421.32 89.1001 421.31 80.7801C421.31 80.6501 421.23 80.5201 421.09 80.1101C418.37 80.1101 415.56 80.1101 412.7 80.1101C412.6 79.1101 412.52 78.3801 412.42 77.3801C409.35 79.7201 406.48 81.9101 403.6 84.1101C401.87 82.8801 400.3 81.6001 398.58 80.5601C390.89 75.9501 381.34 79.1301 377.71 87.3401C374.93 93.6401 374.71 99.8701 378.48 105.75C383.3 113.27 392.75 114.72 400.34 109.34C401.69 108.38 402.89 107.19 404.18 106.08C407.44 109.51 410.74 112.97 414.08 116.49C405.32 127.69 385.79 132.13 370.9 120.47C357.07 109.64 354.8 89.0601 366.02 75.1301C377.1 61.4101 397.86 58.8501 412.57 72.0601Z" fill="white"/>
<path d="M355.35 103.32C341.03 103.32 326.8 103.32 312.54 103.32C313.45 107.62 321.03 112.76 327.21 113.27C333.51 113.79 339.58 112.66 345.62 110.32C347.51 113.83 349.35 117.24 351.24 120.75C346.28 124.24 340.9 126.09 335.19 126.88C324.6 128.36 314.74 126.52 306.14 119.77C289.16 106.46 290.26 80.6099 308.28 68.7199C326.39 56.7699 349.66 65.7099 355.2 86.7199C356.66 92.2299 356.91 97.6999 355.35 103.32ZM339.39 90.2399C338.41 83.5899 331.88 78.2599 325.12 78.5199C318.83 78.7599 312.19 84.5799 311.78 90.2399C320.98 90.2399 330.18 90.2399 339.39 90.2399Z" fill="white"/>
<path d="M178.39 95.35C178.51 112.62 164.2 127.2 147.04 127.29C129.36 127.39 115.07 113.22 114.95 95.47C114.83 77.96 129.09 63.51 146.6 63.39C163.92 63.28 178.27 77.7 178.39 95.35ZM131.87 96.31C131.87 96.33 131.87 96.35 131.87 96.37C131.87 96.85 132.89 102.58 134.26 105.13C139.25 114.37 151.81 115.1 158.03 106.69C162.91 100.1 162.53 90.02 157.16 83.71C152.42 78.14 145.35 76.8 139.73 80.55C134.13 84.28 132 89.82 131.87 96.31Z" fill="white"/>
<path d="M196.15 125.82C190.35 125.82 184.92 125.82 179.35 125.82C179.35 105.57 179.35 85.4101 179.35 65.0101C183.99 65.0101 188.51 64.9801 193.03 65.0601C193.47 65.0701 194.01 65.7401 194.32 66.2201C194.98 67.2601 195.52 68.3801 196.12 69.4901C198.4 68.4101 200.48 67.2901 202.67 66.4301C211.38 63.0101 226.51 65.3901 232.25 76.9001C234.24 80.8801 234.92 85.1101 234.93 89.4801C234.97 101.08 234.95 112.68 234.95 124.27C234.95 124.74 234.83 125.21 234.75 125.78C229.18 125.78 223.7 125.78 217.98 125.78C217.98 124.93 217.98 124.18 217.98 123.44C217.98 112.54 217.99 101.64 217.97 90.7401C217.96 85.1501 215.62 81.8401 210.82 80.5101C205.46 79.0201 199.89 80.8801 197.49 85.3001C196.64 86.8701 196.22 88.8701 196.2 90.6801C196.08 101.58 196.14 112.48 196.14 123.38C196.15 124.14 196.15 124.9 196.15 125.82Z" fill="white"/>
<path d="M254.42 69.4899C256.72 68.4099 258.8 67.2899 260.98 66.4299C269.22 63.1599 282.99 65.4499 289.04 74.3999C292.2 79.0699 293.2 84.2499 293.22 89.6999C293.27 101.29 293.24 112.89 293.24 124.48C293.24 124.88 293.13 125.28 293.05 125.79C287.49 125.79 282.01 125.79 276.26 125.79C276.26 124.98 276.26 124.24 276.26 123.5C276.26 112.6 276.27 101.71 276.25 90.8099C276.24 85.0799 273.88 81.7399 268.98 80.4699C263.49 79.0399 258.03 81.0099 255.6 85.5999C254.83 87.0599 254.51 88.9299 254.49 90.6099C254.39 101.43 254.44 112.26 254.44 123.09C254.44 123.92 254.44 124.75 254.44 125.75C248.81 125.75 243.34 125.75 237.66 125.75C237.62 124.99 237.55 124.25 237.55 123.5C237.54 104.85 237.59 86.1999 237.49 67.5599C237.48 65.3399 238.18 64.8499 240.21 64.9399C243.35 65.0899 246.5 65.0699 249.64 64.9399C251.31 64.8699 252.44 65.2499 253.03 66.9299C253.36 67.8299 253.94 68.6299 254.42 69.4899Z" fill="white"/>
<path d="M105.18 105.82C108.66 109.46 111.92 112.88 115.23 116.34C108.71 125.36 93.9998 129.74 82.1998 125.94C68.8898 121.66 59.7798 109.13 59.8698 95.2101C59.9498 81.6001 69.1098 68.8501 81.6498 64.8801C94.3398 60.8601 108.88 65.1901 116.08 75.2901C112.46 78.0901 108.85 80.9301 105.16 83.6501C104.82 83.9001 103.76 83.5501 103.28 83.1601C100.69 81.0801 98.0298 79.2301 94.6398 78.6901C88.5798 77.7401 83.7398 79.7301 80.2798 84.7601C76.7098 89.9501 75.7598 95.6701 77.5798 101.73C80.9598 112.97 94.4098 116.16 103.26 107.84C103.87 107.29 104.41 106.64 105.18 105.82Z" fill="white"/>
<path d="M102.03 0.490065C125.88 1.77007 144.96 21.5101 145.46 45.4701C145.49 47.1101 145.22 48.6001 143.3 48.6301C141.38 48.6501 141.08 47.1001 141.01 45.5101C140.35 30.5201 133.65 18.9801 121 10.9601C115.17 7.26007 108.72 5.34006 101.81 5.02006C100.97 4.98006 100.14 4.91008 99.3099 4.82008C97.9599 4.68008 97.1299 3.79006 97.4299 2.58006C97.6299 1.78006 98.5499 0.940082 99.3599 0.570082C100.1 0.230082 101.13 0.490065 102.03 0.490065Z" fill="white"/>
<path d="M132.56 45.08C132.56 44.95 132.55 45.16 132.56 45.37C132.67 46.96 132.42 48.5401 130.52 48.6401C128.62 48.7401 128.27 47.27 128.19 45.63C127.39 29.25 114.4 17.9701 99.9899 17.7901C98.4599 17.7701 97.3299 17.19 97.3499 15.52C97.3699 13.67 98.7099 13.24 100.25 13.32C112.51 13.97 121.93 19.46 128.23 30.05C130.92 34.55 132.35 39.48 132.56 45.08Z" fill="white"/>
<path d="M119.72 45.6601C119.89 47.1201 119.38 48.48 117.69 48.62C115.99 48.76 115.4 47.5501 115.27 45.9101C114.58 37.2201 108.71 31.3701 100.09 30.7301C98.5001 30.6101 97.2601 30.1301 97.3701 28.3201C97.4901 26.4601 98.9101 26.26 100.42 26.3C110.51 26.52 119.34 35.3101 119.72 45.6601Z" fill="white"/>
<path d="M97.7999 142.5C97.7999 145.44 95.6199 147.25 92.1099 147.25H89.0899V151.11H86.6099V137.75H92.1099C95.6299 137.75 97.7999 139.54 97.7999 142.5ZM95.2999 142.5C95.2999 140.82 94.1699 139.85 91.9999 139.85H89.0999V145.16H91.9999C94.1699 145.15 95.2999 144.18 95.2999 142.5Z" fill="white"/>
<path d="M113.89 151.11L111.16 147.2C110.99 147.22 110.82 147.22 110.64 147.22H107.62V151.11H105.14V137.75H110.64C114.15 137.75 116.33 139.54 116.33 142.5C116.33 144.52 115.3 146.01 113.49 146.72L116.56 151.11H113.89ZM110.53 139.85H107.63V145.18H110.53C112.71 145.18 113.83 144.19 113.83 142.51C113.83 140.83 112.71 139.85 110.53 139.85Z" fill="white"/>
<path d="M123.01 144.43C123.01 140.48 126.06 137.56 130.21 137.56C134.35 137.56 137.41 140.46 137.41 144.43C137.41 148.4 134.36 151.3 130.21 151.3C126.06 151.3 123.01 148.38 123.01 144.43ZM134.9 144.43C134.9 141.7 132.9 139.73 130.2 139.73C127.51 139.73 125.5 141.7 125.5 144.43C125.5 147.16 127.5 149.13 130.2 149.13C132.9 149.13 134.9 147.16 134.9 144.43Z" fill="white"/>
<path d="M147.42 139.85H142.99V137.75H154.33V139.85H149.9V151.11H147.42V139.85Z" fill="white"/>
<path d="M171.09 149.03V151.11H161.07V137.75H170.82V139.83H163.55V143.3H170V145.34H163.55V149.02H171.09V149.03Z" fill="white"/>
<path d="M188.55 147.54L190.15 149.07C188.95 150.46 187.17 151.25 185.07 151.3L184.88 152.05C186.01 152.18 186.54 152.83 186.54 153.65C186.54 154.76 185.51 155.46 183.94 155.46C183.25 155.46 182.66 155.33 182.18 155.06L182.62 153.93C183.02 154.14 183.44 154.24 183.92 154.24C184.63 154.24 184.93 153.97 184.93 153.55C184.93 153.19 184.64 152.92 183.92 152.92H183.33L183.77 151.24C180.24 150.78 177.7 148.05 177.7 144.43C177.7 140.44 180.75 137.56 184.86 137.56C187.04 137.56 188.91 138.34 190.15 139.79L188.55 141.3C187.58 140.25 186.37 139.73 184.98 139.73C182.21 139.73 180.21 141.68 180.21 144.43C180.21 147.18 182.21 149.13 184.98 149.13C186.37 149.13 187.57 148.61 188.55 147.54Z" fill="white"/>
<path d="M205.78 148.02H199.1L197.78 151.11H195.22L201.23 137.75H203.67L209.7 151.11H207.1L205.78 148.02ZM200.3 136.55H199.02C199.06 134.98 199.86 133.99 201.08 133.99C202.34 133.99 202.99 135.25 203.68 135.25C204.21 135.25 204.58 134.85 204.62 134.16H205.9C205.86 135.65 205.06 136.66 203.84 136.66C202.58 136.66 201.93 135.4 201.24 135.4C200.7 135.4 200.34 135.82 200.3 136.55ZM204.96 146.07L202.44 140.23L199.94 146.07H204.96Z" fill="white"/>
<path d="M215.13 144.43C215.13 140.48 218.18 137.56 222.33 137.56C226.47 137.56 229.53 140.46 229.53 144.43C229.53 148.4 226.48 151.3 222.33 151.3C218.18 151.3 215.13 148.38 215.13 144.43ZM227.02 144.43C227.02 141.7 225.02 139.73 222.32 139.73C219.63 139.73 217.62 141.7 217.62 144.43C217.62 147.16 219.62 149.13 222.32 149.13C225.02 149.13 227.02 147.16 227.02 144.43Z" fill="white"/>
<path d="M247.15 137.75H249.63V151.11H247.15V137.75Z" fill="white"/>
<path d="M269.98 137.75V151.11H267.94L260.57 142.06V151.11H258.11V137.75H260.15L267.52 146.8V137.75H269.98Z" fill="white"/>
<path d="M281.14 139.85H276.71V137.75H288.05V139.85H283.62V151.11H281.14V139.85Z" fill="white"/>
<path d="M304.81 149.03V151.11H294.79V137.75H304.54V139.83H297.27V143.3H303.72V145.34H297.27V149.02H304.81V149.03Z" fill="white"/>
<path d="M312.44 137.75H314.92V149.01H321.91V151.11H312.44V137.75Z" fill="white"/>
<path d="M328.74 137.75H331.22V151.11H328.74V137.75Z" fill="white"/>
<path d="M348.82 144.28H351.17V149.61C349.78 150.74 347.83 151.31 345.94 151.31C341.8 151.31 338.74 148.43 338.74 144.44C338.74 140.45 341.79 137.57 345.97 137.57C348.2 137.57 350.07 138.31 351.33 139.75L349.76 141.28C348.71 140.23 347.51 139.75 346.08 139.75C343.24 139.75 341.23 141.68 341.23 144.45C341.23 147.16 343.23 149.15 346.06 149.15C347.01 149.15 347.95 148.96 348.81 148.46V144.28H348.82Z" fill="white"/>
<path d="M369.32 149.03V151.11H359.3V137.75H369.05V139.83H361.78V143.3H368.23V145.34H361.78V149.02H369.32V149.03Z" fill="white"/>
<path d="M388.82 137.75V151.11H386.78L379.41 142.06V151.11H376.95V137.75H378.99L386.36 146.8V137.75H388.82Z" fill="white"/>
<path d="M399.98 139.85H395.55V137.75H406.89V139.85H402.46V151.11H399.98V139.85Z" fill="white"/>
<path d="M423.65 149.03V151.11H413.63V137.75H423.38V139.83H416.11V143.3H422.56V145.34H416.11V149.02H423.65V149.03Z" fill="white"/>
<path d="M107.2 56.02C105.65 55.51 104.11 54.95 102.53 54.51C97.2501 53.03 91.8701 52.61 86.4201 53.21C80.7501 53.83 75.4201 55.51 70.4101 58.24C64.7501 61.33 60.0901 65.55 56.3501 70.79C55.7601 71.62 53.2701 75.1 50.6001 81.6C49.9001 83.83 49.1401 86.06 48.8201 88.39C48.6801 89.41 48.0901 89.58 47.2001 89.58C39.1401 89.56 31.0801 89.57 23.0201 89.57C21.1001 89.57 21.1001 89.57 21.1001 91.54C21.1001 94.27 21.0101 97.01 21.1301 99.74C21.2301 101.97 19.6101 104.02 17.0001 104.09C14.4101 104.15 11.8101 104.17 9.22007 104.09C6.64007 104.01 5.10007 102.34 5.09007 99.77C5.08007 96.72 5.07007 93.67 5.10007 90.62C5.11007 89.82 4.85007 89.44 4.06007 89.22C1.61007 88.56 0.250074 86.77 0.240074 84.21C0.220074 76.99 0.180072 69.77 0.250072 62.55C0.300072 58.28 2.32007 55.01 5.80007 52.61C6.05007 52.44 6.38007 52.35 6.55007 51.9C4.58007 51.47 3.23007 50.23 2.25007 48.53C0.170072 44.94 2.26007 40.11 6.28007 39.04C8.33007 38.5 10.3901 38.74 12.4501 38.74C13.6301 38.74 14.1001 38.3 14.4101 37.21C15.3501 33.88 16.3001 30.54 17.4201 27.27C19.1701 22.17 22.8201 19.07 27.9601 17.63C29.2001 17.28 30.4401 17.24 31.7001 17.25C47.2901 17.26 62.8901 17.32 78.4801 17.22C84.5101 17.18 91.2201 21.23 92.9601 28.01C93.8001 31.29 94.9301 34.5 95.8601 37.76C96.0701 38.49 96.4401 38.7 97.1301 38.69C98.7101 38.67 100.29 38.75 101.86 38.67C105.17 38.51 108.07 41.32 108.5 44.14C109.05 47.68 107.1 50.76 103.72 51.76C103.59 51.8 103.47 51.86 103.14 51.99C104.85 53.08 106.19 54.34 107.34 55.79C107.28 55.91 107.28 55.9 107.2 56.02ZM54.8501 45.85C67.2201 45.85 79.5801 45.85 91.9501 45.85C93.3501 45.85 93.3501 45.84 92.9801 44.53C91.5801 39.62 90.0701 34.74 88.8001 29.8C87.4401 24.52 82.7001 21.61 77.9601 21.65C62.7601 21.77 47.5501 21.69 32.3501 21.71C31.1001 21.71 29.7801 21.68 28.6001 22.02C24.7101 23.14 22.2001 25.7 21.1201 29.66C19.8401 34.38 18.5101 39.09 17.1901 43.8C16.6101 45.86 16.5901 45.85 18.7101 45.85C30.7401 45.85 42.8001 45.85 54.8501 45.85ZM23.6201 66.73C24.0201 63.53 20.8001 60.37 17.4601 60.4C13.8301 60.44 11.0101 63.21 11.0101 66.75C11.0001 70.25 13.8401 73.15 17.3001 73.15C20.8001 73.16 23.8601 70.15 23.6201 66.73Z" fill="#04E63D"/>
</svg>
